<?xml version="1.0" encoding="UTF-8"?>
<svg width="834px" height="485px" viewBox="0 0 834 485" version="1.1" xmlns="http://www.w3.org/2000/svg" xmlns:xlink="http://www.w3.org/1999/xlink">
    <title>Architecture</title>
    <defs>
        <path d="M4,0 L140,0 L276,0 C278.209139,-4.05812251e-16 280,1.790861 280,4 L280,403 C280,405.209139 278.209139,407 276,407 L140,407 L4,407 C1.790861,407 2.705415e-16,405.209139 0,403 L0,4 C-2.705415e-16,1.790861 1.790861,4.05812251e-16 4,0 Z" id="path-1"></path>
        <filter x="-13.0%" y="-9.0%" width="126.1%" height="117.9%" filterUnits="objectBoundingBox" id="filter-2">
            <feMorphology radius="0.5" operator="dilate" in="SourceAlpha" result="shadowSpreadOuter1"></feMorphology>
            <feOffset dx="0" dy="0" in="shadowSpreadOuter1" result="shadowOffsetOuter1"></feOffset>
            <feGaussianBlur stdDeviation="12" in="shadowOffsetOuter1" result="shadowBlurOuter1"></feGaussianBlur>
            <feComposite in="shadowBlurOuter1" in2="SourceAlpha" operator="out" result="shadowBlurOuter1"></feComposite>
            <feColorMatrix values="0 0 0 0 0.435294118   0 0 0 0 0.298039216   0 0 0 0 1  0 0 0 0.32 0" type="matrix" in="shadowBlurOuter1"></feColorMatrix>
        </filter>
        <rect id="path-3" x="0" y="-3.55271368e-15" width="168" height="56" rx="2"></rect>
        <filter x="-21.7%" y="-65.2%" width="143.5%" height="230.4%" filterUnits="objectBoundingBox" id="filter-4">
            <feMorphology radius="0.5" operator="dilate" in="SourceAlpha" result="shadowSpreadOuter1"></feMorphology>
            <feOffset dx="0" dy="0" in="shadowSpreadOuter1" result="shadowOffsetOuter1"></feOffset>
            <feGaussianBlur stdDeviation="12" in="shadowOffsetOuter1" result="shadowBlurOuter1"></feGaussianBlur>
            <feComposite in="shadowBlurOuter1" in2="SourceAlpha" operator="out" result="shadowBlurOuter1"></feComposite>
            <feColorMatrix values="0 0 0 0 1   0 0 0 0 1   0 0 0 0 1  0 0 0 0.32 0" type="matrix" in="shadowBlurOuter1"></feColorMatrix>
        </filter>
        <rect id="path-5" x="0" y="112" width="168" height="56" rx="2"></rect>
        <filter x="-21.7%" y="-65.2%" width="143.5%" height="230.4%" filterUnits="objectBoundingBox" id="filter-6">
            <feMorphology radius="0.5" operator="dilate" in="SourceAlpha" result="shadowSpreadOuter1"></feMorphology>
            <feOffset dx="0" dy="0" in="shadowSpreadOuter1" result="shadowOffsetOuter1"></feOffset>
            <feGaussianBlur stdDeviation="12" in="shadowOffsetOuter1" result="shadowBlurOuter1"></feGaussianBlur>
            <feComposite in="shadowBlurOuter1" in2="SourceAlpha" operator="out" result="shadowBlurOuter1"></feComposite>
            <feColorMatrix values="0 0 0 0 1   0 0 0 0 1   0 0 0 0 1  0 0 0 0.32 0" type="matrix" in="shadowBlurOuter1"></feColorMatrix>
        </filter>
        <linearGradient x1="50%" y1="100%" x2="50%" y2="3.061617e-15%" id="linearGradient-7">
            <stop stop-color="#FFFFFF" stop-opacity="0.2" offset="0%"></stop>
            <stop stop-color="#FFFFFF" offset="100%"></stop>
        </linearGradient>
        <linearGradient x1="50%" y1="100%" x2="50%" y2="3.061617e-15%" id="linearGradient-8">
            <stop stop-color="#FFFFFF" stop-opacity="0.2" offset="0%"></stop>
            <stop stop-color="#FFFFFF" offset="100%"></stop>
        </linearGradient>
        <filter id="filter-9">
            <feColorMatrix in="SourceGraphic" type="matrix" values="0 0 0 0 1.000000 0 0 0 0 1.000000 0 0 0 0 1.000000 0 0 0 1.000000 0"></feColorMatrix>
        </filter>
        <path d="M15.375,17.5555032 C11.9232955,17.5555032 9.125,14.7698425 9.125,11.3333019 C9.125,7.89676129 11.9232955,5.11110064 15.375,5.11110064 C18.8268939,5.11110064 21.625,7.89676129 21.625,11.3333019 C21.625,14.7698425 18.8268939,17.5555032 15.375,17.5555032 M22.0827652,21.1221444 C22.6929924,20.5146313 23.682197,20.5146313 24.2924242,21.1221444 C24.9026515,21.7296575 24.9026515,22.7144622 24.2924242,23.3219753 L24.2924242,23.3219753 L18.0422348,29.5443652 C17.4320076,30.1518783 16.442803,30.1518783 15.8325758,29.5443652 C15.2223485,28.9368521 15.2223485,27.9520473 15.8325758,27.3445342 L15.8325758,27.3445342 Z M15.375,2 C20.5526515,2 24.75,6.17867953 24.75,11.3333019 C24.75,16.4879243 20.5526515,20.6666038 15.375,20.6666038 C10.1973485,20.6666038 6,16.4879243 6,11.3333019 C6,6.17867953 10.1973485,2 15.375,2 Z M26.3126894,2 C27.1755682,2 27.875,2.69632089 27.875,3.55555032 C27.875,4.41477975 27.1755682,5.11110064 26.3126894,5.11110064 C25.4496212,5.11110064 24.7501894,4.41477975 24.7501894,3.55555032 C24.7501894,2.69632089 25.4496212,2 26.3126894,2 Z" id="path-10"></path>
        <filter x="-219.4%" y="-171.4%" width="538.9%" height="442.9%" filterUnits="objectBoundingBox" id="filter-11">
            <feOffset dx="0" dy="0" in="SourceAlpha" result="shadowOffsetOuter1"></feOffset>
            <feGaussianBlur stdDeviation="4" in="shadowOffsetOuter1" result="shadowBlurOuter1"></feGaussianBlur>
            <feColorMatrix values="0 0 0 0 0.345098039   0 0 0 0 0.184313725   0 0 0 0 0.835294118  0 0 0 0.48 0" type="matrix" in="shadowBlurOuter1" result="shadowMatrixOuter1"></feColorMatrix>
            <feOffset dx="0" dy="0" in="SourceAlpha" result="shadowOffsetOuter2"></feOffset>
            <feGaussianBlur stdDeviation="16" in="shadowOffsetOuter2" result="shadowBlurOuter2"></feGaussianBlur>
            <feColorMatrix values="0 0 0 0 0.345098039   0 0 0 0 0.184313725   0 0 0 0 0.835294118  0 0 0 0.32 0" type="matrix" in="shadowBlurOuter2" result="shadowMatrixOuter2"></feColorMatrix>
            <feMerge>
                <feMergeNode in="shadowMatrixOuter1"></feMergeNode>
                <feMergeNode in="shadowMatrixOuter2"></feMergeNode>
            </feMerge>
        </filter>
        <rect id="path-12" x="0" y="0" width="224" height="310" rx="4"></rect>
        <filter x="-16.3%" y="-11.8%" width="132.6%" height="123.5%" filterUnits="objectBoundingBox" id="filter-13">
            <feMorphology radius="0.5" operator="dilate" in="SourceAlpha" result="shadowSpreadOuter1"></feMorphology>
            <feOffset dx="0" dy="0" in="shadowSpreadOuter1" result="shadowOffsetOuter1"></feOffset>
            <feGaussianBlur stdDeviation="12" in="shadowOffsetOuter1" result="shadowBlurOuter1"></feGaussianBlur>
            <feComposite in="shadowBlurOuter1" in2="SourceAlpha" operator="out" result="shadowBlurOuter1"></feComposite>
            <feColorMatrix values="0 0 0 0 1   0 0 0 0 1   0 0 0 0 1  0 0 0 0.32 0" type="matrix" in="shadowBlurOuter1"></feColorMatrix>
        </filter>
        <linearGradient x1="50%" y1="-2.48949813e-15%" x2="50%" y2="100%" id="linearGradient-14">
            <stop stop-color="#FFFFFF" stop-opacity="0.5" offset="0%"></stop>
            <stop stop-color="#FFFFFF" stop-opacity="0" offset="100%"></stop>
        </linearGradient>
        <linearGradient x1="-1.11022302e-14%" y1="50%" x2="100%" y2="50%" id="linearGradient-15">
            <stop stop-color="#FFFFFF" stop-opacity="0.5" offset="0%"></stop>
            <stop stop-color="#FFFFFF" offset="100%"></stop>
        </linearGradient>
    </defs>
    <g id="Landing-page" stroke="none" stroke-width="1" fill="none" fill-rule="evenodd">
        <g id="Landingpage" transform="translate(-51.000000, -2327.000000)">
            <g id="Group-31" transform="translate(76.000000, 2352.000000)">
                <g id="Architecture">
                    <g>
                        <g id="Group-11" opacity="0.64" transform="translate(504.000000, 0.000000)" stroke-linecap="round" stroke-linejoin="round">
                            <g id="Rectangle-Copy-21" transform="translate(140.000000, 203.500000) scale(1, -1) translate(-140.000000, -203.500000) ">
                                <use fill="black" fill-opacity="1" filter="url(#filter-2)" xlink:href="#path-1"></use>
                                <use stroke="#6F4CFF" stroke-width="1" fill-opacity="0" fill="#6F4CFF" fill-rule="evenodd" xlink:href="#path-1"></use>
                                <use stroke="#FFFFFF" stroke-width="0.5" xlink:href="#path-1"></use>
                            </g>
                        </g>
                        <path d="M550.207,87 L550.207,78.292 L553.301,78.292 L553.301,77.06 L545.839,77.06 L545.839,78.292 L548.933,78.292 L548.933,87 L550.207,87 Z M555.779,87 L555.779,83.528 C555.779,81.89 556.675,80.966 557.809,80.966 C558.789,80.966 559.461,81.694 559.461,82.87 L559.461,87 L560.651,87 L560.651,82.688 C560.651,80.952 559.573,79.86 558.005,79.86 C557.095,79.86 556.255,80.252 555.779,81.078 L555.779,76.5 L554.575,76.5 L554.575,87 L555.779,87 Z M565.803,87.14 C567.581,87.14 568.729,86.104 569.079,84.872 L567.847,84.872 C567.427,85.712 566.685,86.048 565.817,86.048 C564.557,86.048 563.535,85.096 563.493,83.822 L569.191,83.822 C569.359,81.652 568.029,79.86 565.831,79.86 C563.647,79.86 562.275,81.456 562.275,83.5 C562.275,85.586 563.759,87.14 565.803,87.14 Z M567.917,82.87 L563.549,82.87 C563.787,81.484 564.781,80.924 565.789,80.924 C566.825,80.924 567.693,81.568 567.917,82.87 Z M578.963,87.168 C581.861,87.168 584.227,84.942 583.947,81.316 L578.907,81.316 L578.907,82.534 L582.617,82.534 C582.435,84.494 581.007,85.936 578.963,85.936 C576.751,85.936 575.113,84.228 575.113,82.03 C575.113,79.832 576.751,78.124 578.963,78.124 C580.461,78.124 581.693,78.922 582.225,80 L583.667,80 C583.107,78.348 581.315,76.892 578.963,76.892 C576.051,76.892 573.811,79.132 573.811,82.03 C573.811,84.928 576.051,87.168 578.963,87.168 Z M586.859,87 L586.859,83.528 C586.859,81.89 587.825,81.12 588.707,81.12 C588.945,81.12 589.141,81.148 589.365,81.232 L589.365,79.986 C589.169,79.944 589.001,79.93 588.819,79.93 C588.007,79.93 587.139,80.462 586.859,81.358 L586.859,80 L585.655,80 L585.655,87 L586.859,87 Z M593.425,87.14 C594.475,87.14 595.427,86.594 595.889,85.922 L595.889,87 L597.093,87 L597.093,80 L595.889,80 L595.889,81.078 C595.427,80.406 594.475,79.86 593.425,79.86 C591.465,79.86 589.995,81.498 589.995,83.5 C589.995,85.502 591.465,87.14 593.425,87.14 Z M593.607,86.034 C592.193,86.034 591.213,84.914 591.213,83.5 C591.213,82.086 592.193,80.966 593.607,80.966 C595.021,80.966 595.987,82.086 595.987,83.5 C595.987,84.914 595.021,86.034 593.607,86.034 Z M600.565,89.926 L600.565,85.922 C601.027,86.594 601.979,87.14 603.029,87.14 C604.975,87.14 606.459,85.502 606.459,83.5 C606.459,81.498 604.975,79.86 603.029,79.86 C601.979,79.86 601.027,80.406 600.565,81.078 L600.565,80 L599.361,80 L599.361,89.926 L600.565,89.926 Z M602.847,86.034 C601.433,86.034 600.467,84.914 600.467,83.5 C600.467,82.086 601.433,80.966 602.847,80.966 C604.261,80.966 605.227,82.086 605.227,83.5 C605.227,84.914 604.261,86.034 602.847,86.034 Z M609.399,87 L609.399,83.528 C609.399,81.89 610.295,80.966 611.429,80.966 C612.409,80.966 613.081,81.694 613.081,82.87 L613.081,87 L614.271,87 L614.271,82.688 C614.271,80.952 613.193,79.86 611.625,79.86 C610.715,79.86 609.875,80.252 609.399,81.078 L609.399,76.5 L608.195,76.5 L608.195,87 L609.399,87 Z M620.431,78.124 C620.907,78.124 621.271,77.746 621.271,77.27 C621.271,76.808 620.907,76.416 620.431,76.416 C619.955,76.416 619.563,76.808 619.563,77.27 C619.563,77.746 619.955,78.124 620.431,78.124 Z M621.019,87 L621.019,80 L619.815,80 L619.815,87 L621.019,87 Z M624.505,87 L624.505,83.528 C624.505,81.89 625.401,80.966 626.535,80.966 C627.515,80.966 628.187,81.694 628.187,82.87 L628.187,87 L629.377,87 L629.377,82.688 C629.377,80.952 628.299,79.86 626.731,79.86 C625.821,79.86 624.981,80.252 624.505,81.078 L624.505,80 L623.301,80 L623.301,87 L624.505,87 Z M634.627,90.066 C636.531,90.066 638.071,88.904 638.071,86.566 L638.071,80 L636.867,80 L636.867,81.078 C636.391,80.378 635.467,79.86 634.431,79.86 C632.485,79.86 631.001,81.428 631.001,83.416 C631.001,85.418 632.485,86.986 634.431,86.986 C635.467,86.986 636.391,86.454 636.867,85.754 L636.867,86.58 C636.867,88.162 635.915,89.002 634.655,89.002 C633.521,89.002 632.737,88.568 632.415,87.644 L631.239,87.644 C631.449,89.058 632.751,90.066 634.627,90.066 Z M634.599,85.866 C633.199,85.866 632.233,84.83 632.233,83.416 C632.233,82.016 633.199,80.966 634.599,80.966 C635.999,80.966 636.965,82.016 636.965,83.416 C636.965,84.83 635.999,85.866 634.599,85.866 Z M643.321,87.14 C645.099,87.14 646.247,86.104 646.597,84.872 L645.365,84.872 C644.945,85.712 644.203,86.048 643.335,86.048 C642.075,86.048 641.053,85.096 641.011,83.822 L646.709,83.822 C646.877,81.652 645.547,79.86 643.349,79.86 C641.165,79.86 639.793,81.456 639.793,83.5 C639.793,85.586 641.277,87.14 643.321,87.14 Z M645.435,82.87 L641.067,82.87 C641.305,81.484 642.299,80.924 643.307,80.924 C644.343,80.924 645.211,81.568 645.435,82.87 Z M650.699,87.14 C652.155,87.14 653.275,86.496 653.275,85.11 C653.275,84.06 652.645,83.332 651.483,83.038 L650.363,82.744 C649.621,82.548 649.299,82.254 649.299,81.736 C649.299,81.204 649.831,80.868 650.503,80.868 C651.161,80.868 651.665,81.246 651.847,81.862 L653.051,81.862 C652.925,80.742 652.001,79.86 650.503,79.86 C649.089,79.86 648.081,80.588 648.081,81.75 C648.081,82.744 648.683,83.5 649.887,83.808 L650.895,84.074 C651.721,84.298 652.057,84.634 652.057,85.194 C652.057,85.81 651.469,86.118 650.713,86.118 C649.985,86.118 649.257,85.824 649.089,84.97 L647.857,84.97 C647.955,86.384 649.201,87.14 650.699,87.14 Z M657.587,87.07 C658.021,87.07 658.371,87 658.665,86.902 L658.665,85.824 C658.441,85.908 658.105,85.964 657.811,85.964 C657.055,85.964 656.649,85.67 656.649,84.774 L656.649,81.106 L658.665,81.106 L658.665,80 L656.649,80 L656.649,78.054 L655.445,78.054 L655.445,80 L653.961,80 L653.961,81.106 L655.445,81.106 L655.445,84.928 C655.445,86.384 656.369,87.07 657.587,87.07 Z M662.459,87.14 C663.915,87.14 665.035,86.496 665.035,85.11 C665.035,84.06 664.405,83.332 663.243,83.038 L662.123,82.744 C661.381,82.548 661.059,82.254 661.059,81.736 C661.059,81.204 661.591,80.868 662.263,80.868 C662.921,80.868 663.425,81.246 663.607,81.862 L664.811,81.862 C664.685,80.742 663.761,79.86 662.263,79.86 C660.849,79.86 659.841,80.588 659.841,81.75 C659.841,82.744 660.443,83.5 661.647,83.808 L662.655,84.074 C663.481,84.298 663.817,84.634 663.817,85.194 C663.817,85.81 663.229,86.118 662.473,86.118 C661.745,86.118 661.017,85.824 660.849,84.97 L659.617,84.97 C659.715,86.384 660.961,87.14 662.459,87.14 Z M666.799,89.002 L668.241,86.692 C668.353,86.51 668.437,86.3 668.437,86.062 C668.437,85.502 667.975,85.012 667.401,85.012 C666.827,85.012 666.365,85.502 666.365,86.062 C666.365,86.482 666.603,86.832 666.939,87 L666.001,89.002 L666.799,89.002 Z M674.905,89.926 L674.905,85.922 C675.367,86.594 676.319,87.14 677.369,87.14 C679.315,87.14 680.799,85.502 680.799,83.5 C680.799,81.498 679.315,79.86 677.369,79.86 C676.319,79.86 675.367,80.406 674.905,81.078 L674.905,80 L673.701,80 L673.701,89.926 L674.905,89.926 Z M677.187,86.034 C675.773,86.034 674.807,84.914 674.807,83.5 C674.807,82.086 675.773,80.966 677.187,80.966 C678.601,80.966 679.567,82.086 679.567,83.5 C679.567,84.914 678.601,86.034 677.187,86.034 Z M683.739,87 L683.739,83.528 C683.739,81.89 684.705,81.12 685.587,81.12 C685.825,81.12 686.021,81.148 686.245,81.232 L686.245,79.986 C686.049,79.944 685.881,79.93 685.699,79.93 C684.887,79.93 684.019,80.462 683.739,81.358 L683.739,80 L682.535,80 L682.535,87 L683.739,87 Z M690.515,87.14 C692.615,87.14 694.169,85.516 694.169,83.5 C694.169,81.484 692.615,79.86 690.515,79.86 C688.401,79.86 686.847,81.484 686.847,83.5 C686.847,85.516 688.401,87.14 690.515,87.14 Z M690.515,86.02 C689.059,86.02 688.079,84.9 688.079,83.5 C688.079,82.1 689.059,80.98 690.515,80.98 C691.971,80.98 692.937,82.1 692.937,83.5 C692.937,84.9 691.971,86.02 690.515,86.02 Z M698.999,87.14 C700.763,87.14 702.135,86.048 702.527,84.536 L701.239,84.536 C700.931,85.418 700.091,86.034 698.999,86.034 C697.543,86.034 696.563,84.914 696.563,83.5 C696.563,82.086 697.543,80.966 698.999,80.966 C700.091,80.966 700.931,81.582 701.239,82.464 L702.527,82.464 C702.135,80.952 700.763,79.86 698.999,79.86 C696.871,79.86 695.345,81.498 695.345,83.5 C695.345,85.502 696.871,87.14 698.999,87.14 Z M707.105,87.14 C708.883,87.14 710.031,86.104 710.381,84.872 L709.149,84.872 C708.729,85.712 707.987,86.048 707.119,86.048 C705.859,86.048 704.837,85.096 704.795,83.822 L710.493,83.822 C710.661,81.652 709.331,79.86 707.133,79.86 C704.949,79.86 703.577,81.456 703.577,83.5 C703.577,85.586 705.061,87.14 707.105,87.14 Z M709.219,82.87 L704.851,82.87 C705.089,81.484 706.083,80.924 707.091,80.924 C708.127,80.924 708.995,81.568 709.219,82.87 Z M714.483,87.14 C715.939,87.14 717.059,86.496 717.059,85.11 C717.059,84.06 716.429,83.332 715.267,83.038 L714.147,82.744 C713.405,82.548 713.083,82.254 713.083,81.736 C713.083,81.204 713.615,80.868 714.287,80.868 C714.945,80.868 715.449,81.246 715.631,81.862 L716.835,81.862 C716.709,80.742 715.785,79.86 714.287,79.86 C712.873,79.86 711.865,80.588 711.865,81.75 C711.865,82.744 712.467,83.5 713.671,83.808 L714.679,84.074 C715.505,84.298 715.841,84.634 715.841,85.194 C715.841,85.81 715.253,86.118 714.497,86.118 C713.769,86.118 713.041,85.824 712.873,84.97 L711.641,84.97 C711.739,86.384 712.985,87.14 714.483,87.14 Z M721.021,87.14 C722.477,87.14 723.597,86.496 723.597,85.11 C723.597,84.06 722.967,83.332 721.805,83.038 L720.685,82.744 C719.943,82.548 719.621,82.254 719.621,81.736 C719.621,81.204 720.153,80.868 720.825,80.868 C721.483,80.868 721.987,81.246 722.169,81.862 L723.373,81.862 C723.247,80.742 722.323,79.86 720.825,79.86 C719.411,79.86 718.403,80.588 718.403,81.75 C718.403,82.744 719.005,83.5 720.209,83.808 L721.217,84.074 C722.043,84.298 722.379,84.634 722.379,85.194 C722.379,85.81 721.791,86.118 721.035,86.118 C720.307,86.118 719.579,85.824 719.411,84.97 L718.179,84.97 C718.277,86.384 719.523,87.14 721.021,87.14 Z M728.287,87.14 C730.065,87.14 731.213,86.104 731.563,84.872 L730.331,84.872 C729.911,85.712 729.169,86.048 728.301,86.048 C727.041,86.048 726.019,85.096 725.977,83.822 L731.675,83.822 C731.843,81.652 730.513,79.86 728.315,79.86 C726.131,79.86 724.759,81.456 724.759,83.5 C724.759,85.586 726.243,87.14 728.287,87.14 Z M730.401,82.87 L726.033,82.87 C726.271,81.484 727.265,80.924 728.273,80.924 C729.309,80.924 730.177,81.568 730.401,82.87 Z M735.665,87.14 C737.121,87.14 738.241,86.496 738.241,85.11 C738.241,84.06 737.611,83.332 736.449,83.038 L735.329,82.744 C734.587,82.548 734.265,82.254 734.265,81.736 C734.265,81.204 734.797,80.868 735.469,80.868 C736.127,80.868 736.631,81.246 736.813,81.862 L738.017,81.862 C737.891,80.742 736.967,79.86 735.469,79.86 C734.055,79.86 733.047,80.588 733.047,81.75 C733.047,82.744 733.649,83.5 734.853,83.808 L735.861,84.074 C736.687,84.298 737.023,84.634 737.023,85.194 C737.023,85.81 736.435,86.118 735.679,86.118 C734.951,86.118 734.223,85.824 734.055,84.97 L732.823,84.97 C732.921,86.384 734.167,87.14 735.665,87.14 Z M740.005,89.002 L741.447,86.692 C741.559,86.51 741.643,86.3 741.643,86.062 C741.643,85.502 741.181,85.012 740.607,85.012 C740.033,85.012 739.571,85.502 739.571,86.062 C739.571,86.482 739.809,86.832 740.145,87 L739.207,89.002 L740.005,89.002 Z M550.41,98.124 C550.886,98.124 551.25,97.746 551.25,97.27 C551.25,96.808 550.886,96.416 550.41,96.416 C549.934,96.416 549.542,96.808 549.542,97.27 C549.542,97.746 549.934,98.124 550.41,98.124 Z M550.998,107 L550.998,100 L549.794,100 L549.794,107 L550.998,107 Z M554.484,107 L554.484,103.528 C554.484,101.89 555.38,100.966 556.514,100.966 C557.494,100.966 558.166,101.694 558.166,102.87 L558.166,107 L559.356,107 L559.356,102.688 C559.356,100.952 558.278,99.86 556.71,99.86 C555.8,99.86 554.96,100.252 554.484,101.078 L554.484,100 L553.28,100 L553.28,107 L554.484,107 Z M564.41,107.14 C565.46,107.14 566.412,106.594 566.874,105.922 L566.874,107 L568.078,107 L568.078,96.5 L566.874,96.5 L566.874,101.078 C566.412,100.406 565.46,99.86 564.41,99.86 C562.45,99.86 560.98,101.498 560.98,103.5 C560.98,105.502 562.45,107.14 564.41,107.14 Z M564.592,106.034 C563.178,106.034 562.198,104.914 562.198,103.5 C562.198,102.086 563.178,100.966 564.592,100.966 C566.006,100.966 566.972,102.086 566.972,103.5 C566.972,104.914 566.006,106.034 564.592,106.034 Z M573.328,107.14 C575.106,107.14 576.254,106.104 576.604,104.872 L575.372,104.872 C574.952,105.712 574.21,106.048 573.342,106.048 C572.082,106.048 571.06,105.096 571.018,103.822 L576.716,103.822 C576.884,101.652 575.554,99.86 573.356,99.86 C571.172,99.86 569.8,101.456 569.8,103.5 C569.8,105.586 571.284,107.14 573.328,107.14 Z M575.442,102.87 L571.074,102.87 C571.312,101.484 572.306,100.924 573.314,100.924 C574.35,100.924 575.218,101.568 575.442,102.87 Z M578.634,107 L580.762,104.354 L582.89,107 L584.374,107 L581.518,103.458 L584.15,100 L582.68,100 L580.762,102.52 L578.83,100 L577.374,100 L580.006,103.458 L577.136,107 L578.634,107 Z M588.322,107.14 C590.1,107.14 591.248,106.104 591.598,104.872 L590.366,104.872 C589.946,105.712 589.204,106.048 588.336,106.048 C587.076,106.048 586.054,105.096 586.012,103.822 L591.71,103.822 C591.878,101.652 590.548,99.86 588.35,99.86 C586.166,99.86 584.794,101.456 584.794,103.5 C584.794,105.586 586.278,107.14 588.322,107.14 Z M590.436,102.87 L586.068,102.87 C586.306,101.484 587.3,100.924 588.308,100.924 C589.344,100.924 590.212,101.568 590.436,102.87 Z M595.7,107.14 C597.156,107.14 598.276,106.496 598.276,105.11 C598.276,104.06 597.646,103.332 596.484,103.038 L595.364,102.744 C594.622,102.548 594.3,102.254 594.3,101.736 C594.3,101.204 594.832,100.868 595.504,100.868 C596.162,100.868 596.666,101.246 596.848,101.862 L598.052,101.862 C597.926,100.742 597.002,99.86 595.504,99.86 C594.09,99.86 593.082,100.588 593.082,101.75 C593.082,102.744 593.684,103.5 594.888,103.808 L595.896,104.074 C596.722,104.298 597.058,104.634 597.058,105.194 C597.058,105.81 596.47,106.118 595.714,106.118 C594.986,106.118 594.258,105.824 594.09,104.97 L592.858,104.97 C592.956,106.384 594.202,107.14 595.7,107.14 Z M600.04,109.002 L601.482,106.692 C601.594,106.51 601.678,106.3 601.678,106.062 C601.678,105.502 601.216,105.012 600.642,105.012 C600.068,105.012 599.606,105.502 599.606,106.062 C599.606,106.482 599.844,106.832 600.18,107 L599.242,109.002 L600.04,109.002 Z M609.826,107.14 C610.876,107.14 611.828,106.594 612.29,105.922 L612.29,107 L613.494,107 L613.494,100 L612.29,100 L612.29,101.078 C611.828,100.406 610.876,99.86 609.826,99.86 C607.866,99.86 606.396,101.498 606.396,103.5 C606.396,105.502 607.866,107.14 609.826,107.14 Z M610.008,106.034 C608.594,106.034 607.614,104.914 607.614,103.5 C607.614,102.086 608.594,100.966 610.008,100.966 C611.422,100.966 612.388,102.086 612.388,103.5 C612.388,104.914 611.422,106.034 610.008,106.034 Z M616.966,107 L616.966,103.528 C616.966,101.89 617.862,100.966 618.996,100.966 C619.976,100.966 620.648,101.694 620.648,102.87 L620.648,107 L621.838,107 L621.838,102.688 C621.838,100.952 620.76,99.86 619.192,99.86 C618.282,99.86 617.442,100.252 616.966,101.078 L616.966,100 L615.762,100 L615.762,107 L616.966,107 Z M626.892,107.14 C627.942,107.14 628.894,106.594 629.356,105.922 L629.356,107 L630.56,107 L630.56,96.5 L629.356,96.5 L629.356,101.078 C628.894,100.406 627.942,99.86 626.892,99.86 C624.932,99.86 623.462,101.498 623.462,103.5 C623.462,105.502 624.932,107.14 626.892,107.14 Z M627.074,106.034 C625.66,106.034 624.68,104.914 624.68,103.5 C624.68,102.086 625.66,100.966 627.074,100.966 C628.488,100.966 629.454,102.086 629.454,103.5 C629.454,104.914 628.488,106.034 627.074,106.034 Z M638.456,107.14 C639.912,107.14 641.032,106.496 641.032,105.11 C641.032,104.06 640.402,103.332 639.24,103.038 L638.12,102.744 C637.378,102.548 637.056,102.254 637.056,101.736 C637.056,101.204 637.588,100.868 638.26,100.868 C638.918,100.868 639.422,101.246 639.604,101.862 L640.808,101.862 C640.682,100.742 639.758,99.86 638.26,99.86 C636.846,99.86 635.838,100.588 635.838,101.75 C635.838,102.744 636.44,103.5 637.644,103.808 L638.652,104.074 C639.478,104.298 639.814,104.634 639.814,105.194 C639.814,105.81 639.226,106.118 638.47,106.118 C637.742,106.118 637.014,105.824 636.846,104.97 L635.614,104.97 C635.712,106.384 636.958,107.14 638.456,107.14 Z M645.722,107.14 C647.5,107.14 648.648,106.104 648.998,104.872 L647.766,104.872 C647.346,105.712 646.604,106.048 645.736,106.048 C644.476,106.048 643.454,105.096 643.412,103.822 L649.11,103.822 C649.278,101.652 647.948,99.86 645.75,99.86 C643.566,99.86 642.194,101.456 642.194,103.5 C642.194,105.586 643.678,107.14 645.722,107.14 Z M647.836,102.87 L643.468,102.87 C643.706,101.484 644.7,100.924 645.708,100.924 C646.744,100.924 647.612,101.568 647.836,102.87 Z M652.05,107 L652.05,103.528 C652.05,101.89 653.016,101.12 653.898,101.12 C654.136,101.12 654.332,101.148 654.556,101.232 L654.556,99.986 C654.36,99.944 654.192,99.93 654.01,99.93 C653.198,99.93 652.33,100.462 652.05,101.358 L652.05,100 L650.846,100 L650.846,107 L652.05,107 Z M659.162,107 L662.396,100 L661.052,100 L658.658,105.292 L656.264,100 L654.92,100 L658.154,107 L659.162,107 Z M666.442,107.14 C668.22,107.14 669.368,106.104 669.718,104.872 L668.486,104.872 C668.066,105.712 667.324,106.048 666.456,106.048 C665.196,106.048 664.174,105.096 664.132,103.822 L669.83,103.822 C669.998,101.652 668.668,99.86 666.47,99.86 C664.286,99.86 662.914,101.456 662.914,103.5 C662.914,105.586 664.398,107.14 666.442,107.14 Z M668.556,102.87 L664.188,102.87 C664.426,101.484 665.42,100.924 666.428,100.924 C667.464,100.924 668.332,101.568 668.556,102.87 Z M673.82,107.14 C675.276,107.14 676.396,106.496 676.396,105.11 C676.396,104.06 675.766,103.332 674.604,103.038 L673.484,102.744 C672.742,102.548 672.42,102.254 672.42,101.736 C672.42,101.204 672.952,100.868 673.624,100.868 C674.282,100.868 674.786,101.246 674.968,101.862 L676.172,101.862 C676.046,100.742 675.122,99.86 673.624,99.86 C672.21,99.86 671.202,100.588 671.202,101.75 C671.202,102.744 671.804,103.5 673.008,103.808 L674.016,104.074 C674.842,104.298 675.178,104.634 675.178,105.194 C675.178,105.81 674.59,106.118 673.834,106.118 C673.106,106.118 672.378,105.824 672.21,104.97 L670.978,104.97 C671.076,106.384 672.322,107.14 673.82,107.14 Z M684.362,107.14 C685.412,107.14 686.364,106.594 686.826,105.922 L686.826,107 L688.03,107 L688.03,96.5 L686.826,96.5 L686.826,101.078 C686.364,100.406 685.412,99.86 684.362,99.86 C682.402,99.86 680.932,101.498 680.932,103.5 C680.932,105.502 682.402,107.14 684.362,107.14 Z M684.544,106.034 C683.13,106.034 682.15,104.914 682.15,103.5 C682.15,102.086 683.13,100.966 684.544,100.966 C685.958,100.966 686.924,102.086 686.924,103.5 C686.924,104.914 685.958,106.034 684.544,106.034 Z M693.182,107.14 C694.232,107.14 695.184,106.594 695.646,105.922 L695.646,107 L696.85,107 L696.85,100 L695.646,100 L695.646,101.078 C695.184,100.406 694.232,99.86 693.182,99.86 C691.222,99.86 689.752,101.498 689.752,103.5 C689.752,105.502 691.222,107.14 693.182,107.14 Z M693.364,106.034 C691.95,106.034 690.97,104.914 690.97,103.5 C690.97,102.086 691.95,100.966 693.364,100.966 C694.778,100.966 695.744,102.086 695.744,103.5 C695.744,104.914 694.778,106.034 693.364,106.034 Z M701.834,107.07 C702.268,107.07 702.618,107 702.912,106.902 L702.912,105.824 C702.688,105.908 702.352,105.964 702.058,105.964 C701.302,105.964 700.896,105.67 700.896,104.774 L700.896,101.106 L702.912,101.106 L702.912,100 L700.896,100 L700.896,98.054 L699.692,98.054 L699.692,100 L698.208,100 L698.208,101.106 L699.692,101.106 L699.692,104.928 C699.692,106.384 700.616,107.07 701.834,107.07 Z M707.238,107.14 C708.288,107.14 709.24,106.594 709.702,105.922 L709.702,107 L710.906,107 L710.906,100 L709.702,100 L709.702,101.078 C709.24,100.406 708.288,99.86 707.238,99.86 C705.278,99.86 703.808,101.498 703.808,103.5 C703.808,105.502 705.278,107.14 707.238,107.14 Z M707.42,106.034 C706.006,106.034 705.026,104.914 705.026,103.5 C705.026,102.086 706.006,100.966 707.42,100.966 C708.834,100.966 709.8,102.086 709.8,103.5 C709.8,104.914 708.834,106.034 707.42,106.034 Z M717.164,98.124 C717.64,98.124 718.004,97.746 718.004,97.27 C718.004,96.808 717.64,96.416 717.164,96.416 C716.688,96.416 716.296,96.808 716.296,97.27 C716.296,97.746 716.688,98.124 717.164,98.124 Z M717.752,107 L717.752,100 L716.548,100 L716.548,107 L717.752,107 Z M721.238,107 L721.238,103.528 C721.238,101.89 722.134,100.966 723.268,100.966 C724.248,100.966 724.92,101.694 724.92,102.87 L724.92,107 L726.11,107 L726.11,102.688 C726.11,100.952 725.032,99.86 723.464,99.86 C722.554,99.86 721.714,100.252 721.238,101.078 L721.238,100 L720.034,100 L720.034,107 L721.238,107 Z M734.538,107.14 C735.588,107.14 736.54,106.594 737.002,105.922 L737.002,107 L738.206,107 L738.206,100 L737.002,100 L737.002,101.078 C736.54,100.406 735.588,99.86 734.538,99.86 C732.578,99.86 731.108,101.498 731.108,103.5 C731.108,105.502 732.578,107.14 734.538,107.14 Z M734.72,106.034 C733.306,106.034 732.326,104.914 732.326,103.5 C732.326,102.086 733.306,100.966 734.72,100.966 C736.134,100.966 737.1,102.086 737.1,103.5 C737.1,104.914 736.134,106.034 734.72,106.034 Z M602.175,127 L605.409,120 L604.065,120 L601.671,125.292 L599.277,120 L597.933,120 L601.167,127 L602.175,127 Z M609.455,127.14 C611.233,127.14 612.381,126.104 612.731,124.872 L611.499,124.872 C611.079,125.712 610.337,126.048 609.469,126.048 C608.209,126.048 607.187,125.096 607.145,123.822 L612.843,123.822 C613.011,121.652 611.681,119.86 609.483,119.86 C607.299,119.86 605.927,121.456 605.927,123.5 C605.927,125.586 607.411,127.14 609.455,127.14 Z M611.569,122.87 L607.201,122.87 C607.439,121.484 608.433,120.924 609.441,120.924 C610.477,120.924 611.345,121.568 611.569,122.87 Z M615.783,127 L615.783,123.528 C615.783,121.89 616.749,121.12 617.631,121.12 C617.869,121.12 618.065,121.148 618.289,121.232 L618.289,119.986 C618.093,119.944 617.925,119.93 617.743,119.93 C616.931,119.93 616.063,120.462 615.783,121.358 L615.783,120 L614.579,120 L614.579,127 L615.783,127 Z M620.319,118.124 C620.795,118.124 621.159,117.746 621.159,117.27 C621.159,116.808 620.795,116.416 620.319,116.416 C619.843,116.416 619.451,116.808 619.451,117.27 C619.451,117.746 619.843,118.124 620.319,118.124 Z M620.907,127 L620.907,120 L619.703,120 L619.703,127 L620.907,127 Z M624.981,127 L624.981,121.106 L627.011,121.106 L627.011,120 L624.981,120 L624.981,118.712 C624.981,117.83 625.373,117.522 626.143,117.522 C626.423,117.522 626.787,117.578 627.011,117.662 L627.011,116.598 C626.703,116.486 626.339,116.416 625.919,116.416 C624.701,116.416 623.777,117.144 623.777,118.586 L623.777,120 L622.293,120 L622.293,121.106 L623.777,121.106 L623.777,127 L624.981,127 Z M628.943,118.124 C629.419,118.124 629.783,117.746 629.783,117.27 C629.783,116.808 629.419,116.416 628.943,116.416 C628.467,116.416 628.075,116.808 628.075,117.27 C628.075,117.746 628.467,118.124 628.943,118.124 Z M629.531,127 L629.531,120 L628.327,120 L628.327,127 L629.531,127 Z M634.683,127.14 C635.733,127.14 636.685,126.594 637.147,125.922 L637.147,127 L638.351,127 L638.351,120 L637.147,120 L637.147,121.078 C636.685,120.406 635.733,119.86 634.683,119.86 C632.723,119.86 631.253,121.498 631.253,123.5 C631.253,125.502 632.723,127.14 634.683,127.14 Z M634.865,126.034 C633.451,126.034 632.471,124.914 632.471,123.5 C632.471,122.086 633.451,120.966 634.865,120.966 C636.279,120.966 637.245,122.086 637.245,123.5 C637.245,124.914 636.279,126.034 634.865,126.034 Z M644.287,127.14 C646.233,127.14 647.717,125.502 647.717,123.5 C647.717,121.498 646.233,119.86 644.287,119.86 C643.237,119.86 642.285,120.406 641.823,121.078 L641.823,116.5 L640.619,116.5 L640.619,127 L641.823,127 L641.823,125.922 C642.285,126.594 643.237,127.14 644.287,127.14 Z M644.105,126.034 C642.691,126.034 641.725,124.914 641.725,123.5 C641.725,122.086 642.691,120.966 644.105,120.966 C645.519,120.966 646.485,122.086 646.485,123.5 C646.485,124.914 645.519,126.034 644.105,126.034 Z M650.643,127 L650.643,116.5 L649.439,116.5 L649.439,127 L650.643,127 Z M655.907,127.14 C657.685,127.14 658.833,126.104 659.183,124.872 L657.951,124.872 C657.531,125.712 656.789,126.048 655.921,126.048 C654.661,126.048 653.639,125.096 653.597,123.822 L659.295,123.822 C659.463,121.652 658.133,119.86 655.935,119.86 C653.751,119.86 652.379,121.456 652.379,123.5 C652.379,125.586 653.863,127.14 655.907,127.14 Z M658.021,122.87 L653.653,122.87 C653.891,121.484 654.885,120.924 655.893,120.924 C656.929,120.924 657.797,121.568 658.021,122.87 Z M666.631,127 L668.367,121.96 L670.089,127 L671.153,127 L673.533,120 L672.259,120 L670.565,125.11 L668.815,120 L667.891,120 L666.141,125.11 L664.447,120 L663.187,120 L665.567,127 L666.631,127 Z M677.691,127.14 C678.741,127.14 679.693,126.594 680.155,125.922 L680.155,127 L681.359,127 L681.359,120 L680.155,120 L680.155,121.078 C679.693,120.406 678.741,119.86 677.691,119.86 C675.731,119.86 674.261,121.498 674.261,123.5 C674.261,125.502 675.731,127.14 677.691,127.14 Z M677.873,126.034 C676.459,126.034 675.479,124.914 675.479,123.5 C675.479,122.086 676.459,120.966 677.873,120.966 C679.287,120.966 680.253,122.086 680.253,123.5 C680.253,124.914 679.287,126.034 677.873,126.034 Z M685.489,129.926 L690.081,120 L688.737,120 L686.343,125.306 L683.935,120 L682.605,120 L685.671,126.636 L684.145,129.926 L685.489,129.926 Z" id="TheGraphingests,processes,indexes,andservesdatainaverifableway" fill-opacity="0.88" fill="#FFFFFF"></path>
                        <rect id="Rectangle-Copy-14" fill-opacity="0.08" fill="#FFFFFF" x="280" y="276" width="168" height="56" rx="2"></rect>
                        <path d="M280,190.5 L280,191.5 L250.5,191.5 L250.5,304.5 L280,304.5 L280,305.5 L250,305.5 C249.75454,305.5 249.550392,305.323125 249.508056,305.089876 L249.5,305 L249.5,191 C249.5,190.75454 249.676875,190.550392 249.910124,190.508056 L250,190.5 L280,190.5 Z" id="Path" fill="#FFFFFF" fill-rule="nonzero"></path>
                        <rect id="Rectangle-Copy-16" fill-opacity="0.08" fill="#FFFFFF" x="280" y="164" width="168" height="56" rx="2"></rect>
                        <g id="Group-15" transform="translate(560.000000, 164.000000)">
                            <g id="Rectangle-Copy-17" stroke-linecap="round" stroke-linejoin="round">
                                <use fill="black" fill-opacity="1" filter="url(#filter-4)" xlink:href="#path-3"></use>
                                <use stroke="#F2F2F9" stroke-width="1" fill-opacity="0" fill="#F2F2F9" fill-rule="evenodd" xlink:href="#path-3"></use>
                                <use stroke="#FFFFFF" stroke-width="0.5" xlink:href="#path-3"></use>
                            </g>
                            <g id="Rectangle-Copy-18" stroke-linecap="round" stroke-linejoin="round">
                                <use fill="black" fill-opacity="1" filter="url(#filter-6)" xlink:href="#path-5"></use>
                                <use stroke="#F2F2F9" stroke-width="1" fill-opacity="0" fill="#F2F2F9" fill-rule="evenodd" xlink:href="#path-5"></use>
                                <use stroke="#FFFFFF" stroke-width="0.5" xlink:href="#path-5"></use>
                            </g>
                            <path d="M58.74,33 L58.74,23.06 L57.438,23.06 L57.438,33 L58.74,33 Z M62.366,33 L62.366,29.528 C62.366,27.89 63.262,26.966 64.396,26.966 C65.376,26.966 66.048,27.694 66.048,28.87 L66.048,33 L67.238,33 L67.238,28.688 C67.238,26.952 66.16,25.86 64.592,25.86 C63.682,25.86 62.842,26.252 62.366,27.078 L62.366,26 L61.162,26 L61.162,33 L62.366,33 Z M72.292,33.14 C73.342,33.14 74.294,32.594 74.756,31.922 L74.756,33 L75.96,33 L75.96,22.5 L74.756,22.5 L74.756,27.078 C74.294,26.406 73.342,25.86 72.292,25.86 C70.332,25.86 68.862,27.498 68.862,29.5 C68.862,31.502 70.332,33.14 72.292,33.14 Z M72.474,32.034 C71.06,32.034 70.08,30.914 70.08,29.5 C70.08,28.086 71.06,26.966 72.474,26.966 C73.888,26.966 74.854,28.086 74.854,29.5 C74.854,30.914 73.888,32.034 72.474,32.034 Z M81.21,33.14 C82.988,33.14 84.136,32.104 84.486,30.872 L83.254,30.872 C82.834,31.712 82.092,32.048 81.224,32.048 C79.964,32.048 78.942,31.096 78.9,29.822 L84.598,29.822 C84.766,27.652 83.436,25.86 81.238,25.86 C79.054,25.86 77.682,27.456 77.682,29.5 C77.682,31.586 79.166,33.14 81.21,33.14 Z M83.324,28.87 L78.956,28.87 C79.194,27.484 80.188,26.924 81.196,26.924 C82.232,26.924 83.1,27.568 83.324,28.87 Z M86.516,33 L88.644,30.354 L90.772,33 L92.256,33 L89.4,29.458 L92.032,26 L90.562,26 L88.644,28.52 L86.712,26 L85.256,26 L87.888,29.458 L85.018,33 L86.516,33 Z M94.104,24.124 C94.58,24.124 94.944,23.746 94.944,23.27 C94.944,22.808 94.58,22.416 94.104,22.416 C93.628,22.416 93.236,22.808 93.236,23.27 C93.236,23.746 93.628,24.124 94.104,24.124 Z M94.692,33 L94.692,26 L93.488,26 L93.488,33 L94.692,33 Z M98.178,33 L98.178,29.528 C98.178,27.89 99.074,26.966 100.208,26.966 C101.188,26.966 101.86,27.694 101.86,28.87 L101.86,33 L103.05,33 L103.05,28.688 C103.05,26.952 101.972,25.86 100.404,25.86 C99.494,25.86 98.654,26.252 98.178,27.078 L98.178,26 L96.974,26 L96.974,33 L98.178,33 Z M108.3,36.066 C110.204,36.066 111.744,34.904 111.744,32.566 L111.744,26 L110.54,26 L110.54,27.078 C110.064,26.378 109.14,25.86 108.104,25.86 C106.158,25.86 104.674,27.428 104.674,29.416 C104.674,31.418 106.158,32.986 108.104,32.986 C109.14,32.986 110.064,32.454 110.54,31.754 L110.54,32.58 C110.54,34.162 109.588,35.002 108.328,35.002 C107.194,35.002 106.41,34.568 106.088,33.644 L104.912,33.644 C105.122,35.058 106.424,36.066 108.3,36.066 Z M108.272,31.866 C106.872,31.866 105.906,30.83 105.906,29.416 C105.906,28.016 106.872,26.966 108.272,26.966 C109.672,26.966 110.638,28.016 110.638,29.416 C110.638,30.83 109.672,31.866 108.272,31.866 Z" id="Indexing" fill-opacity="0.88" fill="#FFFFFF"></path>
                            <path d="M74.833,145 L76.107,142.102 L80.741,142.102 L82.015,145 L83.373,145 L78.963,135.06 L77.885,135.06 L73.489,145 L74.833,145 Z M80.223,140.926 L76.611,140.926 L78.417,136.824 L80.223,140.926 Z M86.075,145 L86.075,141.374 L87.811,141.374 C89.883,141.374 91.227,140.016 91.227,138.224 C91.227,136.432 89.883,135.06 87.811,135.06 L84.773,135.06 L84.773,145 L86.075,145 Z M87.811,140.17 L86.075,140.17 L86.075,136.278 L87.811,136.278 C89.183,136.278 89.939,137.118 89.939,138.224 C89.939,139.33 89.183,140.17 87.811,140.17 Z M94.279,145 L94.279,135.06 L92.977,135.06 L92.977,145 L94.279,145 Z" id="API" fill-opacity="0.88" fill="#FFFFFF"></path>
                            <g id="Group-13" transform="translate(74.000000, 225.000000) rotate(90.000000) translate(-74.000000, -225.000000) translate(33.000000, 217.000000)">
                                <g id="Icons-/-Arrow-/-Direction-default" transform="translate(74.000000, 8.000000) rotate(90.000000) translate(-74.000000, -8.000000) translate(66.000000, 0.000000)" fill="#FFFFFF">
                                    <path d="M8,5.5 C9.38094237,5.5 10.5,6.61905763 10.5,8 C10.5,9.20952733 9.641515,10.2181498 8.50050033,10.449912 L8.5,14 C8.5,14.2761424 8.27614237,14.5 8,14.5 C7.75454011,14.5 7.55039163,14.3231248 7.50805567,14.0898756 L7.5,14 L7.5005083,10.4501167 C6.35899096,10.2187441 5.5,9.20988371 5.5,8 C5.5,6.61905763 6.61905763,5.5 8,5.5 Z M8,6.5 C7.17134237,6.5 6.5,7.17134237 6.5,8 C6.5,8.82865763 7.17134237,9.5 8,9.5 C8.82865763,9.5 9.5,8.82865763 9.5,8 C9.5,7.17134237 8.82865763,6.5 8,6.5 Z M8.2843055,1.58859116 L8.35355339,1.64644661 L14.3535534,7.64644661 C14.5488155,7.84170876 14.5488155,8.15829124 14.3535534,8.35355339 C14.179987,8.52711974 13.9105626,8.54640489 13.7156945,8.41140884 L13.6464466,8.35355339 L8,2.707 L2.35355339,8.35355339 C2.17998704,8.52711974 1.91056264,8.54640489 1.7156945,8.41140884 L1.64644661,8.35355339 C1.47288026,8.17998704 1.45359511,7.91056264 1.58859116,7.7156945 L1.64644661,7.64644661 L7.64644661,1.64644661 C7.82001296,1.47288026 8.08943736,1.45359511 8.2843055,1.58859116 Z" id="Combined-Shape"></path>
                                </g>
                                <path d="M34,-26 C34.2454599,-26 34.4496084,-25.8231248 34.4919443,-25.5898756 L34.5,-25.5 L34.5,41.5 C34.5,41.7761424 34.2761424,42 34,42 C33.7545401,42 33.5503916,41.8231248 33.5080557,41.5898756 L33.5,41.5 L33.5,-25.5 C33.5,-25.7761424 33.7238576,-26 34,-26 Z" id="Line-Copy-17" fill="url(#linearGradient-7)" fill-rule="nonzero" transform="translate(34.000000, 8.000000) rotate(90.000000) translate(-34.000000, -8.000000) "></path>
                            </g>
                            <g id="Group-13-Copy-6" transform="translate(96.000000, 233.000000) scale(1, -1) rotate(90.000000) translate(-96.000000, -233.000000) translate(55.000000, 225.000000)">
                                <g id="Icons-/-Arrow-/-Direction-default" transform="translate(74.000000, 8.000000) rotate(90.000000) translate(-74.000000, -8.000000) translate(66.000000, 0.000000)" fill="#FFFFFF">
                                    <path d="M8,5.5 C9.38094237,5.5 10.5,6.61905763 10.5,8 C10.5,9.20952733 9.641515,10.2181498 8.50050033,10.449912 L8.5,14 C8.5,14.2761424 8.27614237,14.5 8,14.5 C7.75454011,14.5 7.55039163,14.3231248 7.50805567,14.0898756 L7.5,14 L7.5005083,10.4501167 C6.35899096,10.2187441 5.5,9.20988371 5.5,8 C5.5,6.61905763 6.61905763,5.5 8,5.5 Z M8,6.5 C7.17134237,6.5 6.5,7.17134237 6.5,8 C6.5,8.82865763 7.17134237,9.5 8,9.5 C8.82865763,9.5 9.5,8.82865763 9.5,8 C9.5,7.17134237 8.82865763,6.5 8,6.5 Z M8.2843055,1.58859116 L8.35355339,1.64644661 L14.3535534,7.64644661 C14.5488155,7.84170876 14.5488155,8.15829124 14.3535534,8.35355339 C14.179987,8.52711974 13.9105626,8.54640489 13.7156945,8.41140884 L13.6464466,8.35355339 L8,2.707 L2.35355339,8.35355339 C2.17998704,8.52711974 1.91056264,8.54640489 1.7156945,8.41140884 L1.64644661,8.35355339 C1.47288026,8.17998704 1.45359511,7.91056264 1.58859116,7.7156945 L1.64644661,7.64644661 L7.64644661,1.64644661 C7.82001296,1.47288026 8.08943736,1.45359511 8.2843055,1.58859116 Z" id="Combined-Shape"></path>
                                </g>
                                <path d="M34,-26 C34.2454599,-26 34.4496084,-25.8231248 34.4919443,-25.5898756 L34.5,-25.5 L34.5,41.5 C34.5,41.7761424 34.2761424,42 34,42 C33.7545401,42 33.5503916,41.8231248 33.5080557,41.5898756 L33.5,41.5 L33.5,-25.5 C33.5,-25.7761424 33.7238576,-26 34,-26 Z" id="Line-Copy-17" fill="url(#linearGradient-7)" fill-rule="nonzero" transform="translate(34.000000, 8.000000) rotate(90.000000) translate(-34.000000, -8.000000) "></path>
                            </g>
                            <path d="M73,56 C73.2454599,56 73.4496084,56.1768752 73.4919443,56.4101244 L73.5,56.5 L73.5,111.5 C73.5,111.776142 73.2761424,112 73,112 C72.7545401,112 72.5503916,111.823125 72.5080557,111.589876 L72.5,111.5 L72.5,56.5 C72.5,56.2238576 72.7238576,56 73,56 Z" id="Line-Copy-17" fill="url(#linearGradient-8)" fill-rule="nonzero" transform="translate(73.000000, 84.000000) rotate(180.000000) translate(-73.000000, -84.000000) "></path>
                            <path d="M97,56 C97.2454599,56 97.4496084,56.1768752 97.4919443,56.4101244 L97.5,56.5 L97.5,111.5 C97.5,111.776142 97.2761424,112 97,112 C96.7545401,112 96.5503916,111.823125 96.5080557,111.589876 L96.5,111.5 L96.5,56.5 C96.5,56.2238576 96.7238576,56 97,56 Z" id="Line-Copy-17" fill="url(#linearGradient-8)" fill-rule="nonzero" transform="translate(97.000000, 84.000000) scale(1, -1) rotate(180.000000) translate(-97.000000, -84.000000) "></path>
                        </g>
                        <path d="M324.793,197 L324.793,193.374 L326.529,193.374 C328.601,193.374 329.945,192.016 329.945,190.224 C329.945,188.432 328.601,187.06 326.529,187.06 L323.491,187.06 L323.491,197 L324.793,197 Z M326.529,192.17 L324.793,192.17 L324.793,188.278 L326.529,188.278 C327.901,188.278 328.657,189.118 328.657,190.224 C328.657,191.33 327.901,192.17 326.529,192.17 Z M333.963,197.14 C334.845,197.14 335.657,196.734 336.119,195.922 L336.119,197 L337.323,197 L337.323,190 L336.119,190 L336.119,193.472 C336.119,195.082 335.265,196.034 334.173,196.034 C333.207,196.034 332.591,195.292 332.591,194.116 L332.591,190 L331.387,190 L331.387,194.298 C331.387,196.034 332.423,197.14 333.963,197.14 Z M343.259,197.14 C345.205,197.14 346.689,195.502 346.689,193.5 C346.689,191.498 345.205,189.86 343.259,189.86 C342.209,189.86 341.257,190.406 340.795,191.078 L340.795,186.5 L339.591,186.5 L339.591,197 L340.795,197 L340.795,195.922 C341.257,196.594 342.209,197.14 343.259,197.14 Z M343.077,196.034 C341.663,196.034 340.697,194.914 340.697,193.5 C340.697,192.086 341.663,190.966 343.077,190.966 C344.491,190.966 345.457,192.086 345.457,193.5 C345.457,194.914 344.491,196.034 343.077,196.034 Z M349.615,197 L349.615,186.5 L348.411,186.5 L348.411,197 L349.615,197 Z M352.513,188.124 C352.989,188.124 353.353,187.746 353.353,187.27 C353.353,186.808 352.989,186.416 352.513,186.416 C352.037,186.416 351.645,186.808 351.645,187.27 C351.645,187.746 352.037,188.124 352.513,188.124 Z M353.101,197 L353.101,190 L351.897,190 L351.897,197 L353.101,197 Z M358.491,197.14 C360.255,197.14 361.627,196.048 362.019,194.536 L360.731,194.536 C360.423,195.418 359.583,196.034 358.491,196.034 C357.035,196.034 356.055,194.914 356.055,193.5 C356.055,192.086 357.035,190.966 358.491,190.966 C359.583,190.966 360.423,191.582 360.731,192.464 L362.019,192.464 C361.627,190.952 360.255,189.86 358.491,189.86 C356.363,189.86 354.837,191.498 354.837,193.5 C354.837,195.502 356.363,197.14 358.491,197.14 Z M370.027,197 C373.079,197 375.319,194.872 375.319,192.03 C375.319,189.188 373.079,187.06 370.027,187.06 L367.171,187.06 L367.171,197 L370.027,197 Z M370.027,195.782 L368.473,195.782 L368.473,188.278 L370.027,188.278 C372.421,188.278 374.003,189.874 374.003,192.03 C374.003,194.186 372.421,195.782 370.027,195.782 Z M379.967,197.14 C381.017,197.14 381.969,196.594 382.431,195.922 L382.431,197 L383.635,197 L383.635,190 L382.431,190 L382.431,191.078 C381.969,190.406 381.017,189.86 379.967,189.86 C378.007,189.86 376.537,191.498 376.537,193.5 C376.537,195.502 378.007,197.14 379.967,197.14 Z M380.149,196.034 C378.735,196.034 377.755,194.914 377.755,193.5 C377.755,192.086 378.735,190.966 380.149,190.966 C381.563,190.966 382.529,192.086 382.529,193.5 C382.529,194.914 381.563,196.034 380.149,196.034 Z M388.619,197.07 C389.053,197.07 389.403,197 389.697,196.902 L389.697,195.824 C389.473,195.908 389.137,195.964 388.843,195.964 C388.087,195.964 387.681,195.67 387.681,194.774 L387.681,191.106 L389.697,191.106 L389.697,190 L387.681,190 L387.681,188.054 L386.477,188.054 L386.477,190 L384.993,190 L384.993,191.106 L386.477,191.106 L386.477,194.928 C386.477,196.384 387.401,197.07 388.619,197.07 Z M394.023,197.14 C395.073,197.14 396.025,196.594 396.487,195.922 L396.487,197 L397.691,197 L397.691,190 L396.487,190 L396.487,191.078 C396.025,190.406 395.073,189.86 394.023,189.86 C392.063,189.86 390.593,191.498 390.593,193.5 C390.593,195.502 392.063,197.14 394.023,197.14 Z M394.205,196.034 C392.791,196.034 391.811,194.914 391.811,193.5 C391.811,192.086 392.791,190.966 394.205,190.966 C395.619,190.966 396.585,192.086 396.585,193.5 C396.585,194.914 395.619,196.034 394.205,196.034 Z" id="PublicData" fill="#FFFFFF"></path>
                        <g filter="url(#filter-9)" id="Encrypted-Private-Da">
                            <g transform="translate(306.551000, 288.416000)">
                                <path d="M5.796,10.584 L5.796,9.352 L1.302,9.352 L1.302,6.118 L4.956,6.118 L4.956,4.886 L1.302,4.886 L1.302,1.876 L5.796,1.876 L5.796,0.644 L2.84217094e-14,0.644 L2.84217094e-14,10.584 L5.796,10.584 Z M8.666,10.584 L8.666,7.112 C8.666,5.474 9.562,4.55 10.696,4.55 C11.676,4.55 12.348,5.278 12.348,6.454 L12.348,10.584 L13.538,10.584 L13.538,6.272 C13.538,4.536 12.46,3.444 10.892,3.444 C9.982,3.444 9.142,3.836 8.666,4.662 L8.666,3.584 L7.462,3.584 L7.462,10.584 L8.666,10.584 Z M18.816,10.724 C20.58,10.724 21.952,9.632 22.344,8.12 L21.056,8.12 C20.748,9.002 19.908,9.618 18.816,9.618 C17.36,9.618 16.38,8.498 16.38,7.084 C16.38,5.67 17.36,4.55 18.816,4.55 C19.908,4.55 20.748,5.166 21.056,6.048 L22.344,6.048 C21.952,4.536 20.58,3.444 18.816,3.444 C16.688,3.444 15.162,5.082 15.162,7.084 C15.162,9.086 16.688,10.724 18.816,10.724 Z M25.144,10.584 L25.144,7.112 C25.144,5.474 26.11,4.704 26.992,4.704 C27.23,4.704 27.426,4.732 27.65,4.816 L27.65,3.57 C27.454,3.528 27.286,3.514 27.104,3.514 C26.292,3.514 25.424,4.046 25.144,4.942 L25.144,3.584 L23.94,3.584 L23.94,10.584 L25.144,10.584 Z M30.926,13.51 L35.518,3.584 L34.174,3.584 L31.78,8.89 L29.372,3.584 L28.042,3.584 L31.108,10.22 L29.582,13.51 L30.926,13.51 Z M37.926,13.51 L37.926,9.506 C38.388,10.178 39.34,10.724 40.39,10.724 C42.336,10.724 43.82,9.086 43.82,7.084 C43.82,5.082 42.336,3.444 40.39,3.444 C39.34,3.444 38.388,3.99 37.926,4.662 L37.926,3.584 L36.722,3.584 L36.722,13.51 L37.926,13.51 Z M40.208,9.618 C38.794,9.618 37.828,8.498 37.828,7.084 C37.828,5.67 38.794,4.55 40.208,4.55 C41.622,4.55 42.588,5.67 42.588,7.084 C42.588,8.498 41.622,9.618 40.208,9.618 Z M48.146,10.654 C48.58,10.654 48.93,10.584 49.224,10.486 L49.224,9.408 C49,9.492 48.664,9.548 48.37,9.548 C47.614,9.548 47.208,9.254 47.208,8.358 L47.208,4.69 L49.224,4.69 L49.224,3.584 L47.208,3.584 L47.208,1.638 L46.004,1.638 L46.004,3.584 L44.52,3.584 L44.52,4.69 L46.004,4.69 L46.004,8.512 C46.004,9.968 46.928,10.654 48.146,10.654 Z M53.648,10.724 C55.426,10.724 56.574,9.688 56.924,8.456 L55.692,8.456 C55.272,9.296 54.53,9.632 53.662,9.632 C52.402,9.632 51.38,8.68 51.338,7.406 L57.036,7.406 C57.204,5.236 55.874,3.444 53.676,3.444 C51.492,3.444 50.12,5.04 50.12,7.084 C50.12,9.17 51.604,10.724 53.648,10.724 Z M55.762,6.454 L51.394,6.454 C51.632,5.068 52.626,4.508 53.634,4.508 C54.67,4.508 55.538,5.152 55.762,6.454 Z M61.656,10.724 C62.706,10.724 63.658,10.178 64.12,9.506 L64.12,10.584 L65.324,10.584 L65.324,0.084 L64.12,0.084 L64.12,4.662 C63.658,3.99 62.706,3.444 61.656,3.444 C59.696,3.444 58.226,5.082 58.226,7.084 C58.226,9.086 59.696,10.724 61.656,10.724 Z M61.838,9.618 C60.424,9.618 59.444,8.498 59.444,7.084 C59.444,5.67 60.424,4.55 61.838,4.55 C63.252,4.55 64.218,5.67 64.218,7.084 C64.218,8.498 63.252,9.618 61.838,9.618 Z M72.45,10.584 L72.45,6.958 L74.186,6.958 C76.258,6.958 77.602,5.6 77.602,3.808 C77.602,2.016 76.258,0.644 74.186,0.644 L71.148,0.644 L71.148,10.584 L72.45,10.584 Z M74.186,5.754 L72.45,5.754 L72.45,1.862 L74.186,1.862 C75.558,1.862 76.314,2.702 76.314,3.808 C76.314,4.914 75.558,5.754 74.186,5.754 Z M80.276,10.584 L80.276,7.112 C80.276,5.474 81.242,4.704 82.124,4.704 C82.362,4.704 82.558,4.732 82.782,4.816 L82.782,3.57 C82.586,3.528 82.418,3.514 82.236,3.514 C81.424,3.514 80.556,4.046 80.276,4.942 L80.276,3.584 L79.072,3.584 L79.072,10.584 L80.276,10.584 Z M84.812,1.708 C85.288,1.708 85.652,1.33 85.652,0.854 C85.652,0.392 85.288,-1.42108547e-13 84.812,-1.42108547e-13 C84.336,-1.42108547e-13 83.944,0.392 83.944,0.854 C83.944,1.33 84.336,1.708 84.812,1.708 Z M85.4,10.584 L85.4,3.584 L84.196,3.584 L84.196,10.584 L85.4,10.584 Z M90.874,10.584 L94.108,3.584 L92.764,3.584 L90.37,8.876 L87.976,3.584 L86.632,3.584 L89.866,10.584 L90.874,10.584 Z M98.07,10.724 C99.12,10.724 100.072,10.178 100.534,9.506 L100.534,10.584 L101.738,10.584 L101.738,3.584 L100.534,3.584 L100.534,4.662 C100.072,3.99 99.12,3.444 98.07,3.444 C96.11,3.444 94.64,5.082 94.64,7.084 C94.64,9.086 96.11,10.724 98.07,10.724 Z M98.252,9.618 C96.838,9.618 95.858,8.498 95.858,7.084 C95.858,5.67 96.838,4.55 98.252,4.55 C99.666,4.55 100.632,5.67 100.632,7.084 C100.632,8.498 99.666,9.618 98.252,9.618 Z M106.722,10.654 C107.156,10.654 107.506,10.584 107.8,10.486 L107.8,9.408 C107.576,9.492 107.24,9.548 106.946,9.548 C106.19,9.548 105.784,9.254 105.784,8.358 L105.784,4.69 L107.8,4.69 L107.8,3.584 L105.784,3.584 L105.784,1.638 L104.58,1.638 L104.58,3.584 L103.096,3.584 L103.096,4.69 L104.58,4.69 L104.58,8.512 C104.58,9.968 105.504,10.654 106.722,10.654 Z M112.224,10.724 C114.002,10.724 115.15,9.688 115.5,8.456 L114.268,8.456 C113.848,9.296 113.106,9.632 112.238,9.632 C110.978,9.632 109.956,8.68 109.914,7.406 L115.612,7.406 C115.78,5.236 114.45,3.444 112.252,3.444 C110.068,3.444 108.696,5.04 108.696,7.084 C108.696,9.17 110.18,10.724 112.224,10.724 Z M114.338,6.454 L109.97,6.454 C110.208,5.068 111.202,4.508 112.21,4.508 C113.246,4.508 114.114,5.152 114.338,6.454 Z M40.369,30.584 C43.421,30.584 45.661,28.456 45.661,25.614 C45.661,22.772 43.421,20.644 40.369,20.644 L37.513,20.644 L37.513,30.584 L40.369,30.584 Z M40.369,29.366 L38.815,29.366 L38.815,21.862 L40.369,21.862 C42.763,21.862 44.345,23.458 44.345,25.614 C44.345,27.77 42.763,29.366 40.369,29.366 Z M50.309,30.724 C51.359,30.724 52.311,30.178 52.773,29.506 L52.773,30.584 L53.977,30.584 L53.977,23.584 L52.773,23.584 L52.773,24.662 C52.311,23.99 51.359,23.444 50.309,23.444 C48.349,23.444 46.879,25.082 46.879,27.084 C46.879,29.086 48.349,30.724 50.309,30.724 Z M50.491,29.618 C49.077,29.618 48.097,28.498 48.097,27.084 C48.097,25.67 49.077,24.55 50.491,24.55 C51.905,24.55 52.871,25.67 52.871,27.084 C52.871,28.498 51.905,29.618 50.491,29.618 Z M58.961,30.654 C59.395,30.654 59.745,30.584 60.039,30.486 L60.039,29.408 C59.815,29.492 59.479,29.548 59.185,29.548 C58.429,29.548 58.023,29.254 58.023,28.358 L58.023,24.69 L60.039,24.69 L60.039,23.584 L58.023,23.584 L58.023,21.638 L56.819,21.638 L56.819,23.584 L55.335,23.584 L55.335,24.69 L56.819,24.69 L56.819,28.512 C56.819,29.968 57.743,30.654 58.961,30.654 Z M64.365,30.724 C65.415,30.724 66.367,30.178 66.829,29.506 L66.829,30.584 L68.033,30.584 L68.033,23.584 L66.829,23.584 L66.829,24.662 C66.367,23.99 65.415,23.444 64.365,23.444 C62.405,23.444 60.935,25.082 60.935,27.084 C60.935,29.086 62.405,30.724 64.365,30.724 Z M64.547,29.618 C63.133,29.618 62.153,28.498 62.153,27.084 C62.153,25.67 63.133,24.55 64.547,24.55 C65.961,24.55 66.927,25.67 66.927,27.084 C66.927,28.498 65.961,29.618 64.547,29.618 Z" id="EncryptedPrivateData" fill-opacity="0.88" fill="#FFFFFF"></path>
                                <polygon id="*" fill-opacity="0.64" fill="#FFFFFF" points="76.727 25.376 77.483 24.83 76.377 23.332 78.155 22.744 77.861 21.862 76.083 22.436 76.083 20.644 75.145 20.644 75.145 22.436 73.353 21.848 73.087 22.744 74.851 23.332 73.773 24.83 74.529 25.376 75.621 23.878"></polygon>
                            </g>
                        </g>
                        <polygon id="*" fill-opacity="0.64" fill="#FFFFFF" points="673.606 363.792 674.362 363.246 673.256 361.748 675.034 361.16 674.74 360.278 672.962 360.852 672.962 359.06 672.024 359.06 672.024 360.852 670.232 360.264 669.966 361.16 671.73 361.748 670.652 363.246 671.408 363.792 672.5 362.294"></polygon>
                        <g id="Icons-/-Logos-/-The-Graph" transform="translate(628.000000, 24.000000)">
                            <g id="Fill-19">
                                <use fill="black" fill-opacity="1" filter="url(#filter-11)" xlink:href="#path-10"></use>
                                <use fill="#FFFFFF" fill-rule="evenodd" xlink:href="#path-10"></use>
                            </g>
                        </g>
                        <path d="M613.077,459.168 C615.583,459.168 617.403,457.53 617.837,455.724 L616.465,455.724 C616.031,456.97 614.729,457.936 613.077,457.936 C610.865,457.936 609.227,456.228 609.227,454.03 C609.227,451.832 610.865,450.124 613.077,450.124 C614.729,450.124 616.031,451.09 616.465,452.336 L617.837,452.336 C617.403,450.53 615.583,448.892 613.077,448.892 C610.165,448.892 607.925,451.132 607.925,454.03 C607.925,456.928 610.165,459.168 613.077,459.168 Z M622.555,459.14 C624.655,459.14 626.209,457.516 626.209,455.5 C626.209,453.484 624.655,451.86 622.555,451.86 C620.441,451.86 618.887,453.484 618.887,455.5 C618.887,457.516 620.441,459.14 622.555,459.14 Z M622.555,458.02 C621.099,458.02 620.119,456.9 620.119,455.5 C620.119,454.1 621.099,452.98 622.555,452.98 C624.011,452.98 624.977,454.1 624.977,455.5 C624.977,456.9 624.011,458.02 622.555,458.02 Z M629.135,459 L629.135,455.528 C629.135,453.89 630.031,452.966 631.165,452.966 C632.145,452.966 632.817,453.694 632.817,454.87 L632.817,459 L634.007,459 L634.007,454.688 C634.007,452.952 632.929,451.86 631.361,451.86 C630.451,451.86 629.611,452.252 629.135,453.078 L629.135,452 L627.931,452 L627.931,459 L629.135,459 Z M638.431,459.14 C639.887,459.14 641.007,458.496 641.007,457.11 C641.007,456.06 640.377,455.332 639.215,455.038 L638.095,454.744 C637.353,454.548 637.031,454.254 637.031,453.736 C637.031,453.204 637.563,452.868 638.235,452.868 C638.893,452.868 639.397,453.246 639.579,453.862 L640.783,453.862 C640.657,452.742 639.733,451.86 638.235,451.86 C636.821,451.86 635.813,452.588 635.813,453.75 C635.813,454.744 636.415,455.5 637.619,455.808 L638.627,456.074 C639.453,456.298 639.789,456.634 639.789,457.194 C639.789,457.81 639.201,458.118 638.445,458.118 C637.717,458.118 636.989,457.824 636.821,456.97 L635.589,456.97 C635.687,458.384 636.933,459.14 638.431,459.14 Z M645.193,459.14 C646.075,459.14 646.887,458.734 647.349,457.922 L647.349,459 L648.553,459 L648.553,452 L647.349,452 L647.349,455.472 C647.349,457.082 646.495,458.034 645.403,458.034 C644.437,458.034 643.821,457.292 643.821,456.116 L643.821,452 L642.617,452 L642.617,456.298 C642.617,458.034 643.653,459.14 645.193,459.14 Z M652.025,459 L652.025,455.528 C652.025,453.946 652.823,452.966 653.957,452.966 C654.867,452.966 655.329,453.75 655.329,454.884 L655.329,459 L656.533,459 L656.533,455.528 C656.533,453.946 657.317,452.966 658.451,452.966 C659.361,452.966 659.837,453.75 659.837,454.884 L659.837,459 L661.041,459 L661.041,454.702 C661.041,452.994 660.117,451.86 658.591,451.86 C657.555,451.86 656.673,452.434 656.295,453.358 C655.945,452.434 655.189,451.86 654.139,451.86 C653.201,451.86 652.431,452.336 652.025,453.078 L652.025,452 L650.821,452 L650.821,459 L652.025,459 Z M666.193,459.14 C667.971,459.14 669.119,458.104 669.469,456.872 L668.237,456.872 C667.817,457.712 667.075,458.048 666.207,458.048 C664.947,458.048 663.925,457.096 663.883,455.822 L669.581,455.822 C669.749,453.652 668.419,451.86 666.221,451.86 C664.037,451.86 662.665,453.456 662.665,455.5 C662.665,457.586 664.149,459.14 666.193,459.14 Z M668.307,454.87 L663.939,454.87 C664.177,453.484 665.171,452.924 666.179,452.924 C667.215,452.924 668.083,453.568 668.307,454.87 Z M672.521,459 L672.521,455.528 C672.521,453.89 673.487,453.12 674.369,453.12 C674.607,453.12 674.803,453.148 675.027,453.232 L675.027,451.986 C674.831,451.944 674.663,451.93 674.481,451.93 C673.669,451.93 672.801,452.462 672.521,453.358 L672.521,452 L671.317,452 L671.317,459 L672.521,459 Z M678.569,459.14 C680.025,459.14 681.145,458.496 681.145,457.11 C681.145,456.06 680.515,455.332 679.353,455.038 L678.233,454.744 C677.491,454.548 677.169,454.254 677.169,453.736 C677.169,453.204 677.701,452.868 678.373,452.868 C679.031,452.868 679.535,453.246 679.717,453.862 L680.921,453.862 C680.795,452.742 679.871,451.86 678.373,451.86 C676.959,451.86 675.951,452.588 675.951,453.75 C675.951,454.744 676.553,455.5 677.757,455.808 L678.765,456.074 C679.591,456.298 679.927,456.634 679.927,457.194 C679.927,457.81 679.339,458.118 678.583,458.118 C677.855,458.118 677.127,457.824 676.959,456.97 L675.727,456.97 C675.825,458.384 677.071,459.14 678.569,459.14 Z" id="Consumers" fill-opacity="0.88" fill="#FFFFFF"></path>
                        <g id="Rectangle-Copy-23" opacity="0.64" transform="translate(0.000000, 96.500000)" stroke-linecap="round" stroke-linejoin="round">
                            <g id="Rectangle-Copy-22">
                                <use fill="black" fill-opacity="1" filter="url(#filter-13)" xlink:href="#path-12"></use>
                                <use stroke="#F2F2F9" stroke-width="1" fill-opacity="0" fill="#F2F2F9" fill-rule="evenodd" xlink:href="#path-12"></use>
                                <use stroke="#FFFFFF" stroke-width="0.5" xlink:href="#path-12"></use>
                            </g>
                        </g>
                        <rect id="Rectangle-Copy-11" fill-opacity="0.08" fill="#FFFFFF" x="28" y="132" width="168" height="56" rx="2"></rect>
                        <rect id="Rectangle-Copy-12" fill-opacity="0.08" fill="#FFFFFF" x="29" y="220" width="168" height="56" rx="2"></rect>
                        <rect id="Rectangle-Copy-15" fill-opacity="0.08" fill="#FFFFFF" x="28" y="308" width="168" height="56" rx="2"></rect>
                        <path d="M79.042,165 C81.058,165 82.374,163.754 82.374,162.102 C82.374,160.772 81.618,160.072 80.652,159.722 C81.282,159.33 81.716,158.672 81.716,157.692 C81.716,156.292 80.596,155.06 78.748,155.06 L75.486,155.06 L75.486,165 L79.042,165 Z M78.748,159.33 L76.788,159.33 L76.788,156.236 L78.748,156.236 C79.812,156.236 80.442,156.95 80.442,157.79 C80.442,158.672 79.812,159.33 78.748,159.33 Z M79.098,163.824 L76.788,163.824 L76.788,160.45 L79.112,160.45 C80.428,160.45 81.1,161.178 81.1,162.144 C81.1,163.124 80.428,163.824 79.098,163.824 Z M85.3,165 L85.3,154.5 L84.096,154.5 L84.096,165 L85.3,165 Z M90.69,165.14 C92.79,165.14 94.344,163.516 94.344,161.5 C94.344,159.484 92.79,157.86 90.69,157.86 C88.576,157.86 87.022,159.484 87.022,161.5 C87.022,163.516 88.576,165.14 90.69,165.14 Z M90.69,164.02 C89.234,164.02 88.254,162.9 88.254,161.5 C88.254,160.1 89.234,158.98 90.69,158.98 C92.146,158.98 93.112,160.1 93.112,161.5 C93.112,162.9 92.146,164.02 90.69,164.02 Z M99.174,165.14 C100.938,165.14 102.31,164.048 102.702,162.536 L101.414,162.536 C101.106,163.418 100.266,164.034 99.174,164.034 C97.718,164.034 96.738,162.914 96.738,161.5 C96.738,160.086 97.718,158.966 99.174,158.966 C100.266,158.966 101.106,159.582 101.414,160.464 L102.702,160.464 C102.31,158.952 100.938,157.86 99.174,157.86 C97.046,157.86 95.52,159.498 95.52,161.5 C95.52,163.502 97.046,165.14 99.174,165.14 Z M105.502,165 L105.502,161.5 L109.296,165 L110.92,165 L106.706,161.094 L110.15,158 L108.554,158 L105.502,160.73 L105.502,154.5 L104.298,154.5 L104.298,165 L105.502,165 Z M114.504,165.14 C116.268,165.14 117.64,164.048 118.032,162.536 L116.744,162.536 C116.436,163.418 115.596,164.034 114.504,164.034 C113.048,164.034 112.068,162.914 112.068,161.5 C112.068,160.086 113.048,158.966 114.504,158.966 C115.596,158.966 116.436,159.582 116.744,160.464 L118.032,160.464 C117.64,158.952 116.268,157.86 114.504,157.86 C112.376,157.86 110.85,159.498 110.85,161.5 C110.85,163.502 112.376,165.14 114.504,165.14 Z M120.832,165 L120.832,161.528 C120.832,159.89 121.728,158.966 122.862,158.966 C123.842,158.966 124.514,159.694 124.514,160.87 L124.514,165 L125.704,165 L125.704,160.688 C125.704,158.952 124.626,157.86 123.058,157.86 C122.148,157.86 121.308,158.252 120.832,159.078 L120.832,154.5 L119.628,154.5 L119.628,165 L120.832,165 Z M130.758,165.14 C131.808,165.14 132.76,164.594 133.222,163.922 L133.222,165 L134.426,165 L134.426,158 L133.222,158 L133.222,159.078 C132.76,158.406 131.808,157.86 130.758,157.86 C128.798,157.86 127.328,159.498 127.328,161.5 C127.328,163.502 128.798,165.14 130.758,165.14 Z M130.94,164.034 C129.526,164.034 128.546,162.914 128.546,161.5 C128.546,160.086 129.526,158.966 130.94,158.966 C132.354,158.966 133.32,160.086 133.32,161.5 C133.32,162.914 132.354,164.034 130.94,164.034 Z M137.31,156.124 C137.786,156.124 138.15,155.746 138.15,155.27 C138.15,154.808 137.786,154.416 137.31,154.416 C136.834,154.416 136.442,154.808 136.442,155.27 C136.442,155.746 136.834,156.124 137.31,156.124 Z M137.898,165 L137.898,158 L136.694,158 L136.694,165 L137.898,165 Z M141.384,165 L141.384,161.528 C141.384,159.89 142.28,158.966 143.414,158.966 C144.394,158.966 145.066,159.694 145.066,160.87 L145.066,165 L146.256,165 L146.256,160.688 C146.256,158.952 145.178,157.86 143.61,157.86 C142.7,157.86 141.86,158.252 141.384,159.078 L141.384,158 L140.18,158 L140.18,165 L141.384,165 Z M150.68,165.14 C152.136,165.14 153.256,164.496 153.256,163.11 C153.256,162.06 152.626,161.332 151.464,161.038 L150.344,160.744 C149.602,160.548 149.28,160.254 149.28,159.736 C149.28,159.204 149.812,158.868 150.484,158.868 C151.142,158.868 151.646,159.246 151.828,159.862 L153.032,159.862 C152.906,158.742 151.982,157.86 150.484,157.86 C149.07,157.86 148.062,158.588 148.062,159.75 C148.062,160.744 148.664,161.5 149.868,161.808 L150.876,162.074 C151.702,162.298 152.038,162.634 152.038,163.194 C152.038,163.81 151.45,164.118 150.694,164.118 C149.966,164.118 149.238,163.824 149.07,162.97 L147.838,162.97 C147.936,164.384 149.182,165.14 150.68,165.14 Z" id="Blockchains" fill-opacity="0.88" fill="#FFFFFF"></path>
                        <path d="M58.508,253.168 C60.356,253.168 61.672,252.104 61.672,250.424 C61.672,248.94 60.804,248.072 59.292,247.526 L58.018,247.064 C57.052,246.714 56.59,246.294 56.59,245.454 C56.59,244.628 57.332,244.11 58.284,244.11 C59.096,244.11 59.908,244.544 60.16,245.58 L61.448,245.58 C61.322,244.278 60.328,242.892 58.312,242.892 C56.576,242.892 55.288,243.872 55.288,245.496 C55.302,246.896 56.044,247.75 57.584,248.296 L58.956,248.8 C59.88,249.136 60.37,249.682 60.37,250.466 C60.37,251.39 59.53,251.95 58.494,251.95 C57.556,251.95 56.464,251.446 56.352,250.34 L55.05,250.34 C55.106,251.852 56.422,253.168 58.508,253.168 Z M66.152,253.07 C66.586,253.07 66.936,253 67.23,252.902 L67.23,251.824 C67.006,251.908 66.67,251.964 66.376,251.964 C65.62,251.964 65.214,251.67 65.214,250.774 L65.214,247.106 L67.23,247.106 L67.23,246 L65.214,246 L65.214,244.054 L64.01,244.054 L64.01,246 L62.526,246 L62.526,247.106 L64.01,247.106 L64.01,250.928 C64.01,252.384 64.934,253.07 66.152,253.07 Z M71.78,253.14 C73.88,253.14 75.434,251.516 75.434,249.5 C75.434,247.484 73.88,245.86 71.78,245.86 C69.666,245.86 68.112,247.484 68.112,249.5 C68.112,251.516 69.666,253.14 71.78,253.14 Z M71.78,252.02 C70.324,252.02 69.344,250.9 69.344,249.5 C69.344,248.1 70.324,246.98 71.78,246.98 C73.236,246.98 74.202,248.1 74.202,249.5 C74.202,250.9 73.236,252.02 71.78,252.02 Z M78.36,253 L78.36,249.528 C78.36,247.89 79.326,247.12 80.208,247.12 C80.446,247.12 80.642,247.148 80.866,247.232 L80.866,245.986 C80.67,245.944 80.502,245.93 80.32,245.93 C79.508,245.93 78.64,246.462 78.36,247.358 L78.36,246 L77.156,246 L77.156,253 L78.36,253 Z M84.926,253.14 C85.976,253.14 86.928,252.594 87.39,251.922 L87.39,253 L88.594,253 L88.594,246 L87.39,246 L87.39,247.078 C86.928,246.406 85.976,245.86 84.926,245.86 C82.966,245.86 81.496,247.498 81.496,249.5 C81.496,251.502 82.966,253.14 84.926,253.14 Z M85.108,252.034 C83.694,252.034 82.714,250.914 82.714,249.5 C82.714,248.086 83.694,246.966 85.108,246.966 C86.522,246.966 87.488,248.086 87.488,249.5 C87.488,250.914 86.522,252.034 85.108,252.034 Z M93.942,256.066 C95.846,256.066 97.386,254.904 97.386,252.566 L97.386,246 L96.182,246 L96.182,247.078 C95.706,246.378 94.782,245.86 93.746,245.86 C91.8,245.86 90.316,247.428 90.316,249.416 C90.316,251.418 91.8,252.986 93.746,252.986 C94.782,252.986 95.706,252.454 96.182,251.754 L96.182,252.58 C96.182,254.162 95.23,255.002 93.97,255.002 C92.836,255.002 92.052,254.568 91.73,253.644 L90.554,253.644 C90.764,255.058 92.066,256.066 93.942,256.066 Z M93.914,251.866 C92.514,251.866 91.548,250.83 91.548,249.416 C91.548,248.016 92.514,246.966 93.914,246.966 C95.314,246.966 96.28,248.016 96.28,249.416 C96.28,250.83 95.314,251.866 93.914,251.866 Z M102.636,253.14 C104.414,253.14 105.562,252.104 105.912,250.872 L104.68,250.872 C104.26,251.712 103.518,252.048 102.65,252.048 C101.39,252.048 100.368,251.096 100.326,249.822 L106.024,249.822 C106.192,247.652 104.862,245.86 102.664,245.86 C100.48,245.86 99.108,247.456 99.108,249.5 C99.108,251.586 100.592,253.14 102.636,253.14 Z M104.75,248.87 L100.382,248.87 C100.62,247.484 101.614,246.924 102.622,246.924 C103.658,246.924 104.526,247.568 104.75,248.87 Z M112.618,253 L112.618,245.258 L118.666,253 L119.786,253 L119.786,243.06 L118.498,243.06 L118.498,250.802 L112.45,243.06 L111.316,243.06 L111.316,253 L112.618,253 Z M125.106,253.14 C126.884,253.14 128.032,252.104 128.382,250.872 L127.15,250.872 C126.73,251.712 125.988,252.048 125.12,252.048 C123.86,252.048 122.838,251.096 122.796,249.822 L128.494,249.822 C128.662,247.652 127.332,245.86 125.134,245.86 C122.95,245.86 121.578,247.456 121.578,249.5 C121.578,251.586 123.062,253.14 125.106,253.14 Z M127.22,248.87 L122.852,248.87 C123.09,247.484 124.084,246.924 125.092,246.924 C126.128,246.924 126.996,247.568 127.22,248.87 Z M132.848,253.07 C133.282,253.07 133.632,253 133.926,252.902 L133.926,251.824 C133.702,251.908 133.366,251.964 133.072,251.964 C132.316,251.964 131.91,251.67 131.91,250.774 L131.91,247.106 L133.926,247.106 L133.926,246 L131.91,246 L131.91,244.054 L130.706,244.054 L130.706,246 L129.222,246 L129.222,247.106 L130.706,247.106 L130.706,250.928 C130.706,252.384 131.63,253.07 132.848,253.07 Z M137.944,253 L139.68,247.96 L141.402,253 L142.466,253 L144.846,246 L143.572,246 L141.878,251.11 L140.128,246 L139.204,246 L137.454,251.11 L135.76,246 L134.5,246 L136.88,253 L137.944,253 Z M149.228,253.14 C151.328,253.14 152.882,251.516 152.882,249.5 C152.882,247.484 151.328,245.86 149.228,245.86 C147.114,245.86 145.56,247.484 145.56,249.5 C145.56,251.516 147.114,253.14 149.228,253.14 Z M149.228,252.02 C147.772,252.02 146.792,250.9 146.792,249.5 C146.792,248.1 147.772,246.98 149.228,246.98 C150.684,246.98 151.65,248.1 151.65,249.5 C151.65,250.9 150.684,252.02 149.228,252.02 Z M155.808,253 L155.808,249.528 C155.808,247.89 156.774,247.12 157.656,247.12 C157.894,247.12 158.09,247.148 158.314,247.232 L158.314,245.986 C158.118,245.944 157.95,245.93 157.768,245.93 C156.956,245.93 156.088,246.462 155.808,247.358 L155.808,246 L154.604,246 L154.604,253 L155.808,253 Z M160.932,253 L160.932,249.5 L164.726,253 L166.35,253 L162.136,249.094 L165.58,246 L163.984,246 L160.932,248.73 L160.932,242.5 L159.728,242.5 L159.728,253 L160.932,253 Z M169.402,253.14 C170.858,253.14 171.978,252.496 171.978,251.11 C171.978,250.06 171.348,249.332 170.186,249.038 L169.066,248.744 C168.324,248.548 168.002,248.254 168.002,247.736 C168.002,247.204 168.534,246.868 169.206,246.868 C169.864,246.868 170.368,247.246 170.55,247.862 L171.754,247.862 C171.628,246.742 170.704,245.86 169.206,245.86 C167.792,245.86 166.784,246.588 166.784,247.75 C166.784,248.744 167.386,249.5 168.59,249.808 L169.598,250.074 C170.424,250.298 170.76,250.634 170.76,251.194 C170.76,251.81 170.172,252.118 169.416,252.118 C168.688,252.118 167.96,251.824 167.792,250.97 L166.56,250.97 C166.658,252.384 167.904,253.14 169.402,253.14 Z" id="StorageNetworks" fill-opacity="0.88" fill="#FFFFFF"></path>
                        <path d="M69.769,341 L69.769,337.374 L71.505,337.374 C73.577,337.374 74.921,336.016 74.921,334.224 C74.921,332.432 73.577,331.06 71.505,331.06 L68.467,331.06 L68.467,341 L69.769,341 Z M71.505,336.17 L69.769,336.17 L69.769,332.278 L71.505,332.278 C72.877,332.278 73.633,333.118 73.633,334.224 C73.633,335.33 72.877,336.17 71.505,336.17 Z M82.481,341 L82.481,339.838 L77.525,339.838 C77.763,338.69 78.925,338.116 80.073,337.276 C81.697,336.1 82.369,335.26 82.369,333.804 C82.369,331.872 80.955,330.892 79.303,330.892 C77.469,330.892 76.027,332.124 76.027,334.028 L77.259,334.028 C77.273,332.74 78.225,332.068 79.317,332.068 C80.395,332.068 81.137,332.754 81.137,333.79 C81.137,334.952 80.521,335.47 79.373,336.324 C77.903,337.416 76.041,338.396 76.041,340.524 L76.041,341 L82.481,341 Z M85.785,341 L85.785,337.374 L87.521,337.374 C89.593,337.374 90.937,336.016 90.937,334.224 C90.937,332.432 89.593,331.06 87.521,331.06 L84.483,331.06 L84.483,341 L85.785,341 Z M87.521,336.17 L85.785,336.17 L85.785,332.278 L87.521,332.278 C88.893,332.278 89.649,333.118 89.649,334.224 C89.649,335.33 88.893,336.17 87.521,336.17 Z M96.915,341 L96.915,333.258 L102.963,341 L104.083,341 L104.083,331.06 L102.795,331.06 L102.795,338.802 L96.747,331.06 L95.613,331.06 L95.613,341 L96.915,341 Z M109.403,341.14 C111.181,341.14 112.329,340.104 112.679,338.872 L111.447,338.872 C111.027,339.712 110.285,340.048 109.417,340.048 C108.157,340.048 107.135,339.096 107.093,337.822 L112.791,337.822 C112.959,335.652 111.629,333.86 109.431,333.86 C107.247,333.86 105.875,335.456 105.875,337.5 C105.875,339.586 107.359,341.14 109.403,341.14 Z M111.517,336.87 L107.149,336.87 C107.387,335.484 108.381,334.924 109.389,334.924 C110.425,334.924 111.293,335.568 111.517,336.87 Z M117.145,341.07 C117.579,341.07 117.929,341 118.223,340.902 L118.223,339.824 C117.999,339.908 117.663,339.964 117.369,339.964 C116.613,339.964 116.207,339.67 116.207,338.774 L116.207,335.106 L118.223,335.106 L118.223,334 L116.207,334 L116.207,332.054 L115.003,332.054 L115.003,334 L113.519,334 L113.519,335.106 L115.003,335.106 L115.003,338.928 C115.003,340.384 115.927,341.07 117.145,341.07 Z M122.241,341 L123.977,335.96 L125.699,341 L126.763,341 L129.143,334 L127.869,334 L126.175,339.11 L124.425,334 L123.501,334 L121.751,339.11 L120.057,334 L118.797,334 L121.177,341 L122.241,341 Z M133.525,341.14 C135.625,341.14 137.179,339.516 137.179,337.5 C137.179,335.484 135.625,333.86 133.525,333.86 C131.411,333.86 129.857,335.484 129.857,337.5 C129.857,339.516 131.411,341.14 133.525,341.14 Z M133.525,340.02 C132.069,340.02 131.089,338.9 131.089,337.5 C131.089,336.1 132.069,334.98 133.525,334.98 C134.981,334.98 135.947,336.1 135.947,337.5 C135.947,338.9 134.981,340.02 133.525,340.02 Z M140.105,341 L140.105,337.528 C140.105,335.89 141.071,335.12 141.953,335.12 C142.191,335.12 142.387,335.148 142.611,335.232 L142.611,333.986 C142.415,333.944 142.247,333.93 142.065,333.93 C141.253,333.93 140.385,334.462 140.105,335.358 L140.105,334 L138.901,334 L138.901,341 L140.105,341 Z M145.229,341 L145.229,337.5 L149.023,341 L150.647,341 L146.433,337.094 L149.877,334 L148.281,334 L145.229,336.73 L145.229,330.5 L144.025,330.5 L144.025,341 L145.229,341 Z M153.699,341.14 C155.155,341.14 156.275,340.496 156.275,339.11 C156.275,338.06 155.645,337.332 154.483,337.038 L153.363,336.744 C152.621,336.548 152.299,336.254 152.299,335.736 C152.299,335.204 152.831,334.868 153.503,334.868 C154.161,334.868 154.665,335.246 154.847,335.862 L156.051,335.862 C155.925,334.742 155.001,333.86 153.503,333.86 C152.089,333.86 151.081,334.588 151.081,335.75 C151.081,336.744 151.683,337.5 152.887,337.808 L153.895,338.074 C154.721,338.298 155.057,338.634 155.057,339.194 C155.057,339.81 154.469,340.118 153.713,340.118 C152.985,340.118 152.257,339.824 152.089,338.97 L150.857,338.97 C150.955,340.384 152.201,341.14 153.699,341.14 Z" id="P2PNetworks" fill-opacity="0.88" fill="#FFFFFF"></path>
                        <path d="M209.5,233.5 C209.74546,233.5 209.949608,233.676875 209.991944,233.910124 L210,234 L210,262 C210,262.276142 209.776142,262.5 209.5,262.5 C209.25454,262.5 209.050392,262.323125 209.008056,262.089876 L209,262 L209,234 C209,233.723858 209.223858,233.5 209.5,233.5 Z" id="Line-Copy-18" fill="url(#linearGradient-14)" fill-rule="nonzero" transform="translate(209.500000, 248.000000) rotate(90.000000) translate(-209.500000, -248.000000) "></path>
                        <path d="M209.5,145.5 C209.74546,145.5 209.949608,145.676875 209.991944,145.910124 L210,146 L210,174 C210,174.276142 209.776142,174.5 209.5,174.5 C209.25454,174.5 209.050392,174.323125 209.008056,174.089876 L209,174 L209,146 C209,145.723858 209.223858,145.5 209.5,145.5 Z" id="Line-Copy-19" fill="url(#linearGradient-14)" fill-rule="nonzero" transform="translate(209.500000, 160.000000) rotate(90.000000) translate(-209.500000, -160.000000) "></path>
                        <path d="M209.5,321.5 C209.74546,321.5 209.949608,321.676875 209.991944,321.910124 L210,322 L210,350 C210,350.276142 209.776142,350.5 209.5,350.5 C209.25454,350.5 209.050392,350.323125 209.008056,350.089876 L209,350 L209,322 C209,321.723858 209.223858,321.5 209.5,321.5 Z" id="Line-Copy-20" fill="url(#linearGradient-14)" fill-rule="nonzero" transform="translate(209.500000, 336.000000) rotate(90.000000) translate(-209.500000, -336.000000) "></path>
                        <path d="M250,247.5 C250.276142,247.5 250.5,247.723858 250.5,248 C250.5,248.24546 250.323125,248.449608 250.089876,248.491944 L250,248.5 L224.5,248.5 C224.223858,248.5 224,248.276142 224,248 C224,247.75454 224.176875,247.550392 224.410124,247.508056 L224.5,247.5 L250,247.5 Z" id="Path-2" fill="url(#linearGradient-15)" fill-rule="nonzero"></path>
                        <rect id="Path-2-Copy" fill="#F2F2F9" fill-rule="nonzero" x="448" y="192" width="112" height="1"></rect>
                        <rect id="Path-2-Copy-2" fill="#F2F2F9" fill-rule="nonzero" x="448" y="304" width="112" height="1"></rect>
                    </g>
                </g>
            </g>
        </g>
    </g>
</svg>