<svg height="147" viewBox="0 0 120 147" width="120" xmlns="http://www.w3.org/2000/svg" xmlns:xlink="http://www.w3.org/1999/xlink"><radialGradient id="a" cx="50%" cy="50%" r="50%"><stop offset="0" stop-color="#6f4cff"/><stop offset="1" stop-color="#6f4cff" stop-opacity="0"/></radialGradient><radialGradient id="b" cx="50%" cy="50%" r="50%"><stop offset="0" stop-color="#a893ff"/><stop offset="1" stop-color="#6f4cff" stop-opacity="0"/></radialGradient><linearGradient id="c" x1="50%" x2="50%" y1="0%" y2="100%"><stop offset="0" stop-color="#a883ff"/><stop offset="1" stop-color="#6f4cff" stop-opacity="0"/></linearGradient><radialGradient id="d" cx="50%" cy="50%" r="50%"><stop offset="0" stop-color="#ed4a6d"/><stop offset="1" stop-color="#ed4a6d" stop-opacity="0"/></radialGradient><g fill="none" fill-rule="evenodd" transform="translate(-12 -10)"><circle cx="71.666667" cy="96.666667" fill="url(#a)" fill-opacity=".32" r="60"/><circle cx="71.666667" cy="55" fill="url(#b)" fill-opacity=".48" r="38.333333"/><g transform="translate(46.666667 16.666667)"><path d="m19.1164762 62.2116905c4.6050952 18.4434762 6.5776905 19.8698095 6.5776905 19.8698095 2.4952305-6.165479 4.4521908-12.5353404 5.8489762-19.0382857 8.0205-35.9665-20.0530477-31.3753095-12.4266667-.8315238z" fill="#6f4cff" fill-rule="nonzero" opacity=".2"/><path d="m23.5685 47.3673333c0 23.7345238 2.4544048 24.5928572 2.4544048 24.5928572 1.2096752-8.1486554 1.9546415-16.3595488 2.2312857-24.5928572 0-8.8325-4.6856905-8.1295238-4.6856905 0z" fill="#85d3ea" fill-rule="nonzero" opacity=".5"/><path d="m25.388381 37.7504524c0 19.7648809.7348809 20.4796905.7348809 20.4796905s.6680476-12.5595239.6680476-20.4796905c0-7.3552143-1.4029285-6.7698334-1.4029285 0z" fill="#fff" fill-rule="nonzero" opacity=".5"/><path d="m22.9185714 23.8939762c0-8.4347619 7.3916667-9.1639762 7.3916667 0-.084132 4.1335884-.4523734 8.2565012-1.1021191 12.3395714h-5.8663571c-.2580952-3.2511428-.4231905-7.2893333-.4231905-12.3395714z" fill="#fff" fill-rule="nonzero"/><path d="m29.208119 36.2335476c-1.0323809 4.2264762-1.4655952 7.9303334-2.9331904 7.9303334-1.4675953 0-1.9287143-.3470239-2.9331667-7.9303334z" fill="#252538" fill-rule="nonzero"/><path d="m.95459524 79.3560476c4.39669047 24.5811424 6.85523809 26.6257854 6.85523809 26.6257854 3.81801777-7.8587678 6.94874597-16.0332188 9.35714287-24.4318568 13.7074762-46.425-23.49361906-42.9021905-16.21238096-2.1939286z" fill="url(#c)" fill-rule="nonzero" opacity=".4"/><path d="m8.10835714 60.296619c-2.10885714 31.1064524 1.03161905 32.4495 1.03161905 32.4495 2.30945131-10.5721514 4.01538391-21.2671641 5.10952381-32.0331666.7847143-11.5758334-5.41880952-11.0708572-6.14114286-.4163334z" fill="#6f4cff" fill-rule="nonzero" opacity=".5"/><path d="m11.348 47.8544524c-1.75616667 25.9038571-.8565714 26.9059524-.8565714 26.9059524s1.9915-16.4010477 2.6952381-26.7812858c.6535238-9.6397619-1.2371429-8.9971904-1.8386667-.1246666z" fill="#6f4cff" fill-rule="nonzero"/><path d="m9.3422619 29.4747619c.7494524-11.0545952 10.5017143-11.3535476 9.6874762.6567619-.4775438 5.4099951-1.3264901 10.7807552-2.5408333 16.0742857l-7.68842861-.5212381c-.04938095-4.2838809.09304762-9.591.54178571-16.2098095z" fill="#333" fill-rule="nonzero"/><path d="m16.4889048 46.2058095c-1.7285715 5.4474762-2.6254524 10.2632619-4.5488572 10.1328572-1.9234047-.1304048-2.49692855-.6261905-3.13957141-10.6540953z" fill="#121212" fill-rule="nonzero"/><path d="m29.6466429 90.8031667c1.3606097-1.2376222 2.2710136-2.8925769 2.5879047-4.7043572l-3.4295952-12.3997143c.0482667-.5118785-.0358022-1.0275728-.2441429-1.497619-.1451051-.2113635-.4153989-.2969106-.6556905-.2075238l-2.7833333-14.4147619c3.0017619-.1746667 6.1174762-.3278334 8.5193572-.3731905 2.5204523-.0441667 4.255.0255952 4.2480476.3104048l.2162381 7.6788095c1.8783376 6.845231 2.696983 13.9378083 2.4274524 21.0309524.2584253 2.5337438-.6433426 5.0483799-2.4530477 6.8404762-4.3944047 5.7476428-12.4393571 13.2694051-12.9253809 18.1357381-.1627619 1.644452-6.9242857 1.5625-6.377881.223214 1.4276429-3.4915 2.8018096-7.904333 4.8107381-12.0669283.8559625-1.3301717 1.6293725-2.7116882 2.3158572-4.1367381 1.0523046-1.6280019 2.310546-3.1132175 3.7434762-4.4187619z" fill="#e5e5e5" fill-rule="nonzero"/><path d="m32.234381 86.0987381-5.2246429-13.698881c.5740476-.2985714.2785714-7.0085 3.9086905-8.1895952l2.5095238 24.3880952-8.7731905 8.6918334 6.3476191-8.4065238z" fill="#000" fill-rule="nonzero" opacity=".2"/><path d="m28.5608095 72.2014048c.2083407.4700461.2924096.9857405.2441429 1.497619l3.4295952 12.3997143c-.3168911 1.8117803-1.227295 3.4667349-2.5879047 4.7043571-1.4329239 1.305515-2.691165 2.7906983-3.7434762 4.4186667 1.2206166-2.3979993 1.9793974-5.0041522 2.2367857-7.6825952.6487143-9.2226905-2.2646905-13.4445715-2.2646905-13.4445715.0708397-.7192568.4966946-1.3554298 1.1346667-1.6950476l.4255-.2261905c.1477235-.080831.3057268-.1412546.4696904-.179619l.348762 1.8066429-.348762-1.8066429c.2403241-.089358.510626-.0037495.6556905.2076667z"/><g fill-rule="nonzero"><path d="m16.1956667 89.2666667c.2611002-6.8694693-.3064826-13.7453753-1.6904762-20.4790477-.6467403-3.4925611-.5085462-7.0852489.4045714-10.5178095 0 0 3.5644524-.2787143 7.8892143-.5507619.7533571-.0473809 1.5369286-.0938809 2.3228333-.1398095l2.7833334 14.4147619c-.1639637.0383644-.321967.098788-.4696905.179619l-.4255.2261905c-.6379721.3396178-1.063827.9757908-1.1346667 1.6950476 0 0 2.9134048 4.221881 2.2646905 13.4445715-.2573883 2.678443-1.0161691 5.2845959-2.2367857 7.6825952-.8633084 1.3257441-1.6369871 2.7077405-2.3158572 4.1367381-5.031619 7.8711901-12.5185952 14.6530711-13.4184285 18.0434281-.48130956 1.819048-5.6826667 1.3-5.79659528-.267666-.77895238-10.630786 11.59083338-16.880786 11.82335718-27.8678573z" fill="#f2f2f2"/><path d="m23.5873095 99.3585714c.6788701-1.4289976 1.4525488-2.810994 2.3158572-4.1367381-.6864847 1.42505-1.4598947 2.8065664-2.3158572 4.1367381z" fill="#fff"/><path d="m4.27938095 116.073167c-.35819927.947935-.47168708 1.970864-.32997619 2.974262.24577192 1.126077.250997 2.291359.01533334 3.419595-.33478449 1.910738.4308209 3.847736 1.9815 5.013238 1.02605768.792867 2.36093567 1.067065 3.61645238.742857 1.06514032-.8836 1.57266122-2.271833 1.32857142-3.634071-.0922698-.961517-.2895977-1.910032-.5884524-2.828572l-.2051905-4.759833z" fill="#e6e6e6"/><path d="m9.68069048 127.170143c-1.2554795.324301-2.59036519.050189-3.61645238-.742619-1.53393519-1.147685-2.30041264-3.054563-1.9875-4.944595-.0304762.292285-.07104762.625595-.11640477 1.034428-.33474331 1.910746.43086358 3.847734 1.98152381 5.013262 1.02610961.792757 2.36095595 1.066896 3.61645238.742714.94554828-.751047 1.45358768-1.924669 1.35409528-3.128095-.1021942.820022-.5505294 1.557073-1.23171432 2.024905z" fill="#252538"/><path d="m6.06952381 119.069357s.75371429 2.590476.89888095 2.870953c.47257752.400758 1.08631881.59491 1.70340476.538857.56740477-.081238.86826191-.144596.8952381-.387119.02697619-.242524.03485714-2.386167.08538095-3.325167.04395238-.817952-.85104762-.997119-1.7265-.959405-1.112.047929-1.92166667.261072-1.85640476 1.261881z" fill="#fff"/><path d="m28.6082143 118.830571c-.4140953-.901-1.7092381-2.967357-1.7092381-2.967357l-1.7770238-4.625881-5.8940476-2.029952c-.4480208.453971-.8270598.971178-1.1250238 1.535119l-.7326905 1.759214s-.0775238.332096.9702857 1.314857c1.0478095.982762 3.6049524 3.44431 3.6049524 3.44431.9544749.937025 2.0236433 1.749554 3.1820476 2.418238 1.9101667 1.099167 2.7535476.745548 2.7535476.745548s1.1412857-.693072.7271905-1.594096z" fill="#ccc"/><path d="m27.4624762 119.68231c-1.8367433-.189479-3.5067858-1.14954-4.5948095-2.641429-1.1072658-1.353172-2.3330365-2.604871-3.6627381-3.740214-.5670043-.542728-1.0344055-1.180714-1.3809524-1.884953l-.4525476 1.086667s-.0775238.332095.9702619 1.314857 3.6050476 3.444191 3.6050476 3.444191c.776203 1.045967 1.7617799 1.918776 2.8939286 2.562809.8707438.650202 1.9890753.871155 3.0416666.600952.3856513-.236468.670853-.606525.8012857-1.03969-.3716128.210351-.7944375.313122-1.2211428.29681z" fill="#252538"/><path d="m22.9341667 112.45381s1.2091904 1.827952 1.5844523 2.522047c.4721566.570216 1.2587057.769916 1.9456905.494-.1339675-1.169405-.386937-2.322084-.7549762-3.440119 0 0-.0228809-1.019405-.3184047-1.300667-.1846667-.175785-.9661667-.070333-1.451381.01581-1.4798333.262762-1.2221666 1.231857-1.0053809 1.708929z" fill="#f2f2f2"/><path d="m31.7386429 28.0409048c-.085373-.2414046-.0696112-.5070593.0437083-.7366751.1133195-.2296157.3145867-.4037202.558125-.4828011l3.831619-1.2405953c.2419529-.0788097.5054567-.0567873.7309713.0610913s.3940085.3216653.4674097.5653135c.6255952 2.0783095 4.231619 15.3026667 4.9010714 17.7109286.1560238.5589762.7306191 1.2902381 1.2231191.9853333 3.5633292-2.2265755 7.2431874-4.2609887 11.0238095-6.0945238l1.5252857 2.8664286c-2.3592381 2.3592381-10.0907857 9.9562619-15.1619048 11.1661428-1.7531666.4181667-9.1432142-24.8006428-9.1432142-24.8006428z" fill="#ccc"/><path d="m31.05 29.5750952c-.0494094-.5807607.1413504-1.156396.5278095-1.5927142 0 0 6.7522381-3.4851191 7.1730715-2.5256905.8334411 3.5605677 1.4291997 7.172615 1.7833333 10.8122381-2.5607206 1.2467394-5.4887173 1.5149585-8.2333333.7542143-.4952381-2.1289762-.9254048-4.1469048-1.2579048-5.8178096-.3883572-.3141904.0510952-1.0483571.0070238-1.6302381z" fill="#ccc"/><path d="m53.1530238 38.8087619c.9453726.6666546 1.7055047 1.5629664 2.2088095 2.6045238.5480041.9544972.8541281 2.0285877.8916667 3.1285714l-2.22-.0052381-1.8845238-4.4609523z" fill="#a3aac6"/><path d="m53.1530238 38.8087619s-.8757143.48-2.1402381 1.1647619c.3436167 2.3332935 1.461979 4.4832225 3.1752381 6.1040476 1.26-.9195238 2.0654762-1.5357143 2.0654762-1.5357143-1.3733333-.4069047-3.9201667-4.3021428-3.1004762-5.7330952z" fill="#a3aac6"/><path d="m49.2393095 37.225619c.1207296-.7364692.5059058-1.4036283 1.0833334-1.8764285l11.4704761-6.622381c.4428836-.2567703 1.0021522-.1900035 1.3721429.1638095.3450014.0700215.6447022.2817906.8259228.5835986.1812207.3018079.227281.6658754.1269343 1.0033062-1.0861904 4.1042857-3.0616666 11.5621429-4.145 15.5704762-.1972451.8435429-.7032442 1.5826351-1.4183095 2.0716667l-11.1319285 6.4803333c-.4442171.237962-.9871538.1904901-1.3833334-.1209524-.6171428-.0509524-1.187619-.5278571-1.0452381-1.1409524 0 0 3.1578572-12.0912857 4.245-16.1124762z" fill="#592c89"/><path d="m15.9809524 41.5147143-.3614286 12.5352381.1757143 4.6859524.0685714 1.9135714c2.255 2.0307143 6.8826191 3.3388095 13.4626191 2.5480952 3.5969505-.3111666 7.085838-1.3875954 10.2328333-3.1571428l-.9973571-8.0504762c-.0683334-.8688095-.1952381-1.7278572-.312381-2.5871429-.2848678-2.15535-.3405756-4.3348161-.1661905-6.5019047l1.2692857-15.4542858c.0324693-2.1270555-.7948308-4.1772022-2.2944828-5.6859976-1.4996519-1.5087954-3.5447321-2.3485419-5.6719457-2.3290024-.7999893.0804925-1.583252.2812447-2.3233334.5954762-.2830952.107381-2.4797619-1.0835714-2.772619-.9469047l-2.675 1.5521428-3.1630952 1.8354762c-.0780953.0488095-.1757143.0976191-.2538096.1464286-.3123809.1757143-.615.3611905-.9080952.5369048-3.8269048 2.3235714-7.5269048 5.0473809-7.5269048 9.5771428z" fill="#f2f2f2"/><path d="m15.6036667 51.4866429-1.1021429 9.0343571c2.5998572 3.0759762 12.5697857 7.8190476 16.9595238 9.5136905l-.5797619-6.2219286z" fill="#ccc"/><path d="m22.0423571 56.9890238c-1.1317857-.2338095-3.0264523.9958095-3.9983333.5326905l-1.0288095-7.1976191 2.2922857-15.7460238 1.2850952 13.0179048z" fill="#ccc"/><path d="m27.7474524 67.2550714-7.3324048-4.7558809 2.6917143-3.216 6.5372619 5.0512857 3.2222619-.3140714 3.1277143 1.8752381-.547381.734-1.8523809-.5279762.1562857.7660476 1.6470952.9477381 1.7259762-.3073334.6002619.3560239c.1488334.4333333-2.0692381 2.1562142-2.0692381 2.1562142l-3.898.3476191z" fill="#0c0a1d"/><path d="m30.351 23.7897381 2.6790714.6647619-1.0545238-2.1138333s-2.1066666-2.6490238-2.083119-2.4896429c.0235476.159381.1572857 1.1410238.1572857 1.1410238l.5042381.7692857z" fill="#fff"/><path d="m29.8738095 19.2029048c.1287398.5941961.2257029 1.1948346.2904762 1.7993571l3.2806429 4.9720714-9.4785715-1.6552857-3.4323571-1.8238095 1.3520714-2.641381s-.0508809-4.4522381-.0858809-4.6202381c.5190446.4187767.998179.8847358 1.4312619 1.3919048 2.1683308.9727642 4.3853954 1.8330341 6.6423571 2.577381z" fill="#dba2a7"/><path d="m33.7852381 8.73847619c-.7030714.62676191-2.7549286-.73978571-3.7268333-.51966667-1.7193408.71397108-3.3502127 1.62465659-4.8600238 2.71385718-.1247692.7265985-.3123782 1.4409945-.5607143 2.1351428-.2569286.9397143-3.2511905-2.2362619-2.7939524 1.4768095.2190476.8565715.561619 2.5717381 1.379619 2.805881.215853.0339512.4367589-.0095064.6236667-.1226905.1231667.5629762.3175476 1.6902619.3175476 1.6902619l5.0615 3.1816905 2.5156667-.6773571 1.9246667-8.0162858s.1620238-4.33449995.1188571-4.66764281z" fill="#fcbac0"/><path d="m26.9901905 10.3672857c.0701905.0927381.9365476 3.2614762.9365476 3.2614762s.0526905 3.3944762.0971429 3.4099286c.0444523.0154524 1.5408333.8182857 1.4226666.9460238l-1.2831666 1.3875714-1.9318572-1.4862857-.2619048-1.8378095.009881-4.0005715.2428571-.6432142z" fill="#dba2a7"/><path d="m20.6383095 5.64371429-1.633.51971428c.0549997.50216293.071389 1.00780564.0490238 1.51247619.2337619 2.35980954 4.5819048 5.46016664 6.7743572 6.01504764l.1508095-1.6433334s1.306881-2.0117619 1.3126429-2.05369043c-.1280239-4.09330952-6.6538334-4.35021428-6.6538334-4.35021428z" fill="#17142b"/><path d="m22.0556429 15.2130476c.1015952.3970238.197119.8214286.1293333.8781667-.2758095.2307857-.9601191-.5591667-1.089-.7212857-.7728151-1.4376992-1.4257655-2.9366747-1.9522143-4.4816905l-.2574048-2.83109524.1866191-.85404762.7671667 1.67966666.4719761.54216667 2.5188334 1.27002383s3.1342381 1.3421905 3.1485476 1.3526666c-.0095238.1027381-.009881 4.0005715-.009881 4.0005715l-1.1664047-.224881s-.1990476-.7159762-.340881-1.0610476c-.162-.490443-.3873069-.9576494-.6702143-1.3897857-.2090156-.2950989-.5541042-.4632154-.9153126-.4459119s-.6886467.217637-.8684969.5313643c-.1133992.2667786-.1639863.5560455-.1478571.8454762.0114286.0741666.1177143.6068571.1951905.9096428z" fill="#17142b"/><path d="m31.4802381.59147619.0105714.51002381-4.8830238-.62769048.4633333.68216667-6.4545952-.0155c.0961194.22922159.1655134.46875286.2068095.71385714l-.8414523.05238096-.4709048 2.18571428-.6998572.29214286-.5566666.84085714 2.8488333 2.62433333 2.152381.81740477 2.0120476 1.80311903 2.0421428-.1190476 2.2897143-.8294762 1.9.23795239 1.9761905-.54835715c.2411893-.33824414.458197-.69309458.6494048-1.06190476.0883095-.69830952.3252857-2.07547619.3252857-2.07547619l-.5205-3.54211905-1.7470714-1.65973809z" fill="#17142b"/><path d="m32.7238095 17.5452381-.1738095-.8261905-2.3190476.3666667-2.1452381 2.3166667-1.8571429-1.6571429-.3571428-2.1904762-1.6166667-1.0833333-.5428571 3.2738095.3952381.5404762.1452381.6880952 4.8714285 3.1261905 2.6190476-.6785714z" fill="#17142b" opacity=".2"/><path d="m30.0666667 19.7452381 1.2642857-.202381-.0619048-.4404761.6285714-.1071429.2190477.3357143.4214285-.1595238-.0547619-.3880953-.3666666-.5833333-1.3904762.2404762-.8333334.9571428z" fill="#fcbac0"/><path d="m32.9357143 17.2357143-.5285714-.6904762-1.9357143.2190476-2.2904762 1.1166667.1.8833333 2.2785714-1.0023809 1.6738095-.1690477.3666667.1333334z" fill="#17142b"/><path d="m12.2807619 32.5561429c.0358958-.2657009.1776106-.5056312.392976-.6653283.2153655-.1596972.4861134-.2256151.7507859-.1827908l4.1619048.6764524c.2630305.0422885.4979217.1887894.6516028.4064026.153681.2176133.2131836.4879757.1650638.7500022-.411 2.2348809.5656905 16.5.0378096 19.063238-.1233518.5923937.1456407 1.1973465.668119 1.5025715 2.3967381 1.4023809 6.8403333 7.1142857 10.7976191 9.5608095l-1.9638096 4.0105714c-3.6360238-2.4840714-13.1706904-8.4741428-15.5592381-11.6514047-1.1341904-1.5080477-.1028333-23.4705238-.1028333-23.4705238z" fill="#f2f2f2"/><path d="m11.7627857 32.7282857c-.0136235-1.0048666.391701-1.9700457 1.1186947-2.6638919.7269937-.6938463 1.7100244-1.0537201 2.7131625-.9932509 1.897729.0780933 3.4240409 1.5880329 3.5225952 3.4848095.1232381 2.3576905-.7404762 8.9547619-.6126905 12.8295952-.8184524.3202857-1.1404762-1.6333333-3.3493571-2.0060238-1.1197114-.1803076-2.2259194-.4362747-3.3110238-.7661428-.0860238-3.5409048-.081381-7.160881-.081381-9.8850953z" fill="#f2f2f2"/><path d="m35.6027143 34.5217143c.0015532.3530331-.160094.6869787-.4379524.9047619-.2418571.1447381-.4379286-.0257143-.4379286-.3806905-.0015481-.3530266.1600878-.6869669.4379286-.9047619.241881-.1447619.4379524.0256429.4379524.3806905zm-.8759048 3.7379762c.0094442 2.1183443-.9604188 4.1222057-2.6276428 5.4290476-1.4511667.8684048-2.6276667-.1542143-2.6276667-2.2841905-.0094419-2.1183425.9604316-4.1221988 2.6276667-5.4290238 1.4511428-.8683809 2.6276428.1541905 2.6276428 2.2841667zm-.8759047.5241428c0-1.4199285-.7842858-2.1017143-1.7517381-1.5227619-1.111495.8712041-1.7580746 2.2071089-1.7517619 3.6193334 0 1.4199285.7842857 2.1017142 1.7517619 1.5227619 1.1114803-.8712136 1.7580493-2.2071147 1.7517381-3.6193334zm.747619 3.5976191c-.1710238-.1486905-.4483095.0172619-.6193333.370619l-1.7517857 3.6193572c-.1710238.3533571-.1710238.7603571 0 .9090238.1710238.1486666.4483095-.0172619.6193333-.3706191l1.7518095-3.6194762c.1710238-.3533809.1710238-.7603571 0-.9090238z" fill="#000" opacity=".2"/><path d="m64.1666667 30.6404762-12.2595238 6.5119048-4.8119048 17.3666666 12.6142857-7.097619z" fill="#0c0a1d" opacity=".5"/><path d="m62.2914048 35.5397143-2.1036667 1.2701667c-.407457.2608906-.744628.6178307-.9819048 1.0394761l-.3539523.6293096c-.4723782.8399265-.1830913 1.9035075.6496428 2.3884523l1.1734286.6833334.9042143-.5940476c.8182109-.5376986 1.3813375-1.3862273 1.5589532-2.3490573.1776158-.96283-.0456879-1.9564336-.6181913-2.7506808z" fill="#0c0a1d"/></g></g><circle cx="90" cy="46.666667" fill="url(#d)" fill-opacity=".24" r="36.666667"/></g></svg>