<svg height="120" viewBox="0 0 106 120" width="106" xmlns="http://www.w3.org/2000/svg" xmlns:xlink="http://www.w3.org/1999/xlink"><radialGradient id="a" cx="50%" cy="50%" r="50%"><stop offset="0" stop-color="#6f4cff"/><stop offset="1" stop-color="#6f4cff" stop-opacity="0"/></radialGradient><radialGradient id="b" cx="50%" cy="50%" r="50%"><stop offset="0" stop-color="#ed4a6d"/><stop offset="1" stop-color="#ed4a6d" stop-opacity="0"/></radialGradient><linearGradient id="c"><stop offset="0" stop-color="#8b6fe6" stop-opacity="0"/><stop offset="1" stop-color="#8260a6"/></linearGradient><linearGradient id="d" x1="50.000031%" x2="50.000031%" xlink:href="#c" y1="100.000082%" y2=".000012%"/><linearGradient id="e"><stop offset="0" stop-color="#fff" stop-opacity="0"/><stop offset=".06448" stop-color="#fff" stop-opacity=".09343"/><stop offset=".26538" stop-color="#fff" stop-opacity=".36482"/><stop offset=".45555" stop-color="#fff" stop-opacity=".59127"/><stop offset=".62929" stop-color="#fff" stop-opacity=".76784"/><stop offset=".78345" stop-color="#fff" stop-opacity=".89475"/><stop offset=".91227" stop-color="#fff" stop-opacity=".97216"/><stop offset="1" stop-color="#fff"/></linearGradient><linearGradient id="f" x1="50.000423%" x2="50.000423%" xlink:href="#e" y1="100%" y2="-.000034%"/><linearGradient id="g" x1="50.000051%" x2="50.000051%" xlink:href="#c" y1="100.000122%" y2=".000018%"/><linearGradient id="h" x1="50.000423%" x2="50.000423%" xlink:href="#e" y1="100%" y2=".000036%"/><linearGradient id="i" x1="50.000099%" x2="50.000099%" xlink:href="#c" y1="100%" y2=".000006%"/><linearGradient id="j" x1="49.999517%" x2="49.999517%" xlink:href="#e" y1="100%" y2="-.000017%"/><linearGradient id="k" x1="49.999973%" x2="49.999973%" xlink:href="#c" y1="100.000122%" y2=".000018%"/><linearGradient id="l" x1="49.999517%" x2="49.999517%" xlink:href="#e" y1="100%" y2="-.000034%"/><radialGradient id="m" cx="49.857244%" cy="49.823669%" gradientTransform="matrix(.90570895 .03254569 -.02949255 .99947025 .061705 -.015962)" r="52.627847%"><stop offset="0" stop-color="#40434f"/><stop offset=".34975" stop-color="#3e414c"/><stop offset=".58759" stop-color="#363943"/><stop offset=".79154" stop-color="#292b34"/><stop offset=".9205" stop-color="#1d1f26"/><stop offset="1" stop-color="#383842"/></radialGradient><radialGradient id="n" cx="49.998338%" cy="49.996523%" gradientTransform="matrix(.78063724 .03254569 -.02541984 .99947025 .122387 -.016007)" r="57.437688%"><stop offset="0" stop-color="#bdbdbd"/><stop offset=".10076" stop-color="#adaeaf"/><stop offset=".52582" stop-color="#6f7178"/><stop offset=".83736" stop-color="#494b55"/><stop offset="1" stop-color="#3a3d48"/></radialGradient><radialGradient id="o" cx="53.250425%" cy="49.512153%" gradientTransform="matrix(.49528432 -.75405044 .5686053 .65681652 -.012766 .571453)" r="61.775914%"><stop offset="0" stop-color="#bdbdbd"/><stop offset=".2818" stop-color="#88898d"/><stop offset=".5621" stop-color="#595b64"/><stop offset=".77674" stop-color="#3d3f4b"/><stop offset=".90009" stop-color="#323541"/></radialGradient><linearGradient id="p"><stop offset="0" stop-color="#bdbdbd"/><stop offset=".1383" stop-color="#6e6f75"/><stop offset=".15285" stop-color="#7e7e83"/><stop offset=".19943" stop-color="#abacad"/><stop offset=".22285" stop-color="#bdbdbd"/><stop offset=".26889" stop-color="#b9b9b9"/><stop offset=".46651" stop-color="#8a8b8f"/><stop offset=".66419" stop-color="#5f6169"/><stop offset=".70529" stop-color="#7e7f84"/><stop offset=".77331" stop-color="#abacad"/><stop offset=".80753" stop-color="#bdbdbd"/><stop offset=".83651" stop-color="#88898d"/><stop offset=".86533" stop-color="#595b64"/><stop offset=".88741" stop-color="#3d3f4b"/><stop offset=".90009" stop-color="#323541"/><stop offset="1" stop-color="#b9b9b9"/></linearGradient><linearGradient id="q" x1="-.143948%" x2="100.063038%" xlink:href="#p" y1="49.053722%" y2="50.955669%"/><linearGradient id="r"><stop offset="0" stop-color="#b9b9b9"/><stop offset=".09991" stop-color="#323541"/><stop offset=".11259" stop-color="#3d3f4b"/><stop offset=".13467" stop-color="#595b64"/><stop offset=".16349" stop-color="#88898d"/><stop offset=".19247" stop-color="#bdbdbd"/><stop offset=".22669" stop-color="#abacad"/><stop offset=".29471" stop-color="#7e7f84"/><stop offset=".33581" stop-color="#5f6169"/><stop offset=".53349" stop-color="#8a8b8f"/><stop offset=".73111" stop-color="#b9b9b9"/><stop offset=".77715" stop-color="#bdbdbd"/><stop offset=".80057" stop-color="#abacad"/><stop offset=".84715" stop-color="#7e7e83"/><stop offset=".8617" stop-color="#6e6f75"/><stop offset="1" stop-color="#bdbdbd"/></linearGradient><linearGradient id="s" x1="-.102787%" x2="100.105202%" xlink:href="#r" y1="49.055024%" y2="50.955094%"/><linearGradient id="t" x1="-58.094102%" x2="45.576873%" xlink:href="#p" y1="10.528683%" y2="10.528683%"/><linearGradient id="u" x1="4.927396%" x2="18.312886%" xlink:href="#r" y1="-56.364462%" y2="126.317578%"/><radialGradient id="v" cx="50%" cy="50%" r="50%"><stop offset="0" stop-color="#6f4cff"/><stop offset="1" stop-color="#ed4a6d" stop-opacity="0"/></radialGradient><g fill="none" fill-rule="evenodd" transform="translate(-11 -8)"><circle cx="66.666667" cy="93.333333" fill="url(#a)" fill-opacity=".32" r="34.666667"/><circle cx="64" cy="74.666667" fill="url(#a)" fill-opacity=".32" r="53.333333"/><circle cx="53.333333" cy="50.666667" fill="url(#b)" fill-opacity=".24" r="29.333333"/><g transform="translate(34.666667 8)"><g fill-rule="nonzero"><path d="m22.8266437 77.587264c5.1613227 19.1078055 7.2432025 20.5532718 7.2432025 20.5532718 2.4746826-6.4679362 4.3849612-13.1379079 5.7094539-19.9352583 7.6327729-37.6006736-21.5001641-32.2619749-12.9526564-.6180135z" fill="url(#d)"/><path d="m27.1654392 62.0456804c.4728517 24.70752 3.0449641 25.5521649 3.0449641 25.5521649 1.0969344-8.5068184 1.7088666-17.069169 1.8328287-25.6455237-.1759606-9.1945649-5.0397506-8.3694145-4.8777928.0933588z" fill="#663fd1" opacity=".30392"/><path d="m28.8683545 51.9983179c.39376 20.5751254 1.1729952 21.3045957 1.1729952 21.3045957s.4452234-13.0875897.2874364-21.3325448c-.1465207-7.656759-1.5952895-7.0194207-1.4604316.0279491z" fill="url(#f)"/><path d="m11.0283561 86.5764094c5.1613227 19.1078056 7.2432025 20.5532716 7.2432025 20.5532716 2.4746809-6.467943 4.3849594-13.1379208 5.7094539-19.9352769 7.6327729-37.6006548-21.50018296-32.2619561-12.9526564-.6179947z" fill="url(#g)"/><path d="m15.3671516 71.0348258c.4728328 24.70752 3.0449641 25.5521838 3.0449641 25.5521838 1.0969335-8.5068185 1.7088657-17.0691691 1.8328287-25.6455237-.1759606-9.1945649-5.0397506-8.3694334-4.8777928.0933399z" fill="#663fd1" opacity=".30392"/><path d="m17.0700669 60.9874634c.39376 20.5751442 1.1729953 21.3045957 1.1729953 21.3045957s.4452233-13.0875898.2874363-21.3325448c-.1465207-7.656759-1.5952895-7.0194208-1.4604316.0279491z" fill="url(#h)"/><path d="m26.4692398 46.9573785c1.0177936 4.4141128 1.4188759 8.276018 2.9467553 8.295859 1.5278794.0197143 2.6878342-4.591571 3.398546-13.8135378z" fill="#121212"/><path d="m14.4792148 54.0676103c1.0177936 4.4141128 1.4188759 8.2759991 2.9467553 8.2958591 1.5278793.0197331 2.6878342-4.5915711 3.398546-13.8135379z" fill="#121212"/><path d="m39.8401329 89.2238769c5.1613038 19.1076921 7.2431081 20.5532721 7.2431081 20.5532721 2.4746827-6.467936 4.3849612-13.1379082 5.709454-19.9352585 7.632905-37.6007114-21.5000886-32.2620316-12.9525621-.6180136z" fill="url(#i)"/><path d="m44.1788718 73.6822367c.4728328 24.70752 3.0449641 25.5521838 3.0449641 25.5521838 1.0969241-8.5068192 1.70885-17.0691696 1.8328098-25.6455237-.175904-9.1946404-5.039675-8.3694334-4.8777739.0933399z" fill="#663fd1" opacity=".30392"/><path d="m45.8818437 63.6348743c.39376 20.5751442 1.1729764 21.3046145 1.1729764 21.3046145s.4452423-13.0875897.2874552-21.3325637c-.1465395-7.6567401-1.5953083-7.0194018-1.4604316.0279492z" fill="url(#j)"/><path d="m28.0418453 98.2129846c5.1613038 19.1078054 7.2431836 20.5532714 7.2431836 20.5532714 2.474681-6.467943 4.3849594-13.137921 5.709454-19.9352767 7.6327918-37.6006548-21.5001641-32.2619561-12.9526376-.6179947z" fill="url(#k)"/><path d="m32.3806408 82.671401c.4728328 24.70752 3.0449641 25.552165 3.0449641 25.552165 1.0969241-8.5068193 1.70885-17.0691696 1.8328099-25.6455237-.1759606-9.194565-5.0397317-8.3694146-4.877774.0933587z" fill="#663fd1" opacity=".30392"/><path d="m34.0835561 72.6240386c.3937411 20.5751442 1.1729764 21.3045957 1.1729764 21.3045957s.4452423-13.0875898.2874552-21.3325449c-.1465395-7.6567589-1.5953083-7.0194207-1.4604316.0279492z" fill="url(#l)"/><path d="m35.3050708 48.1935188c.2175729-6.6819742-5.6192468-7.4503393-5.8556349-.1906052-.0399664 3.2767757.1454143 6.552422.5548308 9.8037654l4.6472927.1513329c.2882855-2.568942.5232205-5.7637292.6535114-9.7644931z" fill="#fff"/><path d="m30.0042667 57.8066224c.7088057 3.3748242.9564603 6.3201641 2.1190761 6.3580398 1.1626158.0378756 1.5368812-.2251594 2.5282166-6.2067069z" fill="#252538"/><path d="m36.3447179 46.7175746c.3994971-8.7730634-7.2540726-9.8816115-7.688105-.3500907-.1082682 4.3033612.0794708 8.6090747.5618888 12.8866806l6.1016476.2778306c.4224263-3.3692948.7853686-7.5616452 1.0245686-12.8144205z" fill="#333"/><path d="m43.4827102 58.5939536c1.0177936 4.4141129 1.4188759 8.2759992 2.9467741 8.2958592 1.5278983.019733 2.6878154-4.5915712 3.3985461-13.8135379z" fill="#121212"/><path d="m31.4926851 65.7040911c1.0177937 4.4141128 1.4188759 8.276018 2.9467742 8.295878 1.5278982.0197331 2.6878154-4.5915712 3.398546-13.8135379z" fill="#121212"/><path d="m51.7454613 46.7087803c-.2152737 11.0347714-9.3332574 19.8068034-20.3681017 19.5953018-7.8220608-.2953196-14.7257544-5.197394-17.5828513-12.4849756-.3098436-.7544266-.5699256-1.5283431-.7785748-2.3167771-.00702-.0075423-.011621-.0170138-.0132102-.0271942-1.4291422-6.9272509 4.4035635-15.0004726 13.8579553-18.6806614 9.730203-3.7889091 19.7682051-1.5769837 23.1493702 4.8862097.4902277.812174.9174482 1.6607475 1.2779036 2.5382564.4798948 2.1276849.6341536 4.3158719.4575089 6.4898404z" fill="url(#m)"/><path d="m37.4553608 59.0933391c-9.8991056 3.8579044-20.1283544 1.493193-23.3212734-5.2633436-.11273-.2175036-.2127425-.441366-.2995331-.6704583-.2114883-.5319447-.3704717-1.0832889-.4746823-1.6461678-.0070205-.0075494-.0116213-.017027-.0132103-.0272131-1.4323692-6.9273641 4.4068095-15.0003594 13.854615-18.6807746 9.7324488-3.7888147 19.7738667-1.576795 23.1538051 4.8863607.1815901.3352517.3423919.6813531.481495 1.0363446.2161912.5407392.379644 1.1010973.4880813 1.6732677 1.4077792 6.9409329-4.4276062 14.997755-13.8692973 18.6919844z" fill="url(#n)"/><path d="m40.8312985 32.8276505c7.7915602 1.9885021 10.5347077 10.3791097 5.7963585 18.0669694-5.0027429 7.1400304-16.1741284 9.6575467-24.6258051 6.300594-8.3662064-3.1755757-10.2959229-9.8850461-4.6331389-15.6521156 5.3932004-6.3222778 15.7578733-10.5245547 23.4625855-8.7154478z" fill="url(#o)"/><path d="m46.3647918 50.4372053c-.0560962.1074272-.1191359.2110833-.188718.310309-.6529093.9713982-1.4144063 1.8652164-2.2697485 2.6641501-6.0504143 4.9573369-14.2983637 6.2801588-21.5955799 3.4635405-4.4128484-1.6747963-7.0014359-4.4066962-7.5224295-7.3757579-.0898641-.5392824-.1151607-1.0873505-.0753551-1.6326179.3056121-2.3568735 1.3946232-4.5425988 3.0920681-6.2060086 5.2212784-6.1264262 15.2918154-10.197714 22.7738216-8.4023458 7.4544533 1.9322453 10.1386076 9.7943105 5.7859413 17.1787306z" fill="#e2e7e8"/></g><path d="m32.9777444 21.0411577c-2.4561641 4.6223065-3.61493 8.8865395-6.2304853 11.2589129-.1931528.667552-4.0077842-1.6240312-3.1712542-3.080311 1.8077104-4.0816862 1.8236948-4.8850207 4.1011619-10.1032796 1.2750917-6.936649 4.0299585-6.4741957 5.6609345-5.6041682 1.6332218.8674609 2.0976755 2.8997268-.3603569 7.5288459z" fill="#f2f2f2"/><path d="m27.7375754 30.7257099c.2245743 3.8789654-2.8998211 8.4077055-3.1586478 10.2245687-.0710334.5160115-2.5715085-.2551844-2.2230974-1.3905871.861307-2.4999254 1.1375686-5.1641362.8075241-7.7875971-.0820735-.880256.0196644-3.1979767 1.5159712-3.3270975 1.6768911-.1447655 2.894254-.4617173 3.0582499 2.280713z" fill="#f2f2f2"/><path d="m29.8025083 13.8971077c-1.8260537 4.1060496-2.8281649 5.3918794-2.1011479 8.5246917.4632097 1.9279858 1.3198415 3.7394482 2.5161575 5.3207516l1.1999065-2.0208862z" fill="#ccc" opacity=".4"/><path d="m20.310807 78.2332455c-.1168416.7946501-.4320926 1.5470312-.916622 2.1876185-.6038674.6855135-1.0561766 1.4908135-1.3273288 2.3632016-.5037847 1.4526794-1.7800365 2.4998505-3.3031303 2.7102351-1.0161427.1541805-2.0465065-.1698835-2.7914592-.8779536-.3977087-1.0222879-.2147762-2.179481.4788718-3.0292439.4341554-.6306166.9360882-1.2117739 1.4968164-1.7330724l1.9748012-3.2185658z" fill="#ccc" fill-rule="nonzero"/><path d="m12.2958802 83.8414901c.7449331.7081074 1.7753036 1.0322015 2.7914593.8780291 1.5046267-.2044865 2.76988-1.2304501 3.2808427-2.6603569-.0914339.2142326-.191662.4607548-.317669.761458-.5037921 1.4526742-1.7800401 2.4998422-3.3031302 2.7102351-1.0161456.1541428-2.0464988-.1699158-2.7914782-.8779537-.3659116-.8843832-.2659985-1.8930806.2662999-2.6884947-.244913.6074557-.218096 1.2906922.0736755 1.8770831z" fill="#252538" fill-rule="nonzero"/><path d="m17.9168821 79.6197186s-1.5196136 1.5044217-1.7282224 1.6428841c-.4817126.0956964-.981676-.0061145-1.3876053-.2825674-.361829-.2747545-.5458667-.4345042-.4711155-.6128993s.8946174-1.6665493 1.2211749-2.3365547c.2844924-.5835914.9735582-.3631122 1.5655475.0000944.7519467.4613776 1.2308374.9207926.8002208 1.5890429z" fill="#252538" fill-rule="nonzero"/><path d="m.26043077 72.8943959c.59153641-.5175212 2.19807344-1.5924021 2.19807344-1.5924021l2.78462769-2.7700586 4.9211979.4419397c.1769281.4735761.2834663.9705342.3162158 1.4750195l-.040178 1.5099511s-.0515766.2653375-1.12798606.6365834c-1.07640944.371246-3.72385805 1.3229128-3.72385805 1.3229128-.99408714.368423-2.03078366.6096254-3.08540636.7178642-1.7378281.1760173-2.23325046-.353129-2.23325046-.353129s-.60089682-.8711786-.0094359-1.388681z" fill="#ccc" fill-rule="nonzero"/><path d="m.81320451 73.8818059c1.38996654.458232 2.90909921.3050593 4.1796119-.421426 1.23948609-.6199184 2.53180266-1.1280297 3.86158441-1.5182925.58602281-.2087926 1.13087011-.5187807 1.60976408-.9158671l-.0248164.9325875s-.0515577.2653374-1.12796717.6366023c-1.07640943.3712648-3.72385805 1.3229128-3.72385805 1.3229128-.90044747.5050051-1.89621963.8169001-2.92386379.9158104-.84053541.1880927-1.72103598-.0145126-2.39483077-.5510564-.20231386-.296041-.28866838-.656156-.2426158-1.0117546.20058974.272589.47308791.4839708.78699159.6104836z" fill="#252538" fill-rule="nonzero"/><path d="m6.43150769 70.1208837s-1.46709333.9303795-1.96347815 1.3107405c-.52632712.2594289-1.15998072.1489616-1.56747241-.2732636.47589692-.8024518 1.03246101-1.554231 1.66103877-2.2436488 0 0 .34695795-.7299422.65186954-.8376057.19060512-.0672969.72163856.2623179 1.04468594.4818346.98514544.6696845.48474093 1.2871319.17335631 1.561943z" fill="#252538" fill-rule="nonzero"/><path d="m10.0384361 68.8888574c-.46396307 1.0340612-2.28071302 1.3991172-2.28071302 1.3991172l-3.47382564-.4718515.90809189-2.1703697z" fill="#ccc" fill-rule="nonzero"/><path d="m20.2264312 78.7648263c-.4812308 1.1436307-2.3565399 1.5512615-2.3565399 1.5512615l-1.7611537-.4538289-.8798974-2.4593535z" fill="#ccc" fill-rule="nonzero"/><path d="m47.8036718 47.2607614c-.6630924 2.00761-1.7416778 3.8530118-3.1654983 5.4159976-4.6730092 3.8756916-10.6228776 5.8703771-16.6876865 5.5945247-1.0076595-.0328181-11.0169009-1.9605719-13.1622466-8.7718179 1.4337298-2.2172585 3.365448-4.0690586 5.6412702-5.4078826 7.555783-3.5898337 16.3713326-3.3570484 23.7271302.6265436.5645875.3583187 3.1800107 2.1652365 3.647031 2.5426346z" fill="#6f4cff" fill-rule="nonzero"/><path d="m20.5381744 49.1833633c-.1222515 3.7542982 5.125938 6.9714486 11.7247064 7.1863795 6.5987684.2149308 12.0473576-2.6539594 12.169609-6.4082577.1222138-3.7530527-5.1282026-6.9709579-11.7269333-7.1858322-6.5987307-.2148742-12.0451307 2.6546577-12.1673821 6.4077104z" fill="#e2e7e8" fill-rule="nonzero"/><path d="m44.1552254 43.4441674c-.0665985 2.045193 1.1926975 4.6918113-.6985395 7.0720164-2.341065 2.9461514-13.9273846 8.8346609-19.0695901 12.6286088-.8603238 5.3442213-2.1415858 10.6121077-3.8318236 15.7544763-1.430482.6435282-5.9721116-.3768508-5.3697616-1.8458502 1.211379-4.9499569 2.1089465-9.9714752 2.6873436-15.034574.2240082-2.9987282 11.6691667-13.4877661 11.6691667-13.4877661l3.9785329-.7114667 2.8106708.5963487-2.4366318-7.9355897z" fill="#f8f6ff" fill-rule="nonzero"/><path d="m4.54034626 67.4080821c1.19371651-2.9062565 4.48037169-18.5281962 5.28053579-19.7232337 2.41791095-3.5999081 22.32931525-6.7960541 22.32931525-6.7960541l2.2793165-1.3214786c-.5493039 4.0283749-1.6377607 7.9646025-3.2361165 11.7028907-2.7442609 3.623177-11.3988283 2.0037883-16.2002658 2.1328902-.1198925 3.6818872-.8814827 6.510505-4.9547709 15.4857608-1.42934973.6419241-6.10034542-.0125497-5.49801434-1.4807753z" fill="#f8f6ff" fill-rule="nonzero"/><path d="m44.9530683 45.5050429c-2.3152295 4.4410995-15.9930347 17.211945-18.1441739 11.5964537-1.4362757-3.7492783-2.8644554-1.8654958-9.6817215-3.8243503.6358474-2.7497338-1.6709087-3.9266355-4.8977403-6.9696747-1.0930732-1.0308152 3.7235372-3.548841 4.9735672-4.6246277 1.0231842-1.0905051 2.3646958-1.8299344 3.8330691-2.1127541z" fill="#ccc" fill-rule="nonzero" opacity=".4"/><path d="m39.3343877 13.4278039c3.0634078 1.473555 5.6134295 3.8335126 7.3193879 6.773842.8498101 1.4374145 1.1123636 3.14725.7329805 4.773413-.1092299 1.5981013-2.0614794 11.2537042-2.4737337 13.4135245-.2532198 1.4764827-.3448985 2.9761506-.2734146 4.4724833-.0442921 1.3602412.1480304.2643183.0026232.9190564-4.0646827 2.9402256-13.9424821.4351081-14.7461752-2.5005128 1.2159664-4.9099127.1348012-12.8561838.489138-15.2297084-.3964397-1.7737033-2.2740512-11.1928615.5155964-13.5057698.4136681-.4963976 1.0671236-.7245901 1.6998769-.5936123 2.2873598.2717666 4.5426644.7665489 6.7337206 1.4772841z" fill="#f2f2f2"/><path d="m40.5613563 13.9317563c.7512484.2258576 1.2983795 1.3660538 1.1250421 1.6910449-.0904526.5351853-3.7019668 2.782816-5.9806983 5.7167951-2.1219069-2.0905986-1.8064648-3.7762461-.8605538-6.3491512.4819774-.4182828.7783892-1.0106447.8242256-1.647168 1.545657-1.0658882 3.6432062-.8135644 4.8919844.5884792z" fill="#0c0a1d"/><path d="m39.767552 8.57814892c.1011009 2.27255978.567578 4.51400128 1.3815097 6.63821048-.0790728.4658502-3.2469866 2.6339741-5.2293743 5.1867052-1.8464542-1.819241-1.5717563-3.2855795-.7488517-5.5243216 1.1789965-1.2362536.9560074-2.0636874-1.051159-5.511319-.464114-1.12241887 5.6482527-.78925621 5.6478753-.78927508z" fill="#dba2a7"/><path d="m28.7943393 7.37112779c.2933942.7779177.4921331 1.58830805.5919327 2.41370257.0550302.99171284 1.2376878.76710074.9895426 2.31615424.4853125 1.1018315 1.1463892 2.11751 1.9574014 3.0073526.4836652.5758729 1.1591811 1.4240657 1.9321887 1.558263 1.9322642.3336345 2.8535475-1.8255819 4.1212415-3.0183549 1.2577673-1.1799778.3251421-2.8859881.2418609-4.32686848-.0207128-2.824893-2.2261645-5.15091082-5.0459594-5.32180841-1.5091851.0704755-2.9562455.62190509-4.1296016 1.57366236-.3307471.32574605-1.0466864 1.03585395-.6586068 1.79789702z" fill="#fcbac0"/><path d="m29.4962757 4.66632779c-1.4441641 1.65371652-1.8356406 2.30743549.3169329 3.54412308.6559671-1.02259077 1.7328648-1.70035034 2.9385838-1.8494359 1.6210872-.07831794.9107906 2.18248534 2.5032115 2.14919549.6102761-.01253087 1.8224681.21215672 1.703104.91796185 1.5162544-1.57888985 2.3012267-.45228144 2.999785 1.12768409-.353893-1.00061546-.4709882-2.06965262-.342089-3.12314994.3033053-2.31255199-.8205421-4.57920529-2.8448476-5.73768615-2.1398539-.84315405-4.5712205-.12447836-7.2746806 2.97130748z" fill="#17142b"/><path d="m32.8291668 6.35882585c1.5205382-.00271754.8595914 2.18390071 2.4258371 2.15127138.6102761-.01253087 1.8224681.21215672 1.703104.91796185 1.5162544-1.57888985 2.3012267-.45228144 2.999785 1.12768412-.1377491-1.06555365-.1468034-2.14380997-.0269678-3.21152658.0508901-1.6934683-.5684104-3.33863153-1.7233912-4.57816534-.6323317.95474254-1.430881 1.78824925-2.3576722 2.46088205-.9766506.4535614-1.9864788.83195677-3.0206949 1.13189252z" fill="#17142b"/><path d="m39.2538806 9.41450913c.043726.94304247-.2566564 1.72131527-.6697222 1.73824327-.7040215-.1579043-1.1969893-.7931473-1.1751656-1.51432943-.0456131-.93828676.6044259-1.87162912 1.0183032-1.88753805.4142548-.02296697.7831795.72601682.8265846 1.66362421z" fill="#fcbac0"/><path d="m41.6973629 24.6226281s1.2910949 11.7869456-.3549219 15.1697904c-1.6460168 3.3828447-11.0693079 1.8417362-11.0693079 1.8417362l.7687803 3.3899594 14.0536181-.3221982 3.0096738-3.5773752-.4938937-13.611433z" fill="#ccc" opacity=".5"/><path d="m38.3614334 27.9569157c-.0091528.2811897-.211515.388023-.4519795.2385395-.2559523-.1783076-.4115278-.4679866-.4188217-.7798392.0091528-.2811897.2115151-.388023.4519795-.2385584.2559577.1783116.4115338.4679988.4188217.7798581zm-.9537616 2.0046753c-.0549358 1.687346-1.269166 2.3281189-2.7118769 1.4313124-1.5357168-1.0698802-2.4691722-2.8079737-2.5129494-4.6791106.0549358-1.687346 1.269166-2.3280812 2.711877-1.4312746 1.5357156 1.069864 2.4691724 2.8079461 2.5129493 4.6790728zm-.870839-.5413186c-.0291755-1.2474103-.6514774-2.4061262-1.675287-3.1193567-.9618576-.5978962-1.7713066-.1706765-1.8079179.9541957.0291816 1.2474087.6514821 2.4061221 1.675287 3.1193567.9618954.5978396 1.7713255.1706765 1.8079557-.9541957zm.6389801 3.6663746c-.1635618-.3045342-.439241-.4759089-.6157489-.3827389l-1.8079179.9542334c-.1764891.0931701-.1870007.4155758-.0234388.72011.1635618.3045341.439241.4759089.6157489.3827577l1.807918-.9542334c.1765267-.0931701.1870194-.4155758.0234765-.7201288z" fill="#000" fill-rule="nonzero" opacity=".2"/><path d="m49.2971102 29.9634215c-.3402208-4.3917308-1.0268521-12.5207376-5.1200501-10.2092069-1.4203333.4119125-2.4820566 1.596796-2.7362404 3.0536451-.5436587 4.2943147 1.3783393 11.0136927 1.5698691 11.9833821.4502488 2.0753737.6154828 4.2024386.4911385 6.3224476l4.7881518 3.0739323c.8504708-4.6908571 1.1881673-9.4603081 1.0071311-14.2242002z" fill="#f2f2f2"/><path d="m39.6156718 48.8595988-12.0925177 6.3883479c-.2327613.1296356-.5175554.122669-.7436997-.0181924l-14.5500218-8.9222261c-.3794994-.2442523-.6439566-.6317307-.7331126-1.0741448.009719-.562606 11.3050732-5.8473879 12.5249649-6.539662.2347194-.1328626.5230202-.1280298.7531545.0126253l15.4468849 9.2895089c-.0412856.3723936-.2696177.6980263-.6056525.8637432z" fill="url(#q)"/><path d="m40.0157538 48.2015015-12.4874666 6.5939939c-.2326966.1298623-.5176052.1228999-.7436808-.0181736l-15.1203463-9.3126457c-.1131323-.0673202-.1808503-.1907052-.1770504-.3222925-.0009259-.1321341.0713864-.2539631.1879017-.3162913l12.3508537-6.5789341c.2345278-.1333775.5230601-.1285397.7529846.0126252l15.2754913 9.3421612c.1142019.0678395.1821289.1927296.1772869.325463-.0034022.1357448-.0957418.2106847-.2159741.2740939z" fill="url(#s)"/><path d="m24.6665682 43.94176 3.850752-2.0540062c.0865655-.0483462.1925559-.0458746.2767737.0064542l4.8233477 2.9419807c.0419065.0249155.067032.0705732.0657088.1193075.0004759.0488959-.0261543.0940524-.0692.1172505l-3.8491102 2.0609509c-.0874476.0501141-.195274.0485075-.2811897-.0041895l-4.8225551-2.9501711c-.0421863-.0251634-.067265-.0713545-.0653908-.1204398.0001452-.049145.0274005-.0941979.0708636-.1171372z" fill="#b2b2b2"/><path d="m33.6616205 43.6711385-.3434667.1830564-3.0553435-1.8834052.3302564-.1773948z" fill="#6e6f79" opacity=".5"/><g fill="#b2b2b2" transform="translate(13.210256 40.738462)"><path d="m16.2234027 11.7948718c-.2093511-.1287308-.4197779-.2573673-.6312804-.3859093-.0235907-.0138035-.0377782-.0393715-.0370076-.066693.000028-.0270758.0151245-.051885.0391589-.0643528.3057231-.1632599 1.2587488-.6689296 1.5740776-.8394174.0589754-.0326699.1310775-.0305569.1880385.0055105.2103262.1287623.4197088.2559205.6301104.3846827.0233835.0138803.0374103.0393409.036649.0665231-.0000177.0269534-.0149931.0516701-.0388759.0641641-.3038359.1646941-1.25605.6718359-1.5731528.841682-.059015.0323419-.1309615.0299695-.1877177-.0061899z"/><path d="m15.3105173 12.2844816c-.209112-.1285043-.4195388-.2570904-.6312804-.3857583-.0234904-.0138834-.0376009-.0394167-.0368566-.0666929.0000031-.0271615.0151404-.052058.0392533-.0645605.3058741-.1632787.3458634-.178848.6609469-.3495811.0590152-.0326242.131117-.0305048.1881141.0055295.2104016.1287622.4197842.2560713.6301103.3846826.0234287.0138273.0374727.039312.036649.0665042-.0000631.0269938-.0150143.0517505-.0388758.0643717-.3037227.1644677-.3430327.1818675-.6601166.3516193-.0590605.0324503-.1311177.030106-.1879442-.0061145z"/><path d="m14.4316012 11.7470318c-.2092693-.1287245-1.2989456-.7947102-1.5104796-.9232837-.0234574-.0139062-.0375575-.0394134-.0368566-.066674.0001302-.0271459.0152565-.0519958.03931-.0645793.3058174-.1632599.3458067-.1789235.6609657-.3494868.0590352-.0327274.1312234-.0306361.188265.0054539.2103073.1287623 1.2986815.7935779 1.5091775.9221137.0232342.0139767.0371877.0393408.0365753.0664476-.0000592.027051-.015077.0518554-.0390287.0644283-.303666.1644677-.3430326.181792-.6601165.3516948-.0590148.0324473-.1310327.0301027-.1878121-.0061145z"/><path d="m12.6735614 10.672c-.2093385-.1287308-.4197653-.2573232-.6312804-.3857772-.0235992-.0138784-.0377349-.039537-.0368566-.0669005.000012-.0271061.015158-.0519369.0392533-.0643529.3058741-.16325986.3458634-.17905555.6609469-.34956222.0590212-.03265841.1311638-.03048718.1881141.00566154.2104771.12876225.4198597.25607138.6301103.38458828.0233268.0139351.0373337.0393596.0366491.0665231-.0000738.0270113-.0150577.0517739-.0389514.0643717-.3038359.1644488-.3431648.1817165-.6600411.3516193-.059058.0324869-.1311445.0301199-.1879442-.0061711z"/><path d="m11.7946642 10.1345502c-.2092756-.1287938-.4197527-.25745536-.6314314-.38598487-.0235508-.01382458-.0376828-.03939683-.0368566-.06669292.0001366-.02708152.0152743-.05185546.03931-.06433395.305723-.16327877.3458067-.17914995.6608902-.34965661.0590864-.03269132.1313058-.03052017.1883217.00566153.2102695.12861129.4196521.25584493.6299027.38468267.0234458.0137718.0374956.0392512.0366302.06642872-.0000648.02693512-.0150177.05162658-.0388571.0641641-.3037226.16439221-.3430326.18194298-.6601165.35184573-.0590079.0324481-.131021.0301034-.1877932-.0061144z"/><path d="m10.9155971 9.59679836c-.2092756-.12850434-.4197527-.2570653-.6314314-.38568287-.0234544-.01390907-.0375535-.03941439-.0368566-.06667405.0001265-.02711359.0152709-.05192313.0393288-.06442831.3057231-.16335426.3457879-.17907446.6610979-.34963775.0590214-.03276708.1312446-.0305943.1881895.00566154.2101752.12859241.4195578.25590154.6300349.3846638.0233306.0139226.0373181.0393643.0365735.06652307-.0001025.02692452-.0150445.05159804-.038857.06416411-.3038359.16446769-.3431836.18194297-.6602863.35184574-.0590395.03246337-.1311146.0299935-.1877933-.00643528z"/><path d="m10.0366055 9.05959385c-.20932591-.12881888-.41977159-.25751194-.63133699-.38607918-.02357386-.01376504-.03774095-.03931214-.0369321-.06659857.00012053-.02713074.01529356-.0519514.03938544-.06442831.30572307-.16325989.34573128-.17907446.66094685-.34956225.0590065-.03276963.1312089-.03064816.1881896.00552943.2104016.12861129.4195766.25590154.6300537.3846638.0233433.01391688.0373509.03935559.0366302.06652308-.00005.02695979-.0150429.05166936-.0389326.0641641-.3038359.16454318-.3431835.18201846-.6602863.3519401-.0589934.03241501-.1309734.03005596-.1877178-.0061522z"/><path d="m9.15755733 8.52184205c-.20927562-.12850434-.41970242-.25709675-.63128041-.38577723-.02357212-.0137946-.03771302-.03937565-.03685661-.06667405.00003838-.02709349.01516775-.05190886.03923446-.06435282.30589292-.16333539.34588226-.17905559.66096574-.34963774.05902038-.03277124.13124591-.03059839.18818954.00566153.21040164.1285358.41978421.25584493.63003485.38458831.0234335.01382957.0374729.03932609.0366302.06652308-.0001424.02693376-.0151087.05159939-.0389325.0641641-.30364722.16446769-.34303265.18194298-.66004106.35184574-.05913472.03224255-.1311171.02981398-.18794421-.00634092z"/><path d="m8.2786601 7.98439221c-.2092882-.12857983-.41971501-.25719112-.63128041-.38583385-.02352668-.01385922-.0376759-.03939719-.03695097-.06669292.00013447-.02716559.01530526-.05202155.03940431-.06456041.30572307-.16327877.34563692-.178848.66094687-.3493358.05897823-.03281243.13117133-.03077831.18820841.00530298.21038277.12883774.41955774.256128.62995938.38466379.02331957.01393985.03731876.03936341.03663016.06652308-.00004962.02698764-.0149968.05174231-.03885703.06435282-.3038359.16454318-.34318359.18194297-.66028636.35184574-.05904812.03232102-.13101207.02991981-.18777436-.00626543z"/><path d="m7.39963077 7.44681026c-.20927562-.12857983-.41972759-.25716595-.6313559-.38575836-.02350492-.01384236-.03758052-.03941004-.03670564-.06667405-.00009614-.02717334.01503318-.05211195.03917785-.06457929.30587405-.16325989.34586338-.17892348.66094687-.34956225.05903254-.03266232.13117657-.03054256.18818954.00552943.21040164.12876226.4197842.25605252.63003487.3846638.02332146.01389487.03731059.03931062.03657354.06644759-.00004639.02701298-.01499941.05179435-.0388759.06442831-.30364718.1643922-.34301374.18171651-.66011651.35163815-.05904065.03243113-.13106909.03007962-.18786872-.00613333z"/><path d="m6.5208279 6.90936041c-.20941402-.12856725-.41991631-.25715966-.63150687-.38577723-.02349754-.01385837-.03759119-.03940626-.03678113-.06667405.00010432-.02711727.01517551-.05196005.03917784-.06457928.30587405-.1632599.34586339-.17890462.66094688-.34941129.05904549-.03279452.13129168-.03070242.18834051.00545395.21025066.12876226.41963323.25605252.63005374.38458831.02326322.01395776.03724746.03932536.03663016.06644759-.00004485.02706977-.0150966.05188226-.03908349.06442831-.30359057.16446769-.34303262.18196184-.6600599.35186461-.05903643.03232108-.13099695.02989033-.18771774-.00634092z"/><path d="m5.64177969 6.37183508c-.20933853-.12873081-.41984082-.25729805-.63150687-.38570175-.02339278-.01395989-.03744943-.03944072-.03678113-.06667405.00010901-.02711082.01516992-.05194862.03915898-.06457928.30589292-.1632599.34595774-.17890462.6611922-.34954338.05902812-.03267213.13117433-.03055955.18818954.00551056.21038277.12876226.41955774.25607138.62995938.38468267.02331935.01389445.03732443.03929266.03663016.06642871-.00005941.02698974-.01500278.05174536-.03885703.0643717-.30383589.16446769-.34318359.181792-.660192.35161928-.05897512.03258486-.13106266.03023772-.18779323-.00611446z"/><path d="m4.76271262 5.83438523c-.20935112-.1287308-.41977792-.25734208-.63128041-.38583385-.02361014-.01382224-.03773408-.03948302-.03678113-.06682502-.00006306-.02710646.01506902-.05196215.03917784-.06435282.30572308-.16327877.34571241-.17907446.66094687-.34963775.05905049-.03264712.13120841-.03047631.18818954.00566154.21040164.12855467.41957662.25584493.63003488.38460718.02342996.01382641.03745256.0393319.03657353.06652308-.00004793.02693985-.01500565.05163934-.03885702.0641641-.3038359.16439221-.34318359.18186749-.66021087.35177026-.05898326.03253392-.13103667.03020237-.18779323-.00607672z"/><path d="m3.88381538 5.29695426c-.20933853-.12879371-.41984082-.25746161-.63150687-.3860037-.02348244-.01387302-.03757073-.03941121-.03678113-.06667405.0000976-.02707547.01516987-.05187389.03915898-.0644283.30587405-.1632599.34595774-.17905559.6611922-.34956226.05899819-.03269416.1311381-.03057368.18811406.00552943.21025066.12868677.41963323.25590154.63003487.38473929.02336116.01386311.03737977.03929307.03663015.06644759-.00014423.02691277-.01507426.05156654-.03885702.0641641-.3038359.16437333-.34318359.18194297-.66026749.35184574-.05897535.03244756-.13095716.03012464-.18771775-.00605784z"/><path d="m3.00482379 4.75946667c-.20935111-.12873081-.41977791-.25739241-.63128041-.38598482-.02361494-.01377977-.03781119-.03936342-.03700759-.06669293.00004508-.02715764.01525915-.05201432.03942318-.06440943.30572308-.16335426.34571241-.17907446.66094688-.34965662.05903111-.03261719.13115131-.03044663.18811405.00566154.21047713.12861128.41963323.25590154.63003487.38458831.02345891.01384376.03750757.03937296.03664902.06659856-.00003894.0269475-.01500819.05165403-.03887589.0641641-.3038359.16444883-.34316472.18194298-.66026749.35184575-.05898847.03244625-.13098443.03010139-.18773662-.00611446z"/><path d="m2.12598318 4.22197908c-.20932595-.12879371-.41982195-.25748048-.631488-.38606031-.02355225-.01380513-.03766539-.03938838-.03678113-.06667405.00004937-.0270698.01513969-.05186883.03915898-.06435282.30572307-.16327877.34595774-.17907446.66109784-.34956226.0589852-.03285683.13123525-.03073396.18818954.00552944.21025067.12859241.4196521.25582605.62982728.38466379.02343623.01381699.03754336.03925027.03685662.06644759-.00002256.02694695-.0149876.05165854-.03885703.0641641-.3038359.16454318-.34318359.18201847-.66028636.35192123-.0590014.03234727-.13093194.03001877-.18771774-.00607671z"/><path d="m15.3443545 11.2571577c-.2093637-.1285043-.4197968-.2570904-.6312993-.3857583-.0235335-.0138594-.0377006-.0393905-.0370076-.0666929.0000818-.0271613.015272-.05202.0394043-.064485.3057231-.1633542.3457124-.1789989.6609469-.3494867.0589599-.0328095.1311468-.0307239.188114.005435.2104771.1287812.4196521.2560714.6300538.3846072.0233702.0138909.0373872.0393468.0366301.0665231-.0000831.0269783-.0150207.0517171-.038857.0643528-.3038359.1644677-.3431836.181943-.6602864.3518458-.0590257.0323383-.1309902.0299071-.1876988-.006341z"/><path d="m14.4652308 10.7197079c-.2093386-.1285673-.4197654-.2571785-.6312804-.3858338-.023603-.0137277-.0377599-.0393088-.0368567-.0665986-.0001199-.027157.0150517-.0520708.0392345-.0644283.3057231-.1632599.3459577-.1790556.6609657-.34956228.0589599-.0328517.1311857-.03072869.1881141.00552944.2104771.12861128.4197842.25590154.6300349.38466384.02347.0137941.0375223.0393142.0366301.066523-.000121.0268989-.015022.0515526-.0387815.0641641-.3036472.1644677-.3430326.1819619-.6601165.3518646-.0590656.0325244-.1311978.030098-.1879442-.006322z"/><path d="m13.5864468 10.1822014c-.2093386-.1285043-.4197654-.25709043-.6312804-.38575832-.0235656-.01387372-.0377598-.03943057-.0370831-.06676841.0001263-.02716931.0153394-.05201784.0394798-.06448493.3055721-.16335425.3457124-.178848.6608714-.34943015.0589871-.03278213.131171-.03071911.1881895.00537846.2104016.12876226.4196332.25605251.6300537.3846638.0233643.01389667.0373792.03934873.0366302.06652307-.0000965.02698446-.0150382.05172522-.0388759.0643717-.3038359.16444878-.3431647.18194298-.6602675.35184578-.059054.0322471-.1309744.0298177-.1877177-.006341z"/><path d="m12.7073986 9.64475159c-.2093386-.12857983-.4197654-.25719111-.6312804-.38583385-.02356-.01380649-.0376965-.03937964-.0368567-.06667405-.0000794-.02720477.0151079-.05215484.03931-.06457928.3057231-.16327877.3458068-.178848.6608902-.34956226.0590098-.0326381.1311161-.03052583.1881141.00551057.2104583.12883774.4197842.25607138.6300349.38468266.0233783.01389195.0374188.0393381.0367056.06652308-.0001412.02696196-.0150622.0516732-.038857.06435282-.3038359.16446769-.3432591.181792-.6601165.35169477-.0590626.03244205-.1311152.03009793-.1879442-.00611446z"/><path d="m11.8284825 9.10722626c-.2092757-.12873081-.4197528-.25731693-.6314314-.38575836-.0234937-.01398077-.0375921-.03957154-.0368566-.06690052.0001333-.02709242.0152798-.05187631.0393288-.06435282.3057231-.16335425.3457879-.17907446.6609469-.34963774.0590877-.03260301.1312431-.03043314.188265.00566154.2102506.12876226.4195766.25582605.6298839.38458831.0234015.01386282.0374347.03933501.036649.06652307-.0001067.02692335-.0150475.05159488-.038857.06416411-.3036661.16461866-.3430326.18194297-.6601354.35186461-.0590168.03242847-.1310255.03006943-.1877932-.0061522z"/><path d="m10.9495097 8.56968205c-.2093636-.12859241-.4198659-.25718482-.6315068-.38577723-.0233995-.01396461-.0374843-.03943117-.0368755-.06667405.0001338-.02715.015268-.05200082.0393288-.06457928.3057231-.1632599.3458634-.17890462.6611167-.34956226.0590072-.03265707.131127-.03053718.1881141.00552944.2102318.12883774.4196332.25605251.6300348.38466379.0232923.01393874.0373073.03930992.0367057.06644759-.0001257.02701094-.0150817.05176859-.0389325.06444718-.3038359.16437333-.3431836.18171651-.6602675.35161928-.0589668.03250909-.1309916.03016305-.1877178-.00611446z"/><path d="m10.0704427 8.03219446c-.20933856-.1287308-.41976537-.25732321-.63128044-.38577723-.02358762-.01387075-.03776544-.0394718-.03700759-.06682502.0000847-.0271217.0152723-.05193709.03938543-.06435283.30572308-.16333538.34573128-.17913107.6609657-.34963774.0590401-.03258018.1311402-.03041023.1881141.00566154.2104016.12876226.4196332.25582605.6301104.38468267.0233713.01384627.0374.03927402.036649.06642871-.0001272.02692272-.015071.05158733-.0388759.06416411-.3038359.16459979-.3432402.18186748-.660343.35177025-.0589657.03251324-.1309928.03016712-.1877177-.00611446z"/><path d="m9.19152656 7.49474462c-.20925046-.12879371-.4197213-.25745532-.63141251-.38598483-.02349041-.01388333-.03760095-.0394167-.03685661-.06669292.00010696-.02708994.01525321-.05187803.03930994-.06433395.30572308-.16327877.34580677-.17914995.66109785-.34963774.05901313-.03269146.13117374-.03051969.18811405.00566154.21025067.12859241.41957662.25590154.63005372.38466379.0233462.0138776.0373596.03929799.0366302.06644759-.0001154.02696193-.0151251.05165144-.039008.06416411-.30366607.16446769-.34303264.18194297-.66013541.35184574-.05901137.03244241-.13102449.03009046-.18779323-.00613333z"/><path d="m8.31247836 6.95706831c-.20926304-.12857983-.41968985-.25716595-.63128041-.38575836-.02351251-.01387061-.03767336-.03938324-.03700759-.06667405.00008825-.02716055.01530659-.05200771.03946092-.06442831.30572308-.16341087.3456558-.17907446.66096575-.34963774.05900408-.03272873.131185-.03055635.18811405.00566153.21040164.12868677.41963323.25590154.63011036.38451283.02328813.01393595.03728625.03931564.03664902.06644758-.00012666.02699161-.01509634.0517235-.03895138.06435283-.3038359.16446769-.34318359.18194297-.66026749.35184574-.05904655.03238144-.13105814.02995718-.18779323-.00632205z"/><path d="m7.43348677 6.41978831c-.20933853-.12874339-.41978421-.25743645-.63133703-.38607918-.02358422-.01373936-.03771896-.03931962-.0368-.06659857-.00002491-.02713564.0151278-.05200647.03925334-.0644283.30587405-.1632599.34586338-.17905559.66094687-.34956226.05901212-.0326956.13117499-.03052376.18811405.00566154.21040164.12853579.41987856.25584492.63011036.38458831.02335358.01390921.03736987.03935073.03664902.06652307-.00019638.02691849-.01514712.05155858-.03893251.06416411-.30366605.16444882-.34303261.18194297-.6600599.35184574-.05906551.03242969-.13111145.0300858-.1879442-.00611446z"/><path d="m6.55458954 5.882112c-.20926304-.12856725-.41974017-.25718482-.63143139-.38585272-.0234934-.01387127-.03760622-.03940153-.03685661-.06667405.00010649-.02707427.01521603-.05185712.03923446-.06435282.30589292-.16348636.34588226-.17905559.66096574-.34956226.05904104-.03284633.13132817-.03072407.18834052.00552944.21025066.12861128.41963323.25584492.63003487.38453169.02329699.01392741.03729821.03931272.03664902.06644759-.00012063.02701378-.01512774.05175955-.03902687.06435282-.30372266.16446769-.34303261.18194298-.66011651.35184575-.05905591.03231617-.13102261.02991511-.18779323-.00626544z"/><path d="m5.67552246 5.34458667c-.20927562-.12849176-.41975275-.25707788-.63143138-.38575836-.02341614-.01399185-.03749567-.03949794-.03685662-.06676841.0001938-.0271089.01531567-.05190326.03932882-.06448493.30572308-.16335425.3457879-.17892348.66109785-.34941128.05895163-.03281832.13113384-.03075452.18811405.00537846.21047713.12876226.4196521.25605252.63012923.38458831.02328193.01400367.03724253.03943834.03655467.06659857-.00007009.02698703-.01502032.05173474-.0388759.06435282-.3038359.16446769-.34316472.18186748-.66026749.35177025-.05905396.03232439-.1310251.02992318-.18779323-.00626543z"/><path d="m4.79670072 4.80715569c-.20933853-.12880629-.41984082-.25742386-.63150687-.38585272-.02350962-.01395647-.03759295-.03957238-.03678113-.06690051.0001822-.02705279.01526981-.05179965.03923446-.06435282.30589292-.1632599.34588226-.17905559.66096574-.34956226.05908323-.0326728.13127586-.03055332.18834052.00552944.21023179.12883774.41963323.25605251.62988389.3846638.02337316.01385148.03739602.03928913.03663016.06644759-.0000449.02702874-.01502513.0518191-.03893252.0644283-.30364718.16439221-.34303261.18181087-.66004102.35171364-.05901191.0324316-.13101599.03008718-.18779323-.00611446z"/><path d="m3.91763364 4.26963036c-.20933853-.12856725-.41981566-.25715966-.63143138-.38577723-.02342495-.01397421-.03750877-.03948086-.03685662-.06674954.00019289-.02709343.0152783-.05188282.03925333-.0645038.30587406-.16333538.34586339-.17890461.66117334-.34946789.05896899-.03277224.13113559-.03068717.18811405.00543507.21025067.12876226.41963323.25605252.63003487.38460718.02328834.0139631.03728296.03935807.03664903.06650421-.00007707.02700924-.0150203.05178165-.0388759.06444718-.3038359.16437333-.34324021.18186749-.66026749.35177025-.05905787.03230797-.13102011.02990705-.18779323-.00626543z"/><path d="m3.0388119 3.73210503c-.20936369-.12857983-.41986599-.25716595-.63150687-.38575836-.02351565-.01395065-.0376011-.03957043-.03678113-.06690052.00011495-.02707187.01522204-.05185069.03923446-.06435282.30587405-.16325989.34588226-.17914995.66096574-.34956225.05903212-.03265568.13116938-.03054336.18818954.00551056.21038277.12885662.41978421.25592041.62995939.38468267.02342446.01380169.03746551.03927233.03663015.06644759.00011896.02698632-.01488714.05176569-.03885703.0641641-.30366605.16461867-.34303261.18194297-.66011651.35184574-.05895591.03253705-.13098961.03020521-.18771774-.00607671z"/><path d="m16.2571643 10.7675856c-.2093637-.1287245-1.2988135-.79486109-1.5103475-.92328365-.0235556-.01392961-.0376965-.03954514-.0369321-.06690051.0000847-.0271217.0152723-.05193709.0393855-.06435282.305723-.1632599.3456557-.17907447.6609657-.34956226.0590072-.03265708.1311269-.03053718.188114.00552943.2104583.12883775 1.2987004.79335141 1.509102.92211361.0233852.0138764.0374075.0393419.0366302.0665231-.0001609.0269081-.0150861.051554-.0388571.0641641-.3038359.1644677-.3432591.181943-.6602863.3518458-.0589953.0324561-.131001.0301258-.1877744-.0060768z"/><path d="m14.4992 9.69255385c-.2093385-.12873081-.4198408-.25737354-.6315069-.38592821-.0235079-.0138394-.0375846-.03940904-.0367056-.06667405.000036-.02707871.0151391-.05188691.0391778-.06435282.3057231-.16333539.3458634-.17913108.6611734-.34961887.0589919-.03277856.1312001-.03060536.188114.00566154.2102507.12853579.4196521.25584492.6300349.38460718.023309.01394316.0373108.03935125.036649.0665042-.0001553.02697117-.0151892.05165274-.0390835.0641641-.303666.16437334-.3430326.18186749-.6601354.35177026-.0589711.03249926-.1309937.03014605-.1877177-.00613333z"/><path d="m13.6202839 9.15487754c-.2093385-.12857983-.4197905-.25716595-.6313559-.38575836-.0235465-.01383766-.0376977-.03939213-.0369321-.06669292.0000013-.02714048.0152144-.05199028.0393854-.06433395.3057231-.16350523.3457313-.17914995.6609658-.34963775.058976-.03281682.1311997-.03064294.1880952.00566154.2104771.12863016.4196521.25584493.6300537.38445621.0233326.013893.0373463.03930097.036649.06644759-.0000673.02700713-.0150143.05177856-.0388759.06442831-.3038359.16446769-.343259.18194297-.6602675.35184574-.0590471.03231071-.1310146.02985078-.1877177-.00641641z"/><path d="m12.7412168 8.61735221c-.2093385-.12850435-.4197653-.25709047-.6312804-.38575836-.0235357-.0137934-.0376685-.03933086-.0368566-.06659857-.0000643-.02718507.0150917-.0521195.0392533-.06457928.3057231-.1632599.3458634-.17892349.6609469-.34948677.0589821-.03271853.1311194-.03063431.1881141.00543508.2104771.12878113.419803.25607138.6300348.38468266.0234045.01382331.0374436.03927734.036649.06644759-.000083.02697828-.0150206.05171706-.038857.06435282-.3038359.1644677-.3431836.18194298-.6601354.35186462-.0590904.03232587-.1310996.02988819-.1878687-.00635979z"/><path d="m11.8623951 8.07992123c-.2093511-.12856725-.4198534-.25718482-.6315069-.38585272-.0235036-.01382689-.0376301-.03933991-.0368755-.06659856.0000864-.02710434.0152067-.05192193.0392534-.06442831.305723-.16341087.3459577-.17905559.6609657-.34956226.0590342-.03284711.1313164-.03072479.1883216.00552944.2102507.12861128.4196521.25590154.6298273.38451282.0233942.01383106.0374246.03928223.0366302.06644759-.0000748.02698062-.0150147.05172336-.0388571.06435282-.3035905.16454318-.3430326.18201846-.6600599.3519401-.0590471.03224788-.1309626.02981841-.1876988-.00634092z"/><path d="m10.9833846 7.5423959c-.2093385-.12849176-.4198408-.25708417-.6315069-.38577723-.0234434-.0139109-.0375178-.03942404-.0367811-.06667405.0000622-.02712911.0151456-.05199192.0391779-.06457929.305723-.16325989.3459388-.17882912.6611733-.34939241.0589644-.03275784.1311104-.03070231.188114.00535959.2102507.12876226.4196333.25605252.6300349.38475816.0233147.01390116.0373234.0392927.036649.06642871-.0000965.02698446-.0150381.05172522-.0388759.0643717-.3038359.16446769-.3431835.18194297-.6602674.35184574-.059054.03224715-.1309745.02981775-.1877178-.00634092z"/><path d="m10.1044308 7.00494605c-.20950212-.1287308-.41997924-.25734208-.63143142-.38583384-.02354163-.01389768-.03766182-.03949911-.03685661-.06682503.00009542-.02709664.01520411-.05190716.03923446-.06442831.30572308-.16327877.34586339-.178848.66096577-.34956225.0591023-.03262544.1312859-.03045537.1883216.00566153.2102507.12876226.4195766.25605252.6298273.38458831.0234335.01382957.0374729.03932609.0366302.06652308-.0000622.02698413-.0150058.05173282-.0388571.06435282-.3035905.16454318-.3429571.181792-.660041.35169477-.0590172.03243516-.1310327.03006866-.1877932-.00617108z"/><path d="m9.22543918 6.4673641c-.20933853-.12874338-.41984082-.25741128-.63150687-.38600369-.02350544-.01385957-.03762253-.03939757-.03685662-.06667405.00012708-.02707359.0152396-.0518494.03925334-.06435282.30572307-.1632599.34593887-.17905559.66109784-.34956226.05900545-.03277377.13121016-.03065223.18818954.00552944.21025067.12861128.41955774.25582605.63003489.38466379.0233534.0138728.0373745.0392941.036649.06644759-.0000215.02699349-.0150674.05173049-.0390269.06416411-.30364714.16446769-.34303258.18201846-.66011648.35186461-.0589599.03252045-.13098455.0301889-.18771774-.00607672z"/><path d="m8.3463721 5.92991426c-.20933853-.12864274-.41976533-.25723515-.63128041-.38577723-.02360639-.01389584-.03780147-.03951781-.0370642-.06690052.00011639-.02713337.01533061-.0519447.03946092-.06435282.3055721-.1632599.34573128-.17905559.66087138-.34956225.05904849-.03265538.13121089-.03048443.18818954.00566153.21040164.12876226.41963323.25605252.63005375.38458831.02337622.01388509.03739532.03934481.03663015.06652308-.00007706.02700924-.0150203.05178165-.0388759.06444718-.30383589.16437333-.34316471.18164102-.66026748.35154379-.05897803.03248789-.13100078.0301202-.18771775-.00617107z"/><path d="m7.4673239 5.39246441c-.20933853-.12880629-.41976534-.2574679-.63128041-.38598482-.02361804-.01375896-.03777417-.03937482-.03685662-.06669292-.00006683-.02711821.01509437-.05197849.03923446-.06433395.30572308-.16327877.34588226-.17914995.66096575-.34965662.05901212-.0326956.13117499-.03052376.18811405.00566154.21047713.12861128.4197842.25584492.63003487.38468267.02340631.01381017.03744212.03926409.03663015.06642872-.00004581.02691995-.0149684.0516094-.03878153.0641641-.3038359.1643922-.34303262.18194297-.66011652.35184574-.05904277.03252462-.13114032.03017904-.1879442-.00611446z"/><path d="m6.58842667 4.8547881c-.20928821-.12857983-.41977163-.25716595-.63145026-.38575836-.02352052-.01384489-.03764298-.0393926-.03685662-.06667405.00006699-.02713043.01522874-.05196835.03932883-.06442831.30572307-.16327876.34578789-.17907446.66094687-.34963774.05903665-.0328138.13130683-.03064048.18826502.00566154.21025067.12851692.41957662.25582605.63003487.38458831.02336253.01390055.03738198.03934779.03664903.06652307-.00015724.02695009-.01515491.05161971-.039008.06416411-.30366605.1643922-.34303262.18186748-.66013538.35177025-.05900041.03249492-.1310494.0301126-.18777436-.00620882z"/><path d="m5.70943508 4.31728164c-.20933853-.12859241-.4197905-.25718482-.6313559-.38577723-.02350359-.01385248-.03759938-.03940428-.03678113-.06667405-.00007223-.02718214.01507705-.05211761.03923446-.06457928.30572308-.1632599.34573128-.17892349.66089026-.34941129.05899636-.03281109.13122142-.03068895.18818954.00552944.21038277.12868677.4197842.25590154.63003487.38451282.02332008.01391403.03735005.0392992.03672451.06644759-.00014179.0270115-.01510217.05176426-.03895138.06444718-.3038359.16444882-.34318359.1819241-.66004103.35184574-.05911528.03232447-.13114202.02989441-.1879442-.00634092z"/><path d="m4.83051897 3.77975631c-.20926304-.12849176-.41974017-.25708417-.63143138-.38577723-.02354178-.01378747-.03767676-.03932886-.03685662-.06659857-.00001196-.02713201.01513696-.05199663.03925334-.0644283.30572307-.16333539.34586338-.17905559.66094687-.34963775.05907414-.03276912.13134135-.03059676.18834051.00566154.21017518.12861128.41955775.25584492.6298839.38458831.02344077.01382472.03748787.03932218.03664903.06652307-.00022637.02689465-.01514181.05151237-.0388759.06416411-.30372267.16446769-.34308923.18194297-.66011651.35184574-.05902626.03247513-.131092.0300418-.18779324-.00634092z"/><path d="m3.95147077 3.24230646c-.20927562-.12856725-.41970243-.25717853-.63128041-.38583384-.02351552-.01387683-.03767622-.03939643-.03700759-.06669293.00006335-.02714364.01529418-.05197476.03946092-.06433395.30572308-.16348636.3456558-.17907446.66096575-.34978871.05900829-.03268396.13115946-.03051226.18809518.00566153.21040164.12863016.41957661.25592041.63005374.3845317.02343965.01378692.0374861.03926737.03663015.06644759-.00007474.02698061-.01501471.05172335-.03885702.06435282-.30366605.16454318-.34318359.18201846-.66028636.35192123-.05905691.03228409-.13100085.02988355-.18777436-.00626544z"/><path d="m16.2909826 9.74028062c-.2093386-.12859241-.4198157-.25720999-.6314314-.38585272-.0234186-.0139073-.0375098-.03936957-.0368566-.06659857.0001363-.02712361.0152251-.05195945.0392344-.06457928.3058929-.1632599.3458823-.17892349.6611922-.34941128.0589517-.03281832.1311339-.03075452.1881141.00537846.2101752.12874339.4195577.25597703.6300349.3846638.0233266.01389875.0373382.03930293.036649.06644759-.0001187.02703485-.0151621.05179258-.0391024.06435282-.3036472.16446769-.3430326.18201846-.660041.3519401-.0590803.03224833-.1310228.02981915-.1877932-.00634092z"/><path d="m15.4119155 9.20275528c-.2092631-.1287308-.4196899-.25732321-.6312804-.38577723-.0234855-.0139067-.03757-.03946692-.0367812-.06674954.0000371-.02713748.0151676-.052001.0392534-.06450379.305874-.16333539.3458634-.17882913.6609469-.34963775.05904-.03258017.1311401-.03041023.188114.00566154.2104016.12876226.4197842.25607139.6300349.3846638.0234498.01381588.0375002.03931921.036649.06652307-.0001298.02697513-.0150619.05170015-.0388759.0643717-.3036472.16446769-.3430137.18171651-.6601165.35161928-.0590767.03240852-.1311207.03004298-.1879442-.00617108z"/><path d="m14.5331692 8.66530544c-.2093385-.12879371-.4198408-.25748677-.6315068-.38607918-.0235372-.01378314-.0376498-.03933658-.0367812-.06659857.0001236-.02708388.0152251-.05187542.0392345-.06440943.3058929-.16327877.3458822-.17907447.6609657-.34958113.0590339-.03276654.1312561-.03064534.1882651.00552943.2102506.12861129.4197087.25592041.6301103.38468267.0233315.01392838.0373348.03935951.0366302.06652308-.0000666.02699624-.0151263.05172001-.0390835.0641641-.3036472.16454318-.3430326.18201846-.6601165.35192123-.0589885.03243564-.1309797.03007623-.1877178-.0061522z"/><path d="m13.6540267 8.1277801c-.2093511-.1287308-.4197779-.25739241-.6312804-.38598482-.0235793-.01379387-.0377819-.03932813-.0370642-.06663631.0001583-.02712657.0153692-.05192064.0394797-.06435282.3057231-.16327877.345637-.17907446.6609469-.34963774.058994-.03277024.1311976-.03059718.1881141.00566154.2104016.12853579.4196521.25582605.6300348.38466379.0234045.01382331.0374437.03927734.0366491.06644759-.0001733.02690459-.015095.05154464-.0388571.06416411-.3038359.16446769-.343259.18194297-.6602863.35184574-.0590037.03240856-.1309886.03004235-.1877366-.00617108z"/><path d="m12.7749785 7.5902359c-.2092757-.12874339-.4197025-.25741128-.6312804-.38600369-.0235922-.01376625-.0377196-.03937539-.0367812-.06667406-.0000002-.02710435.0151404-.05193823.0392345-.06435282.3057231-.16325989.3458822-.17905559.6609657-.34956225.0590055-.03277377.1312102-.03065224.1881896.00552943.2104016.12861128.4197842.25590154.6299594.3846638.0233821.01384274.0374082.03928617.0366301.06644759-.0000395.02694221-.0149996.05164572-.038857.0641641-.3038359.16454318-.3432591.18194297-.6601165.35186462-.0590409.0325153-.1311271.03018457-.1879442-.00607672z"/><path d="m11.8961378 7.05267282c-.2093511-.12864273-.4198534-.25726031-.6315068-.38585272-.0235279-.01382888-.0376323-.03939634-.0367812-.06667405.0000299-.0270959.0151617-.05191536.0392345-.06435282.3058929-.1632599.3458823-.17913108.6609658-.34963774.0590376-.03280964.1313055-.03063639.188265.00566154.2103261.12861128.4197087.25584492.6299594.38466379.0234422.01377777.0374741.0392712.0365735.06644759-.0001104.02692742-.0150591.05159995-.0388759.0641641-.3036472.16439221-.3430137.18186749-.6601165.35177026-.0589725.03251956-.1310157.03014396-.1877178-.00618995z"/><path d="m11.0170896 6.515072c-.2093385-.12849176-.4197653-.25707788-.6312804-.38575836-.0235205-.0138449-.0376429-.0393926-.0368566-.06667405.0000009-.02716311.0151688-.05205227.03931-.0645038.305723-.16335425.3456558-.17899897.6609468-.34948676.058987-.03279937.1312064-.03062583.1881141.00566153.2104771.12863016.4198031.25592041.6300537.38445621.0233464.013914.0373549.03935462.0366302.06652308-.0000803.02699839-.0150147.05176091-.038857.0644283-.3038359.16439221-.3432591.18186749-.6602864.35177026-.0590666.03231257-.1310512.02985279-.1877744-.00641641z"/><path d="m10.138249 5.97764103c-.20957755-.12859241-.42007984-.25718482-.63150685-.38577724-.02343442-.01391959-.03750573-.03942699-.03678112-.06667405.0000046-.02716582.01514046-.05206722.03925333-.06457928.30572308-.1632599.34586338-.17890461.66094684-.34956225.0590639-.03264291.1312188-.03052368.1882651.00552943.2103261.12883774.4197087.25605251.6298839.3846638.0234256.01380274.0374722.0392704.036649.06644759-.0000617.02698937-.0150144.05174106-.0388759.06435282-.3036472.16446769-.3430138.181792-.6601165.35171364-.0589668.03250908-.1309916.03016305-.1877178-.00611446z"/><path d="m9.25920082 5.44011569c-.20936369-.12850434-.41987227-.25709675-.63152574-.38577723-.02340841-.01393589-.03744989-.03944155-.03670564-.06667405.00007909-.02712436.01515756-.05197914.03917784-.06457928.30572308-.1632599.34586339-.17882913.66109785-.34941128.05899173-.03279656.13119618-.030704.18818954.00545394.21025066.12868677.4196521.25597703.63005373.38460718.023243.01400458.0372166.03937455.0366302.06650421-.0000856.02703906-.0151296.05180979-.0390835.06435282-.30366607.16446769-.34303264.18196185-.66013541.35186462-.05904815.03224378-.1309614.02981437-.18769887-.00634093z"/><path d="m8.38013374 4.90266585c-.20933853-.12856725-.41976533-.25717853-.63128041-.38583385-.02353446-.01384941-.03768129-.03939612-.0369321-.06669292.00005372-.02718843.01524802-.05208293.03940431-.06456041.30572308-.16327877.34563692-.178848.66094687-.34956226.05901075-.03263399.13111479-.03052179.18811405.00551056.21047713.12883775.41963323.25607139.63003487.38475816.0233744.01384336.03740407.03927304.03664903.06642872-.00008403.02698796-.01502926.05173465-.0388759.06437169-.3038359.16446769-.3432402.181792-.66034297.35169477-.05898461.03243463-.13096889.03008991-.18771775-.00611446z"/><path d="m7.50114215 4.36514051c-.20933853-.1287308-.41979049-.25731692-.63135589-.38575836-.02355811-.01387285-.03766349-.03949991-.03678113-.06682502-.00005522-.02714413.01510635-.05202952.03925333-.06442831.30572308-.16333538.34586339-.17907446.66094687-.34963774.05903012-.03262131.13115256-.03045069.18811405.00566154.21047713.12878112.41980308.25592041.63005375.38460717.02334633.01391401.0373549.03935462.03663015.06652308-.00004371.02694103-.01500265.05164253-.03885702.0641641-.3038359.16469416-.34325908.18194298-.66013539.35184575-.05904111.03243781-.13107633.03007885-.18786872-.00615221z"/><path d="m6.62232041 3.82770954c-.20941402-.12881887-.41986598-.25751193-.6313559-.38607918-.02362716-.01375861-.03782905-.03934518-.03700759-.06667405.00012493-.02713094.01533665-.0519382.03946093-.06435282.30559097-.1632599.34573128-.17905559.66089025-.34956226.05900545-.03277377.13121016-.03065223.18818954.00552944.21040164.12861128.41963323.25590154.63003487.38466379.02335517.01386892.03737168.03929504.03663016.06644759-.00007321.02693276-.01502364.05162023-.03885703.0641641-.3038359.16452431-.34325908.18199959-.66026749.35192123-.05897435.03245169-.13095841.03012869-.18771774-.00605784z"/><path d="m5.74778256 3.30171487c-.20934482-.12874338-1.30332389-.80639179-1.51478235-.93504082-.02357682-.01379892-.03774001-.03936794-.03693211-.06667405.0001234-.02706948.01522804-.05184428.03923446-.06435282.30572308-.16327877.34588226-.17914995.66109785-.34956226.05900343-.03278205.13121266-.03066038.18818954.00552944.21026954.12859241 1.30307856.80493867 1.51332923.93370092.02343958.01382368.03748109.03932411.03663015.06652308.0000366.02698007-.01499145.05172424-.03893251.0641641-.30366605.16461867-.34303261.18186749-.66004103.35178913-.05900507.03244297-.131009.03011302-.18779323-.00607672z"/><path d="m18.0490978 10.8152369c-.2093385-.1285798-.4198408-.2571722-.6315068-.3857772-.0234404-.0139138-.0375138-.039425-.0367812-.0666741-.0000272-.0271223.0151284-.0519789.0392345-.0644094.3057231-.1634297 1.2585411-.66887302 1.5737756-.83937969.0589893-.03284018.1312302-.03071758.1881895.00552944.2104017.12861128.4195578.25590154.6300349.38468267.0234499.01380669.0375015.03930502.036649.0665042-.0000239.02697224-.0150333.051697-.0389514.0641641-.3036471.16446768-1.2558424.67183588-1.5729263.84149338-.0589662.03252-.1310001.0301664-.1877178-.0061334z"/><path d="m17.4096387 9.69524599c-.356011-.27574814-.7158349-.55472913-.8315078-.64398132-.025462-.01891286-.0407382-.05396479-.0398219-.09137293.0000276-.03713502.0163782-.07115148.042391-.08819182.3304214-.22373825.3737096-.24538533.7140609-.47905486.063733-.04501698.1417908-.0421079.20333.00757777l1.268916.98368794.0105213.00819847.004649.00349147.006117.0047846.0025487.00186211.038313.02976797.0016108.00121555.0061171.00468115.0346631.02694894.0039149.0028449.0130089.01034508.0063005.0047846.0183511.01409517.0027934.00217247.0105213.00827606.0412696.03217321.0032828.00240523.0105213.00819848.008625.00664671.0107048.00806916.0317677.02464716.0085435.00667258.0023244.00162935.0043024.00349146.0110922.00881919.0058315.00416389.0195541.015259.001672.00131899.0047101.00369837.0245905.01887977.0021613.00162935.0005505.00043967.0107048.00830193.000938.00116382h.0001835l.0009583.00064657h.0001632l.0011826.00118968.0011214.00098278.0009584.00106038.0011826.00108623.0010399.00098278h.0001631l.0010399.00077588.0008564.00137073h.0001631l.0007952.00106037h.0001428l.0007952.00126727h.0001631l.0009379.00098278h.0002651l.0007748.00137073h.0001631l.0007749.00108623h.0001631l.0007952.00126727h.0001427l.0010399.00098278.0007749.00137073.0007136.00126727h.0002447l.0006933.00106037.0010398.00129314.0007749.00147417.0006932.00126727h.0002447l.0006933.00116382.0007952.00126728h.0002447l.0005097.00178452h.0001631l.0005506.00095692.0006117.00157763h.0002447l.0006932.00126727.0007748.00157763.0005506.00137072h.0002447l.0005301.00147417.0007748.00126728.0002855.00157762h.0002447l.0006117.00157763.0002854.00144831h.0002447l.0005302.00126727.000367.00186211h.0001631l.000367.00147418h.0002447l.0002855.00155176.0006117.00126727h.0002446l.0001224.00175867h.0001631l.000367.00157762.000367.00144831h.0002447l.0002855.00157763.0002039.00175866h.0001631l.0004486.00157763.0002855.00155176.000367.00147417h.0002447v.00196557l.0001223.00155176h.0004894v.0017328l.0002039.00155176h.0001631l.0002039.00175867.0001223.00155176.0001224.00175866h.0002446v.00144832l.000102.00206901.0002039.00175867v.00175866h.0001631l.0001224.00144831v.00206902.00155176.0017328l.0002039.00178453v.0017328l-.0002855.00175866v.00206902.00142245l-.0002039.00206901v.00155177l-.0002243.0019397v.00144831l-.0002855.00186211-.0002039.00142245-.0002854.00204316h-.0001631v.00155176l-.0002039.00175866h-.0002447l-.0002039.00144831-.0002855.00183626-.0002039.00144831-.0004486.0017328h-.0006524l-.0002855.00142245-.0006933.00183625-.0001223.00144831-.0005302.0015259h-.0001631l-.0002854.00144831h-.0001632l-.0004485.0015259-.0002039.0015259h-.0001632l-.0005913.00142245-.0004689.00183625-.0004282.00142245h-.0002447l-.000367.00121555-.0008564.00183625-.0004486.00121555-.0005913.00142245h-.0002447l-.000367.00134486-.0006933.00150003h-.0002447l-.0005097.00142245h-.0002447l-.0006117.0015259-.0006933.00118969-.0007748.00152589-.0006729.00121555h-.0001223l-.0006117.00142245h-.0002447l-.0006729.00100865-.0010195.00150003-.0005913.00121555h-.0001631l-.0008564.001319-.000836.00118968-.0007748.00121555h-.0003466l-.000836.00121555-.000836.00121554h-.0001835l-.0005913.00100865h-.0002447l-.0007545.00121555-.0010195.00118968-.0010806.00118968-.0009991.00108624-.0010196.00121555h-.0001835l-.0008156.00059484h-.0001631l-.0008564.00129313h-.0001631l-.000836.00100865h-.0001631l-.0009991.00121555h-.0002447l-.0009991.00069829-.0012438.00095692-.0009991.00100864-.0011623.00067243-.0010806.00098279h-.0001632l-.0012437.00087933-.0009992.00077588-.0151702.01052612-.0009787.00036208-.0137633.0097761-.0030789.0019397-.0115204.00799158-.0063006.00426734-.0074627.00537945-.0113369.00726742-.0026507.00186211-.0131109.0093623-.004078.00258627-.0088697.00612946-.0116019.00775881-.0009991.00087933-.0804593.05493239-.0086862.00571565-.001672.00118969-.0104397.00708638-.0101951.00682775-.0021613.00144831-.0077075.00517254c-.4386316.2982746-1.1854186.8032439-1.4672912.9947055-.0637349.0445759-.1415879.0413607-.2029018-.0083796-.2262076-.1760905-.4536523-.3523103-.6823339-.5286595-.025336-.0190561-.040545-.0540257-.0397403-.0913729.0000676-.0371805.0164074-.0712378.0424114-.0883987.1682794-.1140804.5179083-.34943103.8654777-.58413507z"/><path d="m16.3248197 8.71295672c-.2092882-.12857983-.4197213-.25717224-.6312993-.38577723-.0235248-.01383184-.0376282-.03939734-.0367811-.06667405-.0000702-.02716612.0150516-.05209225.0391778-.06457929.3057231-.16325989.3457124-.17890461.6609469-.34941128.0590113-.03280866.1312572-.03063519.1881895.00566154.2104017.1285358.4195767.25582605.6300538.38443733.0233194.01390355.0373233.03930682.0366301.06644759-.0000756.02702497-.015046.0518063-.0389325.06444718-.3038359.16437334-.3431081.18186749-.6602108.35177026-.0590623.03228754-.1310176.02986492-.1877744-.00632205z"/><path d="m15.4457526 8.17543138c-.2092693-.12857353-6.57270645-4.0196923-6.78424039-4.14841682-.02345538-.01389928-.03753409-.03942009-.03680989-.06667405.00010129-.02708386.01522071-.0518829.03926322-.06435282.30587405-.1632599.34588225-.17913107.6611922-.34961887.05895545-.03281924.13116439-.03064515.18803857.00566154.21025066.12861128 6.57259319 4.01856 6.78284389 4.14709579.0234105.01380828.037453.03926118.0366818.06642872-.0000954.02703374-.0150784.05182403-.0389842.06444718-.3035716.16446769-.3429571.18194298-.6599655.35161928-.0590838.0324988-.1312014.03012456-.1880197-.00618995z"/><path d="m8.41397087 3.87526646c-.20936369-.12850434-.41979678-.2570653-.63129928-.38568287-.02348576-.01390579-.03763591-.03940635-.03700759-.06669292.00013647-.02718563.0153425-.0520517.03947979-.06456041.30572308-.16327877.34563693-.17892349.66094688-.34948677.05898349-.03272109.13112539-.03062949.18811405.00545395.21040164.12876225.4196521.25605251.63005374.38466379.02332831.01389492.03733535.03930388.03663016.06644759-.00016716.02697402-.01507678.05169546-.03885703.06442831-.3038359.1643922-.34325908.18186749-.66028636.35177025-.05905296.0323353-.13103729.02990447-.18777436-.00634092z"/><path d="m7.53513026 3.33783549c-.20935111-.12879371-.41985341-.25738612-.63150688-.38577723-.02345537-.01389929-.03753408-.0394201-.03678112-.06667405.00009383-.02714075.01520381-.05199956.03925333-.06457929.30572308-.16325989.34586338-.17890461.66094687-.34956225.05907483-.03265648.13125928-.03048574.18826503.00566154.21023179.12876225.41970872.25605251.63011036.3845883.02325285.01396999.03723865.03932734.03664902.06644759-.00011866.02703485-.01516206.05179258-.03910236.06435282-.30364718.16454318-.34301374.18181087-.66011651.35171364-.05897703.03249204-.13100204.03012427-.18771774-.00617107z"/><path d="m6.65608205 2.80031015c-.20933853-.12850434-.41976533-.25709046-.63128041-.38575836-.02351851-.01387392-.03768027-.03939542-.03700759-.06669292.00006648-.02718628.01529707-.0520634.0394798-.06448492.30572307-.16327877.34563692-.17892349.66094687-.34948677.05894261-.03277119.13108721-.03068591.18803856.00543508.21047713.12868677.41970872.25599589.63011036.38468266.02338641.0138317.03742034.03926909.03664903.06642872-.00016281.02696582-.01508553.05167523-.0388759.06437169-.3038359.16444882-.34324021.18194298-.66034298.35184575-.05903642.03232108-.13099694.02989032-.18771774-.00634093z"/><path d="m5.77724144 2.26287918c-.20935112-.12859241-.41985341-.25720998-.63150688-.38585272-.02351152-.0139269-.03762104-.03950899-.03685661-.06682502.00019007-.02709038.01530711-.05186694.03930995-.06442831.30572307-.1632599.34588225-.17899898.66096574-.34956226.0590818-.03262766.13125059-.03045739.18826503.00566154.21030728.12876226.41963323.25590154.62988389.3846638.02341841.01380758.0374573.03927431.03663016.06644758.00008866.02697793-.01490862.05174274-.03885703.06416411-.30366605.16469415-.34303261.18194297-.66011651.35184574-.05898263.03244289-.1309714.03009802-.18771774-.00611446z"/><path d="m1.2628439 4.35272287c-.12514516-.0769466-.25100746-.1538869-.37758687-.23082092-.01408476-.00829269-.02253864-.023595-.02206113-.03993272.00008612-.01614864.00913024-.03091441.02347651-.03832861.18288656-.09758606.20670277-.10713518.395232-.20919385.0353214-.01942329.07841573-.01807817.11245703.00351015l.37671877.22987734c.01395544.00824514.02232098.0234289.02183466.03963077.00005122.01617005-.00895608.03100731-.02332554.03842297-.18133907.09837867-.20502318.10883364-.39442051.21040164-.03526698.01948162-.07836498.01811309-.11232492-.00356677z"/><path d="m1.85092677 4.71168328c-.12520807-.07685853-.25109552-.15376738-.37766236-.23072656-.01402186-.0083446-.02245468-.02360158-.02206113-.03991385.00016123-.01616699.00921522-.03093052.023552-.0384041.18281108-.09756718.20670277-.10711631.395232-.209024.03525044-.01957308.07839219-.01825455.11238154.00343467l.3766999.22978297c.01400077.00826716.02240089.02349147.02192902.039744-.0000254.01615379-.00901937.03095712-.02334441.03842297-.18147118.09830318-.20515528.10875816-.39442051.21034503-.03526125.01952059-.07839104.01811458-.11230605-.00366113z"/><path d="m2.43876431 5.07109662c-.12520807-.07685853-.25109552-.15376739-.37766236-.23072657-.01400412-.00836177-.0224307-.02360747-.02206113-.03991384.00011089-.01618143.00917953-.03096884.023552-.03840411.18281108-.09766154.20670277-.10719179.395232-.20909948.03525043-.01957308.07839219-.01825456.11238154.00343466l.3766999.22978298c.01398873.00827884.02238458.02349542.02192902.039744-.00002173.01614968-.00900781.030952-.02332554.03842297-.18149005.09837867-.20517415.10883364-.39451487.21040164-.03523749.01950029-.07833159.01810174-.11223056-.00364225z"/><path d="m3.02667733 5.43028349c-.12505709-.07687111-.25086906-.15380513-.37743589-.23080205-.01410605-.00825359-.02257-.02355964-.02206113-.03989498.00012282-.01616221.00915118-.03093852.02347651-.03842297.18288656-.09756718.20670277-.10704082.395232-.209024.03528686-.01953259.07842795-.01821497.11245703.00343466l.37671877.22987734c.01400418.00819774.02238708.02341302.02183466.03963077.00005122.01617005-.00895608.03100731-.02332554.03842297-.18139569.09830318-.20509866.10875815-.39442051.21042051-.03532639.01948996-.07848446.01809239-.1124759-.00364225z"/><path d="m3.61451487 5.78969682c-.12505709-.0769466-.25086906-.15388061-.3774359-.23080205-.01406665-.00829197-.02251653-.0235726-.02206112-.03989498.00005104-.01618261.00910027-.03099308.02347651-.03842297.18288656-.09756718.20672164-.10711631.395232-.20909949.03529585-.01949541.07841671-.01817841.11245702.00343467l.37671877.22985846c.01401312.00824415.02239179.02349521.02183467.039744.0000663.01615503-.00894956.03097723-.02332554.03834749-.18139569.09845415-.20509866.10890913-.39442051.210496-.03532982.01948427-.07848796.01807946-.1124759-.00366113z"/><path d="m4.20259774 6.14888369c-.12513258-.0769466-.25099487-.15388061-.37758687-.23080205-.01406665-.00829197-.02251653-.02357259-.02206113-.03989497.00010607-.01616699.00913928-.03095126.02347652-.03842298.18288656-.09756718.20677825-.10711631.395232-.20909948.03529585-.01949542.07841671-.01817842.11245702.00343466l.3766999.22987734c.01398148.00828366.0223696.02349931.02191015.039744-.00002173.01614968-.00900781.03095199-.02332554.03842297-.18139569.09828431-.20507979.10873928-.39459035.21040164-.03525307.01941643-.07829926.01801196-.1122117-.00366113z"/><path d="m4.79043528 6.50822154c-.12514516-.0769466-.25100745-.15388062-.37758687-.23080205-.01406363-.00825823-.02251734-.02351685-.02206113-.03981949.00005104-.01618261.00910027-.03099309.02347651-.03842297.18288657-.09764267.20677826-.10711631.395232-.20917498.03531053-.01946852.07842941-.01812264.11245703.00351016l.37662441.22985846c.01399666.00822511.02242326.02340167.02200451.03963077-.00004708.01616345-.0090716.03096192-.02341989.0384041-.18132021.09837867-.20502318.10883364-.39442052.21042051-.035267.01947103-.07836021.01808794-.11230605-.00360451z"/><path d="m5.37846154 6.86744615c-.12506968-.07684594-.25093197-.1537548-.37758687-.23072656-.01405463-.00830366-.02250025-.02357656-.02206113-.03989497.00013068-.0161998.00918848-.03100582.023552-.03849847.18288656-.09756718.20662728-.1071163.395232-.209024.03527983-.0195616.07843674-.0182435.11245702.00343467l.37664329.22980185c.014007.00825009.02238349.02349718.02183466.039744.00004421.01614753-.00892516.0309703-.02325005.03842297-.18147118.0983598-.20517415.10881477-.39442051.21040164-.03529044.01953742-.07845618.01813141-.11240041-.00366113z"/><path d="m5.96626133 7.22659528c-.12504451-.07692143-.2509068-.15377996-.37758687-.23057559-.01399168-.00833811-.02235303-.02361546-.02183467-.03989497-.00011113-.01624949.00891021-.03118539.02334442-.03864944.18281107-.09756718.20683487-.10681436.39521312-.20887302.03525946-.01957815.07840002-.01831847.11245703.00328369.12581826.07695918.25099487.15286154.37664328.22980184.01402507.00830589.02239817.02360471.02183467.03989498.00000142.0160947-.0088841.03087487-.02309908.03842297-.18162215.0983598-.20532513.10858831-.39466585.21025067-.03528423.01942498-.07836187.01802067-.11230605-.00366113z"/><path d="m6.55432533 7.58600862c-.12519548-.07692144-.25105148-.15385546-.377568-.23080206-.01408174-.00827727-.022537-.02356762-.02206112-.03989497.00005806-.01617582.00910627-.03097735.02347651-.0384041.1827922-.09758605.20670277-.10713518.395232-.20911836.03526467-.01948683.07835406-.01816969.11236266.00343466l.37679426.22987734c.01397356.0082825.02233821.02350803.02183467.039744.00002288.01614293-.00898028.03094423-.02332554.03834749-.18139569.09845415-.20509867.10883364-.39442051.21047712-.03528113.01946565-.07838627.01806068-.11232493-.00366112z"/><path d="m7.14218174 7.94519549c-.12520806-.07692144-.25107036-.15380513-.37758687-.23065108-.01405409-.00828651-.02245818-.02358905-.02191015-.03989497-.00008355-.01621269.00892594-.03110459.02332554-.03855508.18281107-.09758605.20692923-.10688985.395232-.20896739.03525313-.01949461.07832681-.01823603.11238153.0032837.12587488.07695918.25099488.15286154.37679426.22987733.01395738.00836895.02230155.02362808.0218158.03989497-.000039.01606411-.00891695.03080268-.02309908.03834749-.18162215.09843528-.20530626.1086638-.39472246.21032616-.03525692.01942807-.07831481.01802346-.11223057-.00366113z"/><path d="m7.73017026 8.30455221c-.12514517-.0769466-.25100746-.15388062-.37758688-.23080206-.01403959-.00829081-.02248351-.02353899-.02206112-.03983836.00007267-.01619233.00915249-.03099795.023552-.0384041.18281107-.09766154.20670277-.10719179.39515651-.20919384.03531449-.01945205.07842442-.01810645.11245702.00351015l.37671877.22980185c.01398265.0082737.02235051.02350508.02183467.039744.00004852.01614872-.00892211.03097355-.02325005.03842297-.18149005.09837867-.20517415.10883364-.39459036.21040164-.03525647.01942134-.07830753.01802419-.11223056-.00364225z"/><path d="m8.31800779 8.66373908c-.12512-.07687111-.25098229-.1537611-.37758687-.23066995-.01398754-.00831436-.02237296-.02355401-.02191015-.03981949-.00005206-.01622838.00895314-.03113028.02334441-.03863056.18286769-.09758605.20691036-.10688985.39521313-.20896739.03528417-.01950995.07840028-.01822204.11245702.00335918.12589375.07688369.25099488.15286154.37671877.22980185.01399168.00833811.02235303.02361546.02183467.03989497.00000771.01611689-.00891533.03091111-.02317456.03842298-.18154667.09837866-.20524965.10860718-.39466585.21025066-.03523749.01950029-.07833159.01810174-.11223057-.00364225z"/><path d="m8.90599631 9.02307692c-.12504452-.07687111-.25090681-.15377996-.37758687-.23072656-.0140474-.00831761-.02248407-.02359463-.02204226-.03991385.00011303-.01616019.00914524-.03093555.02347651-.0384041.18294318-.09764267.20677826-.10711631.39528862-.20909949.03528686-.01953258.07842795-.01821497.11245702.00343467l.37664329.22985846c.01396638.0082434.02235644.02341922.02191015.03963077.00001936.01618179-.00901455.03101488-.02340103.03842297-.1813202.09837867-.20502318.10883365-.39442051.21042052-.03526826.01950195-.07838687.01811103-.11232492-.00362339z"/><path d="m9.49385272 9.38233928c-.1250571-.0769466-.25091939-.15383029-.37758687-.23065107-.01401593-.00831472-.02238581-.02360765-.02183467-.03989498-.00011827-.01620649.0088644-.03110954.02325005-.03857395.18305641-.09756718.20691036-.10688984.39530749-.20894851.03525114-.01950283.07832928-.01824412.11238154.00328369.12587487.07695918.25099487.15286154.37669994.22985846.0139918.00831246.0223838.02355111.021929.03981949-.0000644.01612121-.0089717.03090636-.0231935.03849846-.18154662.09830318-.20523073.10860718-.3946658.21025067-.03527597.01942317-.0783441.01802617-.11228718-.00364226z"/><path d="m10.0819167 9.74162051c-.12514514-.0769466-.25100744-.15388061-.37758685-.23080205-.01405464-.00830366-.02250025-.02357656-.02206113-.03989497.00007911-.01615544.00912425-.03093014.02347651-.03834749.18281108-.09764267.20670277-.10711631.39523197-.20917497.0353106-.01946852.0784294-.01812264.1124571.00351015l.3766244.22985846c.0139947.00821801.0224.02340835.021929.03963077.0000014.01613691-.0089955.0309279-.0233255.03834749-.1814146.09845415-.2050987.10890913-.3944206.210496-.0352772.01946456-.0783754.0180743-.1123249-.00362339z"/><path d="m10.6697543 10.100864c-.1251955-.0769466-.2510578-.15383029-.3775869-.23065108-.0140389-.00830126-.0224376-.02359397-.0219102-.03989497-.0001014-.0162032.0089164-.03108699.0233256-.03849846.182811-.09764267.2068537-.10696534.395232-.20894852.0352594-.01957814.0784-.01831846.112457.0032837.1258183.07688369.2509949.15286154.3766433.22978297.0139876.00835078.0223683.02361064.0219101.03989498-.0000664.01608064-.0089316.03083424-.023099.03844184-.1816411.0983598-.2053252.10866384-.3947414.21025064-.0352619.0194074-.0783085.0180032-.1122305-.0036611z"/><path d="m11.2577616 10.4600509c-.1251325-.0768711-.2510011-.1537548-.3776057-.2306511-.014016-.008278-.0223908-.023551-.0218347-.0398195-.0000937-.0162447.0089226-.0311722.0233444-.0386494.1828111-.0975672.2068538-.1068899.3951377-.20894854.0352812-.01952232.078404-.01823421.112457.00335918l.3767188.22980186c.0140038.0083173.0223706.0235974.0218346.0398761.0000085.0161015-.0088781.0308906-.023099.0384418-.1816222.0983598-.2053252.1085883-.3947414.2102507-.035253.0194164-.0782992.018012-.1122117-.0036611z"/><path d="m11.8455992 10.8193887c-.1251452-.0768711-.2510138-.1537296-.3776058-.2305756-.0140086-.0083195-.0223708-.0236115-.0218158-.0398949-.0001168-.0162267.0089014-.0311403.0233256-.038574.1828111-.0976427.2068537-.1069653.3951376-.208873.0352415-.0196458.0784116-.0184144.1124759.0032082.1258749.0769592.2509949.1528615.3766999.2298773.014019.0083026.0223912.0235925.0218347.0398761-.0000292.016091-.008905.0308623-.0230991.0384419-.1816221.0982843-.2053251.1085883-.3947413.2101751-.0352351.0194913-.0783221.0180855-.1122117-.0036611z"/><path d="m12.4335877 11.1786511c-.1251452-.076934-.2510075-.1538177-.3775869-.2306511-.0139947-.0083352-.0223571-.0236145-.0218346-.039895-.0000775-.0162145.0088893-.0311203.02325-.0386494.1828866-.0975672.2070047-.1067955.395232-.208873.0352585-.0195823.0784013-.0183226.112457.0032837.1258938.0769591.2509949.1528615.3767188.2298773.0139816.0083201.0223649.023556.0219102.0398195-.0000511.0161005-.0089573.0308668-.0231746.038423-.1815655.0983597-.2052497.1086637-.3947413.2103261-.035257.0194281-.0783148.0180235-.1122306-.0036611z"/><path d="m13.0214252 11.5379889c-.1251451-.0769466-.2510074-.1538051-.3775868-.2305756-.0140099-.0083571-.0223727-.0236662-.0218347-.0399704-.0001183-.0162065.0088644-.0311096.02325-.038574.1828866-.0975672.2070048-.106871.395232-.208873.0352585-.0195823.0784013-.0183225.1124571.0032837.1258937.0769592.2509948.1528615.3767187.2298773.0139876.0083144.022373.023554.0219102.0398195-.0000677.0160958-.0089691.0308543-.0231746.038423-.1815655.0983598-.2052496.1086638-.3947413.2102507-.0352599.0194156-.078311.0180112-.1122306-.0036612z"/><path d="m13.6095081 11.8971758c-.1251452-.0769214-.2510389-.1538051-.3776812-.2306511-.0139754-.0083516-.0223259-.0236222-.0218158-.039895-.0000923-.016215.0089198-.0311111.0233255-.038555.1828866-.0975861.2068349-.1068899.3952131-.2089674.0352795-.0194958.0783753-.0182374.1124571.0032837.1258182.0769592.2509948.1528615.3766433.2298773.0140237.0083159.022417.0235989.0219101.039895-.000051.0161005-.0089572.0308668-.0231746.038423-.1815466.0983786-.2052496.1086826-.3946658.2102506-.0352511.0194247-.0783018.0180201-.1122117-.0036611z"/><path d="m14.1973456 12.2565136c-.1251451-.0769214-.2510389-.1537799-.3776812-.2305755-.0139616-.0083671-.0223125-.0236252-.0218347-.039895-.0000913-.0162248.0089284-.0311289.0233445-.038574.1828865-.0975672.2068348-.1069464.3952131-.2089485.0352661-.0195844.0784227-.0182952.112457.0033592.1258183.0768837.2509949.1528615.3766433.2298018.0140358.0083042.0224334.023595.0219101.039895-.0000759.0160935-.008975.030848-.0231745.038423-.1816222.0983598-.2052497.1085883-.3946659.2101752-.035251.0194247-.0783017.0180201-.1122117-.0036612z"/><path d="m14.7853342 12.6157949c-.1251452-.0768711-.2510138-.153736-.3776058-.2305945-.0140008-.0082836-.0223714-.0235417-.0218347-.0398006-.0001475-.0162389.0088485-.0311812.023269-.0386494.1828865-.0975861.2069103-.1068899.3952886-.2089674.0352598-.0195006.0783494-.0182126.1123815.0033592l.3767188.2298018c.0140068.0083235.0223735.0236106.0218347.039895.0000224.0161005-.0088691.0308907-.0230991.0384229-.1816222.0983787-.2053251.1086072-.3946659.2101752-.035258.0194979-.0783668.0180996-.1122871-.0036422z"/></g><path d="m35.5398925 46.3958482c-.017664-.6023499-3.0138256-2.1520829-1.5331446-2.1207934 2.7448459.058729 7.547095-2.611479 10.895008-3.6396333 2.1372874-.8694047 2.8067643 1.4725662 3.4531233 3.4239098-3.079273 3.2489493-8.316649 2.1404578-12.8149867 2.3365169z" fill="#f2f2f2"/><path d="m35.9804168 46.5406515c.4832312-.2325383 1.5962897-2.6418437.8144689-2.7359385-.6848385-.0070769-4.2162231-.5602281-4.4004685-.5828742-.279518-.0349749-.5609281-.0526662-.8426256-.0529732-.4705917.039869-.9199501.2135565-1.2950203.5005555-.6454154.4292579-1.1601059.829925-1.7749678 1.2729781-.2069057.163103-.4220372.3154915-.6445473.4565653-.1271325.0875454-.2379487.1966819-.3274256.3224624.0651831.1063237.1190055.3580734.7524373.1638826-.0862252.0611635-.9135458.4131602-.6921231.6403012.3108185.3170461 1.3336698-.0631073 1.3336698-.0631073-.2342368.1359901-.6419996.3695475-.6362815.4966113.0071524.1599007.4256722.3321436.8269055.1727335.231104-.0702408 1.0202847-.4651331 1.2557858-.5497731.3854818-.1403465.7930885-.210122 1.2033034-.2059857-.2036644.0787332-.4161986.1753379-.6629473.2787364-.5757218.240238-1.315817.4103106-1.1536894.6399615.4027241.5715889 2.2423089-.2231024 3.5069267-.4448837.9170769-.0540341 1.8305913-.1572667 2.736599-.3092521z" fill="#0c0a1d"/><path d="m21.103479 41.7699561c.1357692-.6987897.3814662-1.3716362.7279417-1.9934843.269225-.457207.5651914-.8652341.8387381-1.2840558.1764123-.213959.3955366-.3887455.6433583-.5131807 1.6592648-.5342605 2.3107947.4639442 2.3107947.4639442.2614985 1.2509226.0985375 2.5533225-.4631139 3.7012496.2867932.850689.4103668 1.7478841.3642257 2.6444292-.0181735.157504-.0159844.5362986-.1717333.5960845-.5258249.2042117-.7490405-1.5670195-1.0285129-2.1185477-.1033419.0806769-.8322461 1.246482-.9505345 1.3132882-.3594169.5823517-.5958378 1.2321047-.6947085 1.9092595-.0732415.2616385-.2431254 1.2873395-.6199196 1.2774695-.1731476-.0293525-.3186363-.1465023-.3842486-.3094031-.0921898.219985-.3063035.3641367-.5448099.3667922-.4640933-1.1823702-.7173167-2.4369453-.7481723-3.7067602-.0409947-.8424883.2139555-1.6727838.720695-2.3470851z" fill="#0c0a1d" fill-rule="nonzero"/><path d="m11.516777 44.689536c-.0116505.2676747.1227092.5206321.3510154.6608525l14.9075102 9.559017c.2040607.0551623.8848984.1845473.7498707-.4076307l-2.7203315-11.9401846c-.0995298-.4376181-.1000205-.7675914-.4833821-1.003319l-15.04376452-9.2071147c-.50512246-.3262744-.67470441.1843963-.73469785.5570765z" fill="url(#t)"/><path d="m27.1621744 54.5551253-2.7501867-12.0448098c-.0199495-.2568108-.1478891-.493109-.3520345-.65019l-14.97318397-9.1538207c-.11119649-.0680351-.25007286-.0722249-.36516853-.0110169-.11509567.0612081-.18926395.1786954-.19502183.3089271l2.59383383 11.8971758c.0170672.260338.1448521.5008898.3510154.660777l15.1776222 9.2976804c.2191204.1341785.5813267-.0054728.5131241-.3047229z" fill="url(#u)"/><path d="m16.5640952 41.3369616c.9637708.5950327 1.5940938 1.6062735 1.7038966 2.7335984.1280263.9761436-.5897813 1.2707134-1.1401017.9375319-.8695888-.4947148-1.4335369-1.3921485-1.5020439-2.3902638-.1813957-1.1564636.1716201-1.757417.938249-1.2808665z" fill="#ccc"/></g><circle cx="64" cy="37.333333" fill="url(#v)" fill-opacity=".24" r="29.333333"/></g></svg>