<?xml version="1.0" encoding="utf-8"?>
<!-- Generator: Adobe Illustrator 25.0.0, SVG Export Plug-In . SVG Version: 6.00 Build 0)  -->
<svg version="1.1" id="illustration" xmlns="http://www.w3.org/2000/svg" xmlns:xlink="http://www.w3.org/1999/xlink" x="0px"
	 y="0px" viewBox="0 0 600 400" style="enable-background:new 0 0 600 400;" xml:space="preserve">
<style type="text/css">
	.st0{clip-path:url(#SVGID_2_);}
	.st1{fill:url(#SVGID_3_);}
	.st2{fill:url(#SVGID_4_);}
	.st3{fill:#E5E2FF;}
	.st4{fill:url(#SVGID_5_);}
	.st5{opacity:0.62;fill:url(#SVGID_6_);}
	.st6{opacity:0.62;fill:url(#SVGID_7_);}
	.st7{opacity:0.5;fill:url(#SVGID_8_);}
	.st8{fill:#FFFFFF;}
	.st9{fill:url(#SVGID_9_);}
	.st10{opacity:0.5;fill:url(#SVGID_10_);}
	.st11{opacity:0.5;fill:url(#SVGID_11_);}
	.st12{fill:url(#SVGID_12_);}
	.st13{fill:url(#SVGID_13_);}
	.st14{opacity:0.76;fill:url(#SVGID_14_);}
	.st15{opacity:0.76;fill:url(#SVGID_15_);}
	.st16{opacity:0.76;fill:url(#SVGID_16_);}
	.st17{fill:#FE9083;}
	.st18{fill:url(#SVGID_17_);}
	.st19{opacity:0.5;fill:url(#SVGID_18_);}
	.st20{fill:url(#SVGID_19_);}
	.st21{opacity:0.5;fill:url(#SVGID_20_);}
	.st22{fill:url(#SVGID_21_);}
	.st23{fill:url(#SVGID_22_);}
	.st24{fill:#CB4D7A;}
	.st25{fill:#EE8183;}
	.st26{fill:url(#SVGID_23_);}
	.st27{opacity:0.6;fill:url(#SVGID_24_);}
	.st28{fill:url(#SVGID_25_);}
	.st29{fill:#E28183;}
	.st30{opacity:0.91;fill:url(#SVGID_26_);}
	.st31{fill:url(#SVGID_27_);}
	.st32{opacity:0.6;fill:url(#SVGID_28_);}
	.st33{fill:url(#SVGID_29_);}
	.st34{fill:url(#SVGID_30_);}
	.st35{opacity:0.91;fill:url(#SVGID_31_);}
	.st36{opacity:0.5;fill:url(#SVGID_32_);}
	.st37{opacity:0.5;fill:url(#SVGID_33_);}
	.st38{opacity:0.5;fill:url(#SVGID_34_);}
	.st39{opacity:0.5;fill:url(#SVGID_35_);}
	.st40{opacity:0.5;fill:url(#SVGID_36_);}
	.st41{opacity:0.5;fill:url(#SVGID_37_);}
	.st42{opacity:0.5;fill:url(#SVGID_38_);}
	.st43{opacity:0.5;fill:url(#SVGID_39_);}
	.st44{opacity:0.5;fill:url(#SVGID_40_);}
	.st45{opacity:0.76;fill:url(#SVGID_41_);}
	.st46{opacity:0.5;fill:url(#SVGID_42_);}
	.st47{opacity:0.3;fill:url(#SVGID_43_);}
	.st48{opacity:0.5;fill:url(#SVGID_44_);}
	.st49{opacity:0.5;fill:url(#SVGID_45_);}
	.st50{opacity:0.5;fill:url(#SVGID_46_);}
	.st51{opacity:0.5;fill:url(#SVGID_47_);}
	.st52{fill:url(#SVGID_48_);}
	.st53{opacity:0.5;fill:url(#SVGID_49_);}
	.st54{opacity:0.3;fill:url(#SVGID_50_);}
	.st55{opacity:0.5;fill:url(#SVGID_51_);}
	.st56{opacity:0.5;fill:url(#SVGID_52_);}
	.st57{opacity:0.5;fill:url(#SVGID_53_);}
	.st58{opacity:0.5;fill:#7A4AC0;}
	.st59{fill:url(#SVGID_54_);}
	.st60{fill:url(#SVGID_55_);}
	.st61{fill:url(#SVGID_56_);}
	.st62{opacity:0.6;fill:url(#SVGID_57_);}
	.st63{fill:#38368E;}
	.st64{fill:url(#SVGID_58_);}
	.st65{fill:url(#SVGID_59_);}
	.st66{fill:#FFEBED;}
	.st67{fill:#7F9EC9;}
	.st68{fill:#131163;}
	.st69{fill:#C6659C;}
	.st70{fill:#CB5F7D;}
	.st71{fill:#9F4A8B;}
	.st72{fill:#FFBCAF;}
	.st73{opacity:0.6;fill:url(#SVGID_60_);}
	.st74{fill:url(#SVGID_61_);}
	.st75{fill:#D2726C;}
	.st76{opacity:0.6;fill:url(#SVGID_62_);}
	.st77{opacity:0.6;fill:url(#SVGID_63_);}
	.st78{opacity:0.5;fill:url(#SVGID_64_);}
	.st79{fill:url(#SVGID_65_);}
	.st80{fill:url(#SVGID_66_);}
	.st81{fill:url(#SVGID_67_);}
	.st82{opacity:0.8;fill:url(#SVGID_68_);}
	.st83{opacity:0.8;fill:url(#SVGID_69_);}
	.st84{fill:#34C7FF;}
	.st85{fill:url(#SVGID_70_);}
	.st86{fill:url(#SVGID_71_);}
	.st87{fill:url(#SVGID_72_);}
	.st88{opacity:0.6;fill:#36D1F7;}
	.st89{fill:#744CA2;}
	.st90{opacity:0.6;fill:url(#SVGID_73_);}
	.st91{opacity:0.3;fill:url(#SVGID_74_);}
	.st92{opacity:0.3;fill:url(#SVGID_75_);}
	.st93{opacity:0.3;fill:url(#SVGID_76_);}
	.st94{opacity:0.3;fill:url(#SVGID_77_);}
	.st95{fill:#D1D4FB;}
	.st96{fill:#E0FFFF;}
	.st97{fill:url(#SVGID_78_);}
	.st98{fill:url(#SVGID_79_);}
	.st99{opacity:0.81;fill:url(#SVGID_80_);}
	.st100{fill:#473DA2;}
	.st101{fill:url(#SVGID_81_);}
	.st102{fill:url(#SVGID_82_);}
	.st103{fill:url(#SVGID_83_);}
	.st104{fill:url(#SVGID_84_);}
	.st105{fill:url(#SVGID_85_);}
	.st106{fill:url(#SVGID_86_);}
	.st107{opacity:0.73;fill:url(#SVGID_87_);}
	.st108{fill:#953DA2;}
	.st109{opacity:0.73;fill:url(#SVGID_88_);}
	.st110{fill-rule:evenodd;clip-rule:evenodd;fill:url(#SVGID_89_);}
	.st111{fill-rule:evenodd;clip-rule:evenodd;fill:url(#SVGID_90_);}
	.st112{fill-rule:evenodd;clip-rule:evenodd;fill:url(#SVGID_91_);}
	.st113{opacity:0.5;fill-rule:evenodd;clip-rule:evenodd;fill:#601734;}
	.st114{fill-rule:evenodd;clip-rule:evenodd;fill:#B3D9FF;}
	.st115{fill:#FF1D9C;}
	.st116{fill:#6877FF;}
	.st117{fill:#4F31E0;}
	.st118{fill-rule:evenodd;clip-rule:evenodd;fill:url(#SVGID_92_);}
	.st119{fill-rule:evenodd;clip-rule:evenodd;fill:url(#SVGID_93_);}
	.st120{fill-rule:evenodd;clip-rule:evenodd;fill:url(#SVGID_94_);}
	.st121{fill-rule:evenodd;clip-rule:evenodd;fill:url(#SVGID_95_);}
</style>
<g>
	<defs>
		<rect id="SVGID_1_" x="-11.66" y="-10.96" width="600" height="400"/>
	</defs>
	<clipPath id="SVGID_2_">
		<use xlink:href="#SVGID_1_"  style="overflow:visible;"/>
	</clipPath>
	<g class="st0">
		<g>
			
				<linearGradient id="SVGID_3_" gradientUnits="userSpaceOnUse" x1="145.3249" y1="269.6271" x2="145.3249" y2="198.4382" gradientTransform="matrix(0.906 -0.4233 0.4233 0.906 -75.0515 53.7421)">
				<stop  offset="0" style="stop-color:#DBCCFF"/>
				<stop  offset="1" style="stop-color:#D1BBFF"/>
			</linearGradient>
			<path class="st1" d="M157.71,178.24c-3.81-6.56-10.55-9.26-10.55-9.26l-2.35,1.1l5.29,9.6c-0.71,3.69-3.24,5.72-3.24,5.72
				l-0.01-0.02c0,0-3.18,0.64-6.47-1.19l-3.97-10.22l-2.35,1.1c0,0-2.25,6.9,0.33,14.04c0,0,1,2.31,1.18,2.52
				c0.93,1.09,3.36,2.34,8.06,2.05l16.2,30.91c-1.35,2.32-1.58,5.23-0.36,7.83c1.98,4.24,7.02,6.07,11.26,4.09
				c4.24-1.98,6.07-7.02,4.09-11.26c-1.22-2.61-3.6-4.3-6.24-4.75l-13.31-32.25c3.17-3.34,3.84-5.97,3.6-7.49
				C158.83,180.43,157.71,178.24,157.71,178.24z M171.04,231.55l-4.29,2.01l-3.88-2.71l0.41-4.72l4.29-2.01l3.88,2.71L171.04,231.55
				z"/>
			
				<linearGradient id="SVGID_4_" gradientUnits="userSpaceOnUse" x1="145.3207" y1="272.4044" x2="145.3207" y2="201.2154" gradientTransform="matrix(0.906 -0.4233 0.4233 0.906 -75.0515 53.7421)">
				<stop  offset="0" style="stop-color:#B5A6E7"/>
				<stop  offset="1" style="stop-color:#7760BF"/>
			</linearGradient>
			<path class="st2" d="M158.89,180.75c-3.81-6.56-10.55-9.26-10.55-9.26l-2.35,1.1l5.29,9.6c-0.71,3.69-3.24,5.72-3.24,5.72
				l-0.01-0.02c0,0-3.18,0.64-6.47-1.19l-3.97-10.22l-2.35,1.1c0,0-2.25,6.9,0.33,14.04c0,0,3.66,4.91,9.23,4.57l16.2,30.91
				c-1.35,2.32-1.58,5.23-0.36,7.83c1.98,4.24,7.02,6.07,11.26,4.09c4.24-1.98,6.07-7.02,4.09-11.26c-1.22-2.61-3.6-4.3-6.24-4.75
				l-13.31-32.25C160.3,186.71,158.89,180.75,158.89,180.75z M172.21,234.06l-4.29,2.01l-3.88-2.71l0.41-4.72l4.29-2.01l3.88,2.71
				L172.21,234.06z"/>
			
				<rect x="134.53" y="174.39" transform="matrix(0.906 -0.4233 0.4233 0.906 -61.6363 74.0201)" class="st3" width="2.59" height="2.78"/>
			
				<rect x="145.27" y="169.39" transform="matrix(0.906 -0.4233 0.4233 0.906 -58.5125 78.0986)" class="st3" width="2.59" height="2.78"/>
			
				<rect x="167.11" y="232.42" transform="matrix(0.906 -0.4233 0.4233 0.906 -83.0362 93.7179)" class="st3" width="4.74" height="2.78"/>
			<g>
				
					<linearGradient id="SVGID_5_" gradientUnits="userSpaceOnUse" x1="145.3206" y1="254.7059" x2="145.3206" y2="224.6985" gradientTransform="matrix(0.906 -0.4233 0.4233 0.906 -75.0515 53.7421)">
					<stop  offset="0" style="stop-color:#B5A6E7"/>
					<stop  offset="1" style="stop-color:#7760BF"/>
				</linearGradient>
				<path class="st4" d="M148.28,198.49l13.09,25.15c3.44,0.16,5.28-2.47,5.28-2.47l-10.65-26.29
					C151.21,194.7,148.28,198.49,148.28,198.49z M165.64,221.38c-0.38,0.33-0.96,0.77-1.69,1.11c-0.58,0.27-1.19,0.45-1.81,0.54
					l-13.11-24.63c0.64-0.57,1.74-1.41,3.15-2.07c1.06-0.49,2.14-0.81,3.24-0.96L165.64,221.38z"/>
				<path class="st3" d="M165.64,221.38l1.01-0.21c0,0-1.5,2.66-5.28,2.47l0.77-0.61C162.14,223.02,164,222.81,165.64,221.38z"/>
				
					<linearGradient id="SVGID_6_" gradientUnits="userSpaceOnUse" x1="141.0622" y1="225.2991" x2="149.579" y2="225.2991" gradientTransform="matrix(0.906 -0.4233 0.4233 0.906 -75.0515 53.7421)">
					<stop  offset="0" style="stop-color:#8B8BE0"/>
					<stop  offset="1" style="stop-color:#A177B7"/>
				</linearGradient>
				<path class="st5" d="M148.28,198.49l0.75-0.1c0,0,2.24-2.32,6.39-3.02l0.57-0.48c0,0-1.67-0.29-4.27,0.92
					C149.12,197.02,148.28,198.49,148.28,198.49z"/>
			</g>
			
				<linearGradient id="SVGID_7_" gradientUnits="userSpaceOnUse" x1="145.3206" y1="227.2762" x2="145.3206" y2="222.1207" gradientTransform="matrix(0.906 -0.4233 0.4233 0.906 -75.0515 53.7421)">
				<stop  offset="0" style="stop-color:#FFFFFF"/>
				<stop  offset="1" style="stop-color:#A177B7"/>
			</linearGradient>
			<path class="st6" d="M144.81,196.19c0,0,6.29-1.12,11.66-5.43l1.7,4.12c0,0-1.93-1.91-6.17-0.18c-4.95,2.02-4.68,6-4.68,6
				L144.81,196.19z"/>
			
				<linearGradient id="SVGID_8_" gradientUnits="userSpaceOnUse" x1="149.8249" y1="257.7691" x2="149.8249" y2="224.6887" gradientTransform="matrix(0.906 -0.4233 0.4233 0.906 -75.0515 53.7421)">
				<stop  offset="0" style="stop-color:#000000"/>
				<stop  offset="1" style="stop-color:#FFFFFF"/>
			</linearGradient>
			<path class="st7" d="M158.17,194.89c-1.21-0.87-2.59-0.89-2.59-0.89l12.67,30.6l1.53-1.58L158.17,194.89z"/>
			<path class="st8" d="M158.17,194.89c0,0-1.33,4.09,2.49,6.03L158.17,194.89z"/>
		</g>
		<g>
			<linearGradient id="SVGID_9_" gradientUnits="userSpaceOnUse" x1="282.9124" y1="392.6272" x2="282.9124" y2="303.4172">
				<stop  offset="0" style="stop-color:#6456C0"/>
				<stop  offset="1" style="stop-color:#5F2C95"/>
			</linearGradient>
			<path class="st9" d="M348.84,392.63h-47c-4.92-27.32-16.36-62.87-16.36-62.87c-2.78-1.65-8.21,0.38-8.21,0.38l-17.18,62.49
				h-42.94c-2.28-38.56,18.82-82.33,18.82-82.33l-0.01-0.01c-0.07-0.15-0.74-1.49-0.56-2.39c0.07-0.39,0.79-1.13,1.6-1.86
				c1.16-1.06,2.54-2.12,2.54-2.12l80.11-0.5c0,0,0.81,0.41,1.84,1.03h0.01c1.75,1.06,4.12,2.7,4.12,3.9c0,1.65-0.65,2.72-0.81,2.96
				l-0.04,0.05C341.95,343.77,348.84,392.63,348.84,392.63z"/>
			
				<radialGradient id="SVGID_10_" cx="233.8384" cy="364.1146" r="27.0277" gradientTransform="matrix(0.6462 0.1491 -0.3852 1.6696 228.6228 -282.2475)" gradientUnits="userSpaceOnUse">
				<stop  offset="0" style="stop-color:#4B474B"/>
				<stop  offset="1" style="stop-color:#000000"/>
			</radialGradient>
			<path class="st10" d="M256.94,364.57c-5.75,24.92-18.23,43.32-27.88,41.1s-12.8-24.23-7.05-49.15
				c5.75-24.92,18.23-43.32,27.88-41.1S262.69,339.65,256.94,364.57z"/>
			
				<radialGradient id="SVGID_11_" cx="358.1221" cy="349.0777" r="27.0272" gradientTransform="matrix(0.6386 -0.179 0.4623 1.6499 -67.4027 -151.7454)" gradientUnits="userSpaceOnUse">
				<stop  offset="0" style="stop-color:#4B474B"/>
				<stop  offset="1" style="stop-color:#000000"/>
			</radialGradient>
			<path class="st11" d="M339.93,355.26c6.9,24.63,4.77,46.76-4.76,49.43c-9.53,2.67-22.85-15.13-29.76-39.76
				c-6.9-24.63-4.77-46.76,4.76-49.43C319.71,312.83,333.03,330.63,339.93,355.26z"/>
			<g>
				<linearGradient id="SVGID_12_" gradientUnits="userSpaceOnUse" x1="254.0399" y1="361.3088" x2="277.4374" y2="361.3088">
					<stop  offset="0" style="stop-color:#9E8CEF"/>
					<stop  offset="1" style="stop-color:#CAAFEE"/>
				</linearGradient>
				<path class="st12" d="M254.53,392.67l-0.49-0.08c5.47-32.2,19.34-59.2,19.48-59.47l0.06-0.07l3.53-3.09l0.33,0.38l-3.5,3.06
					C273.32,334.6,259.88,361.14,254.53,392.67z"/>
			</g>
			<g>
				
					<linearGradient id="SVGID_13_" gradientUnits="userSpaceOnUse" x1="338.9134" y1="361.3098" x2="362.3128" y2="361.3098" gradientTransform="matrix(-1 0 0 1 647.6286 0)">
					<stop  offset="0" style="stop-color:#9E8CEF"/>
					<stop  offset="1" style="stop-color:#CAAFEE"/>
				</linearGradient>
				<path class="st13" d="M308.22,392.67c-5.36-31.55-19.16-58.35-19.78-59.54l-3.13-2.81l0.33-0.37l3.22,2.91
					c0.14,0.27,14.38,27.53,19.85,59.73L308.22,392.67z"/>
			</g>
			<linearGradient id="SVGID_14_" gradientUnits="userSpaceOnUse" x1="279.7727" y1="392.6272" x2="279.7727" y2="303.4172">
				<stop  offset="0" style="stop-color:#CCCCFF"/>
				<stop  offset="1" style="stop-color:#755CBB"/>
			</linearGradient>
			<path class="st14" d="M325.62,308.35c0,1.65-0.65,2.72-0.81,2.96l-0.04,0.05c-16.68,3.77-29.37,19.34-29.37,19.34
				c9.09,17.44,24.25,61.93,24.25,61.93h-17.81c-4.92-27.32-16.36-62.87-16.36-62.87c-2.78-1.65-8.21,0.38-8.21,0.38l-17.18,62.49
				h-11.12c3.98-26.18,15.73-58.14,15.73-58.14c-11.55-13.45-28.73-24.19-28.73-24.19l-0.01-0.01l-2.04-1.28l1.48-1.11
				c7.43,7.13,31.39,16.44,32.13,16.73L237,306.04c1.16-1.06,2.54-2.12,2.54-2.12l80.11-0.5c0,0,0.81,0.41,1.84,1.03l-21.88,12.04
				L325.62,308.35z"/>
			<linearGradient id="SVGID_15_" gradientUnits="userSpaceOnUse" x1="290.1583" y1="348.0222" x2="290.1583" y2="323.6904">
				<stop  offset="0" style="stop-color:#CCCCFF"/>
				<stop  offset="1" style="stop-color:#755CBB"/>
			</linearGradient>
			<polygon class="st15" points="285.48,329.76 294.83,323.69 292.61,329.76 290.98,348.02 			"/>
			<linearGradient id="SVGID_16_" gradientUnits="userSpaceOnUse" x1="261.9759" y1="339.0748" x2="261.9759" y2="315.2363">
				<stop  offset="0" style="stop-color:#CCCCFF"/>
				<stop  offset="1" style="stop-color:#755CBB"/>
			</linearGradient>
			<polygon class="st16" points="277.27,330.14 267.53,324.63 246.68,315.24 273.23,332.79 274.82,339.07 			"/>
		</g>
		<path class="st17" d="M304.07,142.28c0.06,0.43,0.11,0.66,0.11,0.66c-0.49,2.04-1.05,3.93-1.66,5.66
			c-1.96,5.63-4.4,9.63-6.23,12.12c-1.59,2.15-2.72,3.18-2.72,3.18c-14.59-4.58-21.78-18.85-24.54-25.95
			c-0.02-0.03-0.03-0.07-0.04-0.11c-0.53-1.34-0.88-2.42-1.1-3.12c0,0,0,0,0-0.01c-0.17-0.56-0.25-0.87-0.25-0.87
			c0.06-0.12,0.12-0.25,0.18-0.37l0.03-0.05c0.24-0.5,0.48-1.01,0.7-1.5c1.91-4.18,3.18-8.09,4-11.17c0.71-2.62,1.09-4.64,1.27-5.71
			c0.09-0.55,0.13-0.85,0.13-0.85l6.8,3.59l23.43,12.4c-0.35,2.15-0.49,4.17-0.5,5.94c-0.02,1.25,0.02,2.37,0.09,3.32
			c0.07,1.16,0.19,2.08,0.28,2.68v0.01C304.05,142.19,304.06,142.23,304.07,142.28z"/>
		<linearGradient id="SVGID_17_" gradientUnits="userSpaceOnUse" x1="286.1548" y1="169.0772" x2="286.1548" y2="133.4672">
			<stop  offset="0" style="stop-color:#D5CDF8"/>
			<stop  offset="1" style="stop-color:#F3EDFB"/>
		</linearGradient>
		<path class="st18" d="M297.57,165.47c-1.35,1.34-2.94,2.54-4.84,3.54c-0.04,0.03-0.08,0.05-0.12,0.07c0,0-0.05-0.03-0.14-0.08
			l-0.01-0.01c-0.51-0.31-2.25-1.38-4.59-3.14c-6.12-4.61-16.34-13.93-19.26-26.49c-0.01-0.02-0.01-0.03-0.02-0.05
			c-0.34-1.49-0.58-3.01-0.7-4.59c0,0,0,0,0-0.01c-0.03-0.41-0.06-0.82-0.07-1.24c0,0,2.03,4.77,5.55,9.92
			c4.14,6.06,10.35,12.67,17.77,12.71c6.42,0.04,9.71-4.35,11.38-8.4c0.71-1.72,1.13-3.37,1.35-4.6c0.01-0.01,0.01-0.02,0.01-0.02
			c0.07-0.36,0.12-0.68,0.17-0.95v-0.01c0.02-0.14,0.04-0.26,0.05-0.37c0.06-0.45,0.08-0.71,0.08-0.71S306.64,156.4,297.57,165.47z"
			/>
		<linearGradient id="SVGID_18_" gradientUnits="userSpaceOnUse" x1="267.8227" y1="151.2372" x2="304.487" y2="151.2372">
			<stop  offset="0" style="stop-color:#CCCCFF"/>
			<stop  offset="1" style="stop-color:#755CBB"/>
		</linearGradient>
		<path class="st19" d="M297.57,165.47c-1.35,1.34-2.94,2.54-4.84,3.54h-0.12l-0.14-0.01l-0.01-0.01c-0.51-0.31-2.25-1.38-4.59-3.14
			c-6.12-4.61-16.34-13.93-19.26-26.49c-0.01-0.02-0.01-0.03-0.02-0.05c-0.34-1.49-0.58-3.01-0.7-4.59c0,0,0,0,0-0.01
			c-0.03-0.41-0.06-0.82-0.07-1.24c0,0,2.03,4.77,5.55,9.92c0,0,4.04,11.1,12.78,16.6c4.38,2.75,7.7,2.35,10.14,0.73
			c2.44-1.61,4.02-4.42,4.95-6.54c0.93-2.13,1.23-4.12,1.28-5.58c0.01-0.33,0.01-0.63,0-0.9c0.71-1.72,1.13-3.37,1.35-4.6
			c0.01-0.01,0.01-0.02,0.01-0.02c0.07-0.36,0.12-0.68,0.17-0.95v-0.01c0.02-0.14,0.04-0.26,0.05-0.37
			c0.06-0.45,0.08-0.71,0.08-0.71S306.64,156.4,297.57,165.47z"/>
		<linearGradient id="SVGID_19_" gradientUnits="userSpaceOnUse" x1="275.6709" y1="311.3564" x2="275.6709" y2="131.9172">
			<stop  offset="0" style="stop-color:#9E8CEF"/>
			<stop  offset="1" style="stop-color:#CAAFEE"/>
		</linearGradient>
		<path class="st20" d="M353.73,256.16c-0.11,0.05-0.16,0.08-0.16,0.08c-0.82,0.1-3.37-0.46-6.71-3.35l-0.01-0.01
			c0-0.01-0.01-0.02-0.03-0.03c-0.01-0.01-0.02-0.03-0.04-0.04c-2.8-2.45-6.16-6.54-9.51-13.24c-6.7-13.39-8.62-22.33-8.93-23.89
			l-0.04-0.24l-3.91,6.2c-2.65,7.97-7.67,40.95-7.58,42.37c0.09,1.42,4.45,8.34,4.36,9.19c0,0,0,0.01-0.01,0.02
			c-0.12,0.86-2.08,2.75-2.64,4.81c-0.38,1.37,2.28,5.69,4.15,8.92v0.01c0.97,1.68,1.72,3.06,1.72,3.58c0,1.51-4.74,8.9-4.74,8.9
			v3.98l-0.07,0.07l-0.22,0.2l-0.18,0.15c-1.8,1.42-9.43,6.07-33.27,7.35c-28.25,1.51-47.07-7.58-47.07-7.58l1.42-3.89
			c0,0-1.32-1.13-1.42-1.7c-0.09-0.57,1.04-1.9,1.04-1.9s-2.84-1.51-2.84-3.41c0-1.89,5.69-7.76,5.5-12.79
			c-0.19-5.02-4.55-9.47-5.12-12.31c-0.57-2.84,7.39-9.85,7.39-9.85c-6.82-21.6-8.15-50.59-8.15-50.59l-1.32-1.52
			c0,0-8.15,18.57-15.54,27.66c-0.88,1.08-1.81,2.15-2.77,3.18c-2.06,2.23-4.25,4.32-6.36,6.15c-5.12,4.46-9.77,7.39-10.95,7.16
			c-1.9-0.38-9.48-15.35-9.13-30.7c0.16-7.3,4.56-15.47,9.13-22.02c0.49-0.7,0.98-1.39,1.48-2.06c3.24-4.41,6.35-7.87,7.84-9.45
			c0.58-0.62,0.91-0.95,0.91-0.95s-1.04-3.35-1.75-6.26c-0.01-0.07-0.03-0.14-0.05-0.21c0-0.03-0.01-0.07-0.02-0.1
			c-0.01-0.05-0.02-0.07-0.02-0.07c-0.42-1.79-0.68-3.34-0.44-3.72c0.63-1.01,4.3-2.15,4.93-2.9c0.63-0.76,3.28-13.52,5.3-14.91
			c1.94-1.33,5.35-2.3,16.72-6.77c0.56-0.22,1.13-0.44,1.73-0.68c12.75-5.05,25.26-11.18,25.26-11.18l4.8-5.9h2.14l-0.7,1.5
			l-0.03,0.05c0.34,1.52,0.73,2.98,1.17,4.37c0.01,0.04,0.02,0.08,0.04,0.11c6.6,20.82,23.58,27.53,23.58,27.53
			c11.8-8.71,11.57-22.54,11.57-22.54v-1.9l2.21,0.66l1.51,3.6c0,0,2.56,3.98,12.7,8.44c1.75,0.77,3.63,1.74,5.57,2.85
			c9.28,5.27,19.6,13.42,20.39,15.15c0.08,0.18,0.17,0.46,0.27,0.86v0.01c1.09,4.28,3.33,20.31,5.41,26.03
			c1.3,3.57,3.35,5.54,4.86,6.56c0.01,0.01,0.01,0.01,0.02,0.01c1.12,0.77,1.94,1.01,1.94,1.01c0.16,0.88,0.31,1.75,0.45,2.61
			C363.86,236.25,355.59,254.86,353.73,256.16z"/>
		<linearGradient id="SVGID_20_" gradientUnits="userSpaceOnUse" x1="201.2027" y1="199.5422" x2="244.9027" y2="199.5422">
			<stop  offset="0" style="stop-color:#CCCCFF"/>
			<stop  offset="1" style="stop-color:#755CBB"/>
		</linearGradient>
		<path class="st21" d="M244.9,204.4l-8.24,2.77l-1.32-1.52c0,0-8.15,18.57-15.54,27.66c-0.88,1.08-1.81,2.15-2.77,3.18
			c-2.06,2.23-4.25,4.32-6.36,6.15l-6.28-27.07l-3.19-20.55c3.24-4.41,6.35-7.87,7.84-9.45c0.58-0.62,0.91-0.95,0.91-0.95
			s-1.04-3.35-1.75-6.26c-0.01-0.07-0.03-0.14-0.05-0.21c0-0.03-0.01-0.07-0.02-0.1c-0.01-0.05-0.02-0.07-0.02-0.07
			c-0.42-1.79-0.68-3.34-0.44-3.72c0.63-1.01,4.3-2.15,4.93-2.9c0.63-0.76,3.28-13.52,5.3-14.91c0,0-1.32,12.25,5.69,27.79l3.41,4.8
			l9.98,8.02C236.98,197.06,240.77,202.09,244.9,204.4z"/>
		<linearGradient id="SVGID_21_" gradientUnits="userSpaceOnUse" x1="199.8511" y1="249.7972" x2="199.8511" y2="165.8872">
			<stop  offset="0" style="stop-color:#9E8CEF"/>
			<stop  offset="1" style="stop-color:#DAC7F3"/>
		</linearGradient>
		<path class="st22" d="M221.06,226.56c-1.77,13.13-21.34,23.24-21.34,23.24c-4.36,0-9.23-7.58-13.65-16.93
			c-4.42-9.35-4.69-36.21-4.92-37.87c-0.24-1.66-2.7-4.98-2.85-6.4c-0.14-1.42,3.98-4.36,3.98-4.36l-0.03-0.07l-0.03-0.07
			c-0.43-0.92-2.85-6.11-2.68-7.06c0.19-1.04,4.82-3.31,4.82-3.31l0.29,5.11c0,0,10.78-2.04,14.43-10.39l0.64-2.56l1.8,1.2v10.99
			c0,0,0.37,1.71,0.94,1.71c0.57,0,4.77-2.1,5.65-1.81c0.89,0.29,1.76,6.17,2.94,6.92c1.17,0.76,4.3,2.94,4.77,3.98
			c0.21,0.47,0.23,2.16,0.25,4.15c0.03,2.44,0.05,5.32,0.41,6.94C217.15,202.9,222.83,213.42,221.06,226.56z"/>
		<linearGradient id="SVGID_22_" gradientUnits="userSpaceOnUse" x1="344.1429" y1="225.6132" x2="400.4483" y2="225.6132">
			<stop  offset="0" style="stop-color:#A999F1"/>
			<stop  offset="1" style="stop-color:#DAC7F3"/>
		</linearGradient>
		<path class="st23" d="M400.05,215.31c-0.88,1.39-5.3,4.3-6.44,5.44c-1.14,1.13,0,4.87,0,4.87
			c-18.57,19.71-37.93,29.58-39.88,30.54c-0.11,0.05-0.16,0.08-0.16,0.08c-11.66-7.84-10.66-20.75-6.79-31.63
			c3.7-10.44,10.04-19.01,10.32-19.38l0.01-0.01c0,0,0,0,0.01-0.01c0.21-0.08,3.54-1.46,5.92-1.64c0.79-0.06,1.51,0.25,2.19,0.68
			c1.42,0.88,2.62,2.27,3.78,1.69c1.71-0.86,5.53-9.89,8.12-10.14c1.81-0.17,4.32,1.67,5.99,2.72c0.73,0.46,1.3,0.77,1.58,0.69
			c0.95-0.25,4.17-4.11,4.43-4.21c0.25-0.11,1.72,0.97,1.72,0.97l-1.03,1.28c1.58,9.1,6.76,15.22,6.76,15.22l3.47-5.08
			C400.05,207.39,400.94,213.92,400.05,215.31z"/>
		<path class="st24" d="M304.12,141.89c-0.02,0.13-0.04,0.26-0.05,0.39c-0.05,0.27-0.11,0.53-0.19,0.8c0,0,0,0.01-0.01,0.02
			c-1.19,4.41-6,8.92-12.07,6.75c-6.63-2.37-19.25-29.1-19.25-29.1l1.27-5.71l29.95,24.4l0.33,2.31L304.12,141.89z"/>
		<g>
			<path class="st25" d="M204.39,137c0,0-1.83-10.11-1.01-17.56c0.82-7.45-0.21-15.92-0.21-15.92s-1.81-0.76-3.14,0
				c-1.33,0.76-4.42,8.46-3.03,14.65c1.39,6.19,0.32,21.03,0.32,21.03h-2.08l-4.55-6.25l-2.21-0.63c0,0-12.73,12-12.54,19.14
				l1.66,6.35l15.67-0.54l10.23-11.68L204.39,137z"/>
			<linearGradient id="SVGID_23_" gradientUnits="userSpaceOnUse" x1="181.5358" y1="154.4457" x2="181.5358" y2="132.3211">
				<stop  offset="0.016" style="stop-color:#FFC2A9"/>
				<stop  offset="1" style="stop-color:#FF9595"/>
			</linearGradient>
			<path class="st26" d="M188.48,132.32c0,0,0.33,7.96,2.11,14.78c0,0-0.3,2.79-3.57,2.98l-0.81-0.9c0,0-0.57,3.17-3.46,3.41
				l-2.75-2.75l0.71,2.27c0,0-0.99,2.42-3.6,2.32c0,0-4.36-3.41-4.64-7.86l4.31-3.65v-2.79l5.12-3.6l0.09-2.04
				C182,134.5,185,132.27,188.48,132.32z"/>
			<linearGradient id="SVGID_24_" gradientUnits="userSpaceOnUse" x1="195.4677" y1="153.9219" x2="195.4677" y2="117.2987">
				<stop  offset="0" style="stop-color:#FFEADB"/>
				<stop  offset="0.9944" style="stop-color:#C27CB6"/>
			</linearGradient>
			<path class="st27" d="M203.56,117.3c0,0-0.77,1.95-1.86,2.71c-1.09,0.76-4.25,1.34-4.25,1.34l-0.14,17.86h-2.08l-4.55-6.25
				c0,0,2.31,3.57,2.45,6.25l-1.8,0.88l-1.56-5.35l-0.74,3.85l0.74,4.79c0,0,2.7-2.32,7.58-2.41l0.73,1.33
				c0,0-8.83,7.31-10.86,11.62c0,0,4.36-5.54,14.31-11.65l0.95-2.94l1.26-7.01C203.72,132.32,202.53,122.22,203.56,117.3z"/>
			<linearGradient id="SVGID_25_" gradientUnits="userSpaceOnUse" x1="194.2795" y1="178.8372" x2="194.2795" y2="122.3772">
				<stop  offset="0.016" style="stop-color:#FFC2A9"/>
				<stop  offset="1" style="stop-color:#FF9595"/>
			</linearGradient>
			<path class="st28" d="M210.96,148.43c-0.82,2.46-9.41,12.69-10.36,14.91c-0.95,2.21-1.52,5.11-1.52,5.11
				c-4.22,9.13-14.43,10.39-14.43,10.39l-0.47-8.24c0,0-5.49-3.16-6.42-4.89l-0.01-0.03l-0.11-0.29c-0.28-1.61-0.04-7.58-0.04-7.58
				l9.61-3.89c4.17-5.4,14.31-11.65,14.31-11.65l0.47-2.83c-7.28-3.58-6.06-14.41-4.83-15.74c1.23-1.32,3.5-1.32,3.5-1.32
				s2.66,8.71,4.36,12.79C206.73,139.24,211.78,145.97,210.96,148.43z"/>
			<path class="st29" d="M182,134.5c0,0,1.07,9.95,4.22,14.68c0,0-3.99-4.96-4.31-12.65L182,134.5z"/>
			<path class="st29" d="M176.79,140.14c0,0,1.04,8.01,5.97,12.46c0,0-4.36-2.18-5.97-9.66V140.14z"/>
			<linearGradient id="SVGID_26_" gradientUnits="userSpaceOnUse" x1="184.1827" y1="170.0265" x2="201.9347" y2="170.0265">
				<stop  offset="0.016" style="stop-color:#D1A1D6"/>
				<stop  offset="0.9944" style="stop-color:#BD89C4"/>
			</linearGradient>
			<path class="st30" d="M201.93,161.22c0,0-10.83,10.52-17.75,9.38l0.47,8.24c0,0,11.37-0.99,15.07-12.95
				C199.72,165.88,201.05,162.44,201.93,161.22z"/>
		</g>
		<g>
			<linearGradient id="SVGID_27_" gradientUnits="userSpaceOnUse" x1="401.6088" y1="213.2272" x2="401.6088" y2="137.7259">
				<stop  offset="0.016" style="stop-color:#FFC2A9"/>
				<stop  offset="1" style="stop-color:#FF9595"/>
			</linearGradient>
			<path class="st31" d="M430.97,175.52c0,0-9.95,18.19-21.6,23.78h-3.98l-9.19,13.93c0,0-5.94-3.73-6.38-15.98
				c0,0,2.08-2.17,2.59-4.62c0,0-3.28-2.58-4.17-4.47c-0.88-1.9-1.2-7.58-1.83-9.92c-0.63-2.34-6-7.2-7.2-7.83
				c-1.2-0.63-6.63-0.95-6.63-0.95s-0.76-1.96,0-2.9c0.76-0.95,9.22-4.24,13.83-1.08c0,0,0.32,2.4,0.82,3.67
				c0.51,1.26,4.55,5.74,5.18,5.74s3.35-2.27,4.55-4.04c1.15-1.7,7.26-14.87,8.74-19.32c0.01-0.05,0.02-0.09,0.04-0.13
				c0.02-0.07,0.05-0.14,0.06-0.2c0.02-0.05,0.03-0.09,0.04-0.13c0.01-0.02,0.02-0.03,0.02-0.05c1.14-3.85,7.77-11.24,11.31-13.26
				c0,0,1.51-0.38,2.33,1.51c0,0-2.84,8.09-5.81,12.89c-0.5,0.81-1.04,1.76-1.6,2.78c0,0,0,0-0.01,0
				c-2.53,4.65-5.38,10.74-5.79,11.63l-0.05,0.11l1.58,0.81l4.27-4.05l4.38-4.15l10.05,10.61l-0.99,1.26l-3.14,4.03l1.59,0.29
				l3.7-4.09L430.97,175.52z"/>
			<linearGradient id="SVGID_28_" gradientUnits="userSpaceOnUse" x1="410.5286" y1="189.0372" x2="410.5286" y2="151.5272">
				<stop  offset="0" style="stop-color:#FFEADB"/>
				<stop  offset="0.9944" style="stop-color:#C27CB6"/>
			</linearGradient>
			<path class="st32" d="M428.64,179.38l-3.18,4.67c0,0-17.45-13.46-21.24-14.6s-5.18-0.38-5.18-0.38l-3.91,4.99
				c0,0,7.2,6.38,7.83,14.97c0,0-2.4-10.86-10.55-14.15c0.63,0,3.35-2.27,4.55-4.04c1.15-1.7,7.26-14.87,8.74-19.32
				c-0.2,0.76-0.46,2.24,0.16,3.41c0.86,1.59,5.92,0.09,6.22,0c0.01,0,0.01,0,0.01,0l-5.8,11.63l-0.05,0.11l1.58,0.81l4.27-4.05
				l-2.14,4.97l15.58,2.75l-3.14,4.03l1.59,0.29L428.64,179.38z"/>
			<linearGradient id="SVGID_29_" gradientUnits="userSpaceOnUse" x1="417.9285" y1="176.0904" x2="417.9285" y2="159.2754">
				<stop  offset="0" style="stop-color:#FFB0B0"/>
				<stop  offset="0.984" style="stop-color:#FFC2A9"/>
			</linearGradient>
			<path class="st33" d="M416.48,159.29c0,0,3.03-0.44,4.99,3.47l-0.44,1.26c0,0,2.95,0.58,5.81,5.37c0,0-2.53,4.61-8.78,6.69
				c0,0-2.91-0.82-3.41-3.28l0.57-1.58l-2.27,1.71c0,0-2.72,0.82-3.92-3.22L416.48,159.29z"/>
			<linearGradient id="SVGID_30_" gradientUnits="userSpaceOnUse" x1="427.6813" y1="178.6798" x2="427.6813" y2="169.4588">
				<stop  offset="0" style="stop-color:#FFB0B0"/>
				<stop  offset="0.984" style="stop-color:#FFC2A9"/>
			</linearGradient>
			<path class="st34" d="M431.89,174.26c0,0,0.63-2.91-2.46-4.8l-6,6.63c0,0,0.18,2.13,2.78,2.59
				C426.2,178.68,430.31,177.29,431.89,174.26z"/>
			<linearGradient id="SVGID_31_" gradientUnits="userSpaceOnUse" x1="388.2427" y1="197.0584" x2="405.3927" y2="197.0584">
				<stop  offset="0.016" style="stop-color:#D1A1D6"/>
				<stop  offset="0.9944" style="stop-color:#BD89C4"/>
			</linearGradient>
			<path class="st35" d="M388.24,188.16c0,0,6.95,7.76,17.15,11.14l-4.4,6.66l-9.17-11.65l0.59-1.68
				C392.41,192.63,388.75,189.87,388.24,188.16z"/>
			<path class="st29" d="M421.02,164.03c0,0-2.91,4.8-5.81,7.2l-0.57,1.58c0,0,5.64-3.81,7.71-8.2
				C422.36,164.6,421.69,164.12,421.02,164.03z"/>
		</g>
		<linearGradient id="SVGID_32_" gradientUnits="userSpaceOnUse" x1="364.3755" y1="256.2484" x2="364.3755" y2="171.7372">
			<stop  offset="0" style="stop-color:#CCCCFF"/>
			<stop  offset="1" style="stop-color:#755CBB"/>
		</linearGradient>
		<path class="st36" d="M400.05,215.31c-0.88,1.39-5.3,4.3-6.44,5.44c-1.14,1.13,0,4.87,0,4.87
			c-18.57,19.71-37.93,29.58-39.88,30.54c-0.11,0.05-0.16,0.08-0.16,0.08c-1.52,0.19-8.91-1.89-16.3-16.67
			c-6.7-13.39-8.62-22.33-8.93-23.89l-0.04-0.24l1.63-2.21l2.42-27.28l1.7,5.49c6.44-7.77,12.51-19.7,12.51-19.7l0.27,0.86v0.01
			c1.09,4.28,3.33,20.31,5.41,26.03c1.3,3.57,3.35,5.54,4.86,6.56l0.01,0.02l-0.01,0.01c-5.93,5.41-8.87,13.19-10.32,19.38
			c-1.33,5.68-1.42,10.03-1.42,10.03s1.64-7.7,6.82-16.96c1.88-3.37,4.62-6.38,7.33-8.85c2.04-1.86,4.07-3.42,5.72-4.58
			c1.42,0.88,2.62,2.27,3.78,1.69c-7.8,11.71-7.61,34.89-0.28,30.47c7.32-4.42,9-13.8,9-13.8c-1.73-11.43-1.21-24.32,0.18-26.77
			c1.69,0.06,6.52,3.45,6.8,3.37c-0.44,13.45,5.88,22.43,5.88,22.43l4.17-6.45c-6.07-10.23-5.62-20.19-5.62-20.19
			c0.25-0.11,1.72,0.97,1.72,0.97l-1.03,1.28c1.58,9.1,6.76,15.22,6.76,15.22l3.47-5.08C400.05,207.39,400.94,213.92,400.05,215.31z
			"/>
		<linearGradient id="SVGID_33_" gradientUnits="userSpaceOnUse" x1="178.3027" y1="239.2218" x2="319.6527" y2="239.2218">
			<stop  offset="0" style="stop-color:#CCCCFF"/>
			<stop  offset="1" style="stop-color:#755CBB"/>
		</linearGradient>
		<path class="st37" d="M319.65,299.44v3.98l-0.07,0.07l-0.22,0.2l-0.18,0.15c-1.8,1.42-9.43,6.07-33.27,7.35
			c-28.25,1.51-47.07-7.58-47.07-7.58l1.42-3.89c0,0-1.32-1.13-1.42-1.7c-0.09-0.57,1.04-1.9,1.04-1.9s-2.84-1.51-2.84-3.41
			c0-1.71,4.64-6.66,5.39-11.31c0.09-0.5,0.13-0.99,0.11-1.48c-0.19-5-4.51-9.43-5.11-12.27c-0.01-0.03-0.01-0.04-0.01-0.04
			c-0.57-2.84,7.39-9.85,7.39-9.85c-6.82-21.6-8.15-50.59-8.15-50.59l-1.32-1.52c0,0-8.15,18.57-15.54,27.66
			c-7.39,9.1-18.19,16.87-20.08,16.49c-4.36,0-9.23-7.58-13.65-16.93c-4.42-9.35-4.69-36.21-4.92-37.87
			c-0.24-1.66-2.7-4.98-2.85-6.4c4.74,8.15,12.29,5.75,12.29,5.75c-5.47,0.12-8.31-10.11-8.31-10.11l-0.03-0.07l-0.03-0.07
			l-2.67-7.05c0.3,0.34,6.55,7.33,12.59,3.02c6.19-4.42,9.38-12.98,9.38-12.98v10.99c0,0,0.37,1.71,0.94,1.71
			c-0.37,5.06-1.44,11.22-2.74,17.29c-2.81,13.13-6.66,25.81-6.66,25.81s10.44-5.68,14.11-20.08c1.75-6.89,2.04-12.88,1.87-17.24
			c-0.15-3.73-0.64-6.28-0.84-7.21c-0.01-0.07-0.03-0.14-0.05-0.21c0-0.03-0.01-0.07-0.02-0.1c0-0.02-0.01-0.04-0.01-0.05l1.01,2.14
			l1.92,4.76c2.23,18.48-2.37,46.33-2.37,46.33c6.7-8.34,8.09-26.78,7.8-31.26c-0.13-2.14-0.3-4.78-0.41-6.94
			c-0.15-2.36-0.25-4.15-0.25-4.15l13.71,8.18l-2.53-8.02l9.98,8.02c0,0,8.97,10.8,18.19,12.06c9.22,1.27,43.07,0.51,43.07,0.51
			s-29.43,1.89-38.02,4.42s-10.23,5.43-10.23,5.43c6.21,31.59,40.58,42.24,41.65,42.56c-31.18-4.68-45.69-31.19-45.69-31.19
			s-0.51,14.91,1.89,20.59c2.4,5.68,16.55,19.58,34.74,22.48c1.53,0.24,3.04,0.39,4.53,0.46c15.34,0.72,28.04-7.12,29.34-7.96
			c0.07-0.05,0.11-0.07,0.11-0.07s-0.01,0.02-0.03,0.05c-0.49,0.75-6.78,9.59-32.18,10.56c-1.54,0.06-3.04,0.05-4.5-0.01
			c-0.01,0-0.02,0-0.02,0c-23.54-0.99-35.53-16.67-35.53-16.67s-8.71,4.68-3.15,11.62c0.06,0.07,0.12,0.15,0.18,0.22
			c1.64,1.89,5.25,4.2,9.52,6.58c0.12,0.07,0.24,0.14,0.35,0.2c5.16,2.85,11.21,5.79,15.89,8.22c0.03,0.01,0.05,0.02,0.07,0.03
			c2.86,1.49,5.21,2.77,6.52,3.73c0.01,0,0.01,0.01,0.01,0.01c1.32,0.96,1.59,1.58,0.3,1.73c-6.57,0.76-31.45-4.67-32.46-3.16
			c-1.01,1.52,1.23,5.43,1.23,5.43c22.84,11.32,71.71,5.74,73.25,5.57c-40.9,10.47-74.36-2.79-74.36-2.79l1.11,3.92
			c0,0,18.22,6.31,39.69,6.82c21.48,0.5,34.87-4.99,34.87-4.99L319.65,299.44z"/>
		<linearGradient id="SVGID_34_" gradientUnits="userSpaceOnUse" x1="302.918" y1="215.5687" x2="329.936" y2="215.5687">
			<stop  offset="0" style="stop-color:#CCEDFF"/>
			<stop  offset="1" style="stop-color:#755CBB"/>
		</linearGradient>
		<path class="st38" d="M302.92,209.5c0,0,16.27,0.88,27.02,3.73l-5.54,8.41C324.39,221.64,316.05,214.3,302.92,209.5z"/>
		<linearGradient id="SVGID_35_" gradientUnits="userSpaceOnUse" x1="278.4127" y1="262.9852" x2="318.1188" y2="262.9852">
			<stop  offset="0" style="stop-color:#CCEDFF"/>
			<stop  offset="1" style="stop-color:#755CBB"/>
		</linearGradient>
		<path class="st39" d="M318.12,254.34c0,0-10.15,8.47-20.13,12.38c-9.98,3.92-19.58,4.29-19.58,4.29s5.74,1.71,19.85-0.57
			c14.12-2.27,18.95-9.92,18.95-9.92L318.12,254.34z"/>
		<linearGradient id="SVGID_36_" gradientUnits="userSpaceOnUse" x1="280.2515" y1="280.9389" x2="322.6727" y2="280.9389">
			<stop  offset="0" style="stop-color:#CCEDFF"/>
			<stop  offset="1" style="stop-color:#755CBB"/>
		</linearGradient>
		<path class="st40" d="M322.67,286.95L322.67,286.95c-18.78,4.86-42.62-2.1-42.42-2.95s6.53,0.38,21.21-2.56
			c14.23-2.85,19.39-7.91,19.7-8.22c-0.12,0.86-2.08,2.75-2.64,4.81C318.14,279.4,320.8,283.72,322.67,286.95z"/>
		<linearGradient id="SVGID_37_" gradientUnits="userSpaceOnUse" x1="243.7427" y1="236.4872" x2="243.7427" y2="188.8772">
			<stop  offset="0" style="stop-color:#CCEDFF"/>
			<stop  offset="1" style="stop-color:#755CBB"/>
		</linearGradient>
		<path class="st41" d="M271.66,212.05c-16.04,1.63-20.36,6.1-20.36,6.1c-4.51,0.57-14.64-10.98-14.64-10.98l-1.32-1.52
			c0,0-8.15,18.57-15.54,27.66c-0.88,1.08-1.81,2.15-2.77,3.18l1.05-2.36c0,0,1.72-0.82,2.22-9.85c0.51-9.02-3.79-22.48-3.82-24.31
			s-0.66-11.09-0.66-11.09l13.71,8.18l-2.53-8.02l9.98,8.02c0,0,3.91,5.88,13.78,10.78C260.07,212.47,270.51,212.1,271.66,212.05z"
			/>
		<linearGradient id="SVGID_38_" gradientUnits="userSpaceOnUse" x1="247.5756" y1="240.4894" x2="247.5756" y2="204.3994">
			<stop  offset="0" style="stop-color:#CCEDFF"/>
			<stop  offset="1" style="stop-color:#755CBB"/>
		</linearGradient>
		<path class="st42" d="M235.34,205.65l9.56-1.25c0,0,3.82,2.53,11.49,5.65l-6.39,9.43c0,0,2.54,13.44,9.82,21.01
			c0,0-19.32-10.73-22.04-19.75L235.34,205.65z"/>
		<linearGradient id="SVGID_39_" gradientUnits="userSpaceOnUse" x1="190.5377" y1="194.3545" x2="190.5377" y2="167.0872">
			<stop  offset="0" style="stop-color:#CCEDFF"/>
			<stop  offset="1" style="stop-color:#755CBB"/>
		</linearGradient>
		<path class="st43" d="M179.55,177.05l2.73,7.19c0,0,2.78,9.7,8.31,10.11c5.53,0.41,10.93-16.27,10.93-16.27v-10.99
			c0,0-5.88,12.6-12.23,14.02C182.95,182.53,179.55,177.05,179.55,177.05z"/>
		<linearGradient id="SVGID_40_" gradientUnits="userSpaceOnUse" x1="212.6027" y1="170.3424" x2="223.5916" y2="170.3424">
			<stop  offset="0" style="stop-color:#CCEDFF"/>
			<stop  offset="1" style="stop-color:#755CBB"/>
		</linearGradient>
		<path class="st44" d="M212.6,171.36c0,0,4.93,9.85,10.99,12.88c0,0-7.21-17.5-5.69-27.79C217.9,156.45,215.25,158.1,212.6,171.36z
			"/>
		<linearGradient id="SVGID_41_" gradientUnits="userSpaceOnUse" x1="332.06" y1="236.4872" x2="332.06" y2="185.9472">
			<stop  offset="0" style="stop-color:#CCCCFF"/>
			<stop  offset="1" style="stop-color:#755CBB"/>
		</linearGradient>
		<path class="st45" d="M332.35,185.95l1.7,5.49l1.72,45.05c0,0-4.37-8.57-7.43-20.81l1.59-2.45
			C329.94,213.23,332.61,196.25,332.35,185.95z"/>
		<linearGradient id="SVGID_42_" gradientUnits="userSpaceOnUse" x1="388.8807" y1="225.6172" x2="388.8807" y2="199.2072">
			<stop  offset="0" style="stop-color:#CCCCFF"/>
			<stop  offset="1" style="stop-color:#755CBB"/>
		</linearGradient>
		<path class="st46" d="M384.7,199.21c0,0-0.96,22.13,8.44,24.04l0.47,2.37C393.61,225.62,381.45,225.17,384.7,199.21z"/>
		<linearGradient id="SVGID_43_" gradientUnits="userSpaceOnUse" x1="358.9285" y1="224.4372" x2="358.9285" y2="204.2472">
			<stop  offset="0" style="stop-color:#CCCCFF"/>
			<stop  offset="1" style="stop-color:#755CBB"/>
		</linearGradient>
		<path class="st47" d="M369.01,205.94c0,0-0.36,0.79-3.78-1.69c0,0-11.83,8.38-16.39,20.19c0,0,7.29-10.85,11.17-12.03
			c3.88-1.17,4.82,3.16,4.82,3.16S366.37,209.47,369.01,205.94z"/>
		<linearGradient id="SVGID_44_" gradientUnits="userSpaceOnUse" x1="184.8301" y1="196.0951" x2="184.8301" y2="188.5972">
			<stop  offset="0" style="stop-color:#CCEDFF"/>
			<stop  offset="1" style="stop-color:#755CBB"/>
		</linearGradient>
		<path class="st48" d="M178.3,188.6c0,0,4.55,8.39,13.08,5.76c0,0-5.11,3.44-10.23,0.64C181.15,195,177.98,189.54,178.3,188.6z"/>
		<linearGradient id="SVGID_45_" gradientUnits="userSpaceOnUse" x1="204.8589" y1="218.9541" x2="204.8589" y2="177.9772">
			<stop  offset="0" style="stop-color:#CCCCFF"/>
			<stop  offset="1" style="stop-color:#755CBB"/>
		</linearGradient>
		<path class="st49" d="M208.11,177.98c0,0,6.26,23.4-10.07,40.98c0,0,10.6-5.44,13.01-18.04S208.11,177.98,208.11,177.98z"/>
		<linearGradient id="SVGID_46_" gradientUnits="userSpaceOnUse" x1="310.2822" y1="190.1114" x2="310.2822" y2="159.2754">
			<stop  offset="0" style="stop-color:#CCEDFF"/>
			<stop  offset="1" style="stop-color:#755CBB"/>
		</linearGradient>
		<path class="st50" d="M320.25,159.28c0,0-0.7,10.56-5.77,18.14c-5.06,7.58-15.1,12.69-15.1,12.69s12.6-4.64,18.38-11.18
			C323.54,172.4,320.25,159.28,320.25,159.28z"/>
		<linearGradient id="SVGID_47_" gradientUnits="userSpaceOnUse" x1="269.8844" y1="185.943" x2="269.8844" y2="143.3834">
			<stop  offset="0" style="stop-color:#CCEDFF"/>
			<stop  offset="1" style="stop-color:#755CBB"/>
		</linearGradient>
		<path class="st51" d="M255.8,143.38c0,0,0,8.83,2.84,17.83c2.84,9,27.51,24.73,27.51,24.73s-25.43-10.56-30.35-20.06
			S255.8,143.38,255.8,143.38z"/>
		<linearGradient id="SVGID_48_" gradientUnits="userSpaceOnUse" x1="255.5137" y1="193.7271" x2="326.5982" y2="193.7271">
			<stop  offset="0" style="stop-color:#8642A0"/>
			<stop  offset="1" style="stop-color:#6456C0"/>
		</linearGradient>
		<path class="st52" d="M255.51,185.44v14.38c0,0,33.11-0.27,70.24,2.19l0.85-12.95C326.6,189.07,294.32,185.25,255.51,185.44z"/>
		<linearGradient id="SVGID_49_" gradientUnits="userSpaceOnUse" x1="261.6427" y1="152.7072" x2="307.9027" y2="152.7072">
			<stop  offset="0" style="stop-color:#CCCCFF"/>
			<stop  offset="1" style="stop-color:#755CBB"/>
		</linearGradient>
		<path class="st53" d="M307.9,145.3c-0.78,9.3-3.61,15.78-6.63,20.15c-4.16,6-8.66,8.05-8.66,8.05c-4.5-1.96-8.4-4.4-11.76-7.09
			c-14.26-11.4-18.86-27.2-19.21-28.5c6.02,14.54,14.86,23.35,21.56,28.31c5.4,4.01,9.41,5.52,9.41,5.52v-4.65
			c-1.07-0.4-2.11-0.86-3.1-1.36c-11.8-5.95-18-18.35-20.9-26.37c-0.01-0.02-0.01-0.03-0.02-0.05c-1.57-4.34-2.18-7.39-2.18-7.39
			h2.14l-0.7,1.5l-0.03,0.05c0.34,1.52,0.73,2.98,1.17,4.37c0.01,0.04,0.02,0.08,0.04,0.11c6.6,20.82,23.58,27.53,23.58,27.53
			c11.8-8.71,11.57-22.54,11.57-22.54v-1.9l2.21,0.66L307.9,145.3z"/>
		<linearGradient id="SVGID_50_" gradientUnits="userSpaceOnUse" x1="380.5641" y1="222.6061" x2="380.5641" y2="195.8346">
			<stop  offset="0" style="stop-color:#CCCCFF"/>
			<stop  offset="1" style="stop-color:#755CBB"/>
		</linearGradient>
		<path class="st54" d="M377.9,195.83c0,0-3.21,10.48-0.18,26.77c0,0,1.52-20.65,2.65-22.45c1.14-1.8,4.32-0.95,4.32-0.95
			S379.69,196.44,377.9,195.83z"/>
		<linearGradient id="SVGID_51_" gradientUnits="userSpaceOnUse" x1="342.7227" y1="252.8072" x2="342.7227" y2="171.7372">
			<stop  offset="0" style="stop-color:#CCCCFF"/>
			<stop  offset="1" style="stop-color:#755CBB"/>
		</linearGradient>
		<path class="st55" d="M346.78,252.81c-2.8-2.45-6.16-6.54-9.51-13.24c-6.7-13.39-8.62-22.33-8.93-23.89l1.59-2.45l2.13-20.6
			l1.99-1.19c0,0,7.11-7.85,12.51-19.7c0.08,0.18,0.17,0.46,0.27,0.86v0.01c1.09,4.28,3.33,20.31,5.41,26.03
			c1.3,3.57,3.35,5.54,4.86,6.56c0,0-12.31,18.26-12.91,31.29C343.66,248.35,346.3,252.21,346.78,252.81z"/>
		<linearGradient id="SVGID_52_" gradientUnits="userSpaceOnUse" x1="255.5627" y1="290.8872" x2="255.5627" y2="267.6472">
			<stop  offset="0" style="stop-color:#CCCCFF"/>
			<stop  offset="1" style="stop-color:#755CBB"/>
		</linearGradient>
		<path class="st56" d="M273.69,290.89c0,0-22.19-3.64-31.25-9.48c0,0-0.01,0-0.01-0.01c0.09-0.5,0.13-0.99,0.11-1.48
			c-0.19-5-4.51-9.43-5.11-12.27c0.1,0.27,0.75,1.77,3.9,4.47c1.99,1.71,5,3.91,9.52,6.58c0.12,0.07,0.24,0.14,0.35,0.2
			c6.4,3.78,11.91,6.34,15.89,8.22c0.03,0.01,0.05,0.02,0.07,0.03c3.58,1.68,5.9,2.79,6.52,3.73
			C273.69,290.88,273.69,290.89,273.69,290.89z"/>
		<linearGradient id="SVGID_53_" gradientUnits="userSpaceOnUse" x1="300.7077" y1="284.5032" x2="300.7077" y2="273.2172">
			<stop  offset="0" style="stop-color:#CCCCFF"/>
			<stop  offset="1" style="stop-color:#755CBB"/>
		</linearGradient>
		<path class="st57" d="M321.16,273.22c-0.12,0.86-2.08,2.75-2.64,4.81c0,0-8.14,8.62-38.27,5.97c0.2-0.85,6.53,0.38,21.21-2.56
			C315.69,278.59,320.85,273.53,321.16,273.22z"/>
		<path class="st58" d="M326.17,156.59l-19.26,6.24l-5.64,2.62l-0.03,0.01l-3.67,0.01l-4.96,0.01l-3.1,0.25l-1.64,0.12l-4.67,0.37
			l-2.35,0.19l-23.1-8.36l-4.13-1.49l-19-6.88c0.56-0.22,1.13-0.44,1.73-0.68c12.75-5.05,25.26-11.18,25.26-11.18l4.8-5.9h2.14
			c1.91-4.18,3.18-8.09,4-11.17l1.27-5.71c0.09-0.55,0.13-0.85,0.13-0.85l6.8,3.59l22.93,18.34c-0.02,1.25,0.02,2.37,0.09,3.32
			l0.33,2.31c0.06-0.45,0.08-0.71,0.08-0.71l2.21,0.66l1.51,3.6c0,0,2.56,3.98,12.7,8.44C322.35,154.51,324.23,155.48,326.17,156.59
			z"/>
		<g>
			<linearGradient id="SVGID_54_" gradientUnits="userSpaceOnUse" x1="300.2102" y1="139.4391" x2="300.2102" y2="62.2321">
				<stop  offset="0.016" style="stop-color:#FFC2A9"/>
				<stop  offset="1" style="stop-color:#FF9595"/>
			</linearGradient>
			<path class="st59" d="M311.5,139.02c0,0-8.98,2.02-18.89-2.78c-9.91-4.8-18.24-18.95-18.75-22.48
				c-0.5-3.54,3.79-12.76,3.79-19.96c0-7.2-3.53-19.58,2.4-26.28c5.94-6.69,33.22-7.7,42.07,0.89c0,0,2.74,6.88,2.74,10.77
				c0,0.94-0.17,2.32-0.42,3.91c-0.08,0.59-0.19,1.22-0.29,1.87c-0.79,4.71-1.88,10.46-1.37,12.98c0.18,0.88,0.46,1.69,0.79,2.46
				v0.01c1.09,2.52,2.71,4.53,3,6.71C326.95,109.97,323.13,130.18,311.5,139.02z"/>
			<linearGradient id="SVGID_55_" gradientUnits="userSpaceOnUse" x1="271.4283" y1="108.2843" x2="271.4283" y2="85.5219">
				<stop  offset="0.016" style="stop-color:#FFC2A9"/>
				<stop  offset="1" style="stop-color:#FF9595"/>
			</linearGradient>
			<path class="st60" d="M277.58,91.76c0,0-2.45-6.15-8.61-6.24c0,0-3.6,1.42-4.17,4.17c0,0,1.33,9.95,2.84,14.59
				c1.52,4.64,7.07,3.97,7.07,3.97S279.56,100.85,277.58,91.76z"/>
			<linearGradient id="SVGID_56_" gradientUnits="userSpaceOnUse" x1="310.9413" y1="116.8924" x2="311.8958" y2="111.9232">
				<stop  offset="0" style="stop-color:#E1616A"/>
				<stop  offset="1" style="stop-color:#FF8883"/>
			</linearGradient>
			<path class="st61" d="M301.25,112.02c0,0,2.05-0.16,2.93,0.5c0.88,0.66,4.11,3.79,8.18,4.64c4.07,0.85,6.81-2.62,7.67-2.79
				c0.87-0.18,1.82,1.05,1.82,1.05s-0.37-1.42-2.5-2.06c0,0-0.86,3.27-6.76,2.15c-5.9-1.12-8.42-3.74-8.42-3.74l-0.3-0.54
				C303.88,111.23,302.22,111.57,301.25,112.02z"/>
			<linearGradient id="SVGID_57_" gradientUnits="userSpaceOnUse" x1="302.3262" y1="113.0903" x2="302.3262" y2="63.3535">
				<stop  offset="0" style="stop-color:#FFEADB"/>
				<stop  offset="0.9944" style="stop-color:#C27CB6"/>
			</linearGradient>
			<path class="st62" d="M292.53,81.43l0.08-0.63c0,0,5.89-10.34,17.54-10.62c11.65-0.28,14.28,7.02,14.28,7.02l2.16-3.28
				l-4.92-9.99l-34.24-0.57l-8.34,6.73l-1.05,16.47l3.71,21.74l9.02,4.81l2.55-2.26c-0.94-7.28-6.35-13.93-6.35-13.93l3.95-2.74
				c0,0,10.14,4.91,15.99,3.44c0,0,4.41-12.86,4.15-22.38C311.07,75.22,296.05,77.44,292.53,81.43z"/>
			<path class="st63" d="M292.01,82.19c0,0,0.57-3.72,6.85-5.21c7-1.66,12.69-3.06,12.69-3.06s-1.24,4.08-3.57,5.61
				c0,0-7.41-0.27-11.15,0.58C293.07,80.97,292.01,82.19,292.01,82.19z"/>
			<path class="st63" d="M324.44,77.19c0,0-3.55,2.74-5.97,9.28c0,0,2.32-3.03,4.45-2.98c1.46,0.03,1.23,1.48,1.23,1.48
				S325.6,81.05,324.44,77.19z"/>
			<linearGradient id="SVGID_58_" gradientUnits="userSpaceOnUse" x1="299.9022" y1="92.7219" x2="299.9022" y2="82.8693">
				<stop  offset="0" style="stop-color:#CF6074"/>
				<stop  offset="1" style="stop-color:#F37270"/>
			</linearGradient>
			<path class="st64" d="M294.36,92.72c0,0,0.38-7.86,8.05-9.85c0,0,2.75,3.55,3.03,7.58C305.44,90.45,301.37,89.69,294.36,92.72z"
				/>
			<linearGradient id="SVGID_59_" gradientUnits="userSpaceOnUse" x1="319.5543" y1="95.8483" x2="319.5543" y2="87.2746">
				<stop  offset="0" style="stop-color:#CF6074"/>
				<stop  offset="1" style="stop-color:#FF817F"/>
			</linearGradient>
			<path class="st65" d="M316.34,95.85c0,0,0.62-6.26,4.22-8.57c0,0,2.45,1.84,2.2,7.08C322.75,94.35,320.6,93.57,316.34,95.85z"/>
			<path class="st66" d="M294.36,92.72c0,0,2.49,3.06,9.47,3.66c0,0,1.33-2.02,1.2-5.99C305.04,90.4,298.62,89.79,294.36,92.72z"/>
			<path class="st66" d="M316.34,95.85v0.92c0,0,1.07,2.24,4.93,2.62c0,0,1.24-1.94,1.35-5.07
				C322.61,94.31,320.16,93.7,316.34,95.85z"/>
			<path class="st67" d="M301.82,90.24c0,0-1.77,2.15-1.61,5.55c0,0,2.32,0.55,3.62,0.6c0,0,1.53-2.13,1.2-5.99
				C305.04,90.4,303.01,89.96,301.82,90.24z"/>
			<path class="st67" d="M320,94.42c0,0-1,1.07-1.19,4.36c0,0,1.37,0.6,2.46,0.6c0,0,1.4-1.99,1.35-5.07
				C322.61,94.31,321.63,93.94,320,94.42z"/>
			<path class="st63" d="M301.25,96.02c0,0-0.63-4.25,1.8-5.87l1.99,0.25c0,0,0.66,3.36-1.2,5.99
				C303.83,96.39,301.86,96.16,301.25,96.02z"/>
			<path class="st63" d="M320.88,94.23c0,0-0.9,1.89-1.32,4.83c0,0,0.69,0.28,1.71,0.32c0,0,1.36-1.67,1.35-5.07
				C322.61,94.31,321.57,94.04,320.88,94.23z"/>
			<path class="st68" d="M294.36,92.72c0,0,4.64-2.7,12.55-1.16l-1.47-1.11C305.44,90.45,299.81,88.7,294.36,92.72z"/>
			<path class="st68" d="M316.34,95.85c0,0,3.72-1.98,8.06-0.93l-1.79-1.32C322.61,93.59,319.7,93.15,316.34,95.85z"/>
			<path class="st8" d="M299.38,92.72c0,0,1.26-0.28,2.4,0.87C301.78,93.59,300.22,94.05,299.38,92.72z"/>
			<path class="st8" d="M318.04,96.39c0,0,1.98-0.38,2.66,0.52C320.71,96.9,319.65,97.63,318.04,96.39z"/>
			<path class="st69" d="M294.83,93.18c0,0,3.61,3.57,9.39,4.42l0.15-2.1l-0.53,0.89C303.83,96.39,298.28,96.06,294.83,93.18z"/>
			<path class="st69" d="M316.34,96.76c0,0,0.64,2.31,5.34,3.35l-0.15-1.13l-0.26,0.4C321.27,99.39,317.93,98.96,316.34,96.76z"/>
			<path class="st70" d="M306.91,105.99c0,0,1.75-0.38,4.97,0c3.22,0.38,6.84,1.26,8.82,0c0,0-2.63,2.63-4.91,3.03
				s-5.75-1.6-5.75-1.6l-1.52,0.03C308.54,107.44,307.37,106.87,306.91,105.99z"/>
			<path class="st71" d="M308.76,107.44c0,0,0.79-0.51,1.45-0.38s1.34,1.09,1.34,1.09S310.15,107.41,308.76,107.44z"/>
			<path class="st72" d="M320.71,105.99c0.84-0.82-3.52-8.58-5.6-8.87s-4.04,8.7-4.04,8.7s2.9,0.41,5.71,0.78
				C319.59,106.98,320.71,105.99,320.71,105.99z"/>
			<linearGradient id="SVGID_60_" gradientUnits="userSpaceOnUse" x1="320.3612" y1="100.8372" x2="320.3612" y2="81.5439">
				<stop  offset="0" style="stop-color:#FFEADB"/>
				<stop  offset="0.9944" style="stop-color:#C27CB6"/>
			</linearGradient>
			<path class="st73" d="M323.82,81.55c-1.18-0.15-5.35,4.92-5.35,4.92s-2.65,8.21-2.13,10.64c0.52,2.44,6.96,3.73,6.96,3.73
				l0.27-0.43v-0.01c-0.33-0.77-0.61-1.58-0.79-2.46c-0.51-2.52,0.58-8.27,1.37-12.98c0,0,0.26-0.97,0.29-1.87
				C324.47,82.33,324.36,81.61,323.82,81.55z"/>
			<linearGradient id="SVGID_61_" gradientUnits="userSpaceOnUse" x1="301.2464" y1="140.41" x2="301.2464" y2="46.7772">
				<stop  offset="0" style="stop-color:#2E33A0"/>
				<stop  offset="1" style="stop-color:#0665A5"/>
			</linearGradient>
			<path class="st74" d="M323.63,114.89c-1.33-2.78-0.51-4.23-12.06-5.74c-16.35-2.15-17.75,2.84-20.53,2.08
				c-0.1-0.03-0.22-0.07-0.33-0.12c-3.01-1.17-10.1-8.14-10.28-17.53c-0.19-9.76,6.35-16.68,6.35-16.68
				c-2.37-1.99-3.32-7.76-0.76-10.23c2.56-2.46,6.92-1.89,17.62-0.76c10.71,1.14,10.71,0.48,10.71,0.48c3.4,0.87,5.35,4.06,5.9,5.08
				c0.11,0.2,0.16,0.32,0.16,0.32l1.33-1.23c3.6,5.21,2.94,10.89,2.94,10.89s5.87-11.94,5.2-13.63c-1.22-3.12-4.61-7.67-4.82-7.96
				l-0.01-0.01c0,0-0.95-9.09-3.79-9.09s-14.97,2.74-14.97,2.74c1.33-3.12,1.14-6.72,1.14-6.72s-0.02,0.02-0.05,0.05
				c-3.96,3.55-7.83,3.94-13.31,6.48c-2.76,1.29-4.06,2.48-5.13,3.72l-0.37,0.44l-0.39,0.47c-0.38,0.48-0.77,0.97-1.24,1.47
				c-0.02,0.03-0.05,0.05-0.06,0.06c-0.02,0.02-0.03,0.03-0.03,0.03c-0.44,0.48-0.96,0.97-1.59,1.49
				c-3.6,2.93-11.52,4.89-12.47,7.99c-0.95,3.09,1.2,7.32,2.34,11.68c1.13,4.36,0.61,8.21,0.61,8.21s3.77,4.86,2.52,11.97
				c-1.11,6.37-3.54,7.41-3.54,7.41c-1.71,3.51-0.9,6.79-0.9,6.79c3.5,13.92,17.98,22.21,17.98,22.21
				c12.88,4.8,21.35,2.71,21.35,2.71s0,0,0.01-0.01c9.37-6.11,12.58-26.33,12.72-27.27C325.72,112.93,323.98,115.63,323.63,114.89z
				 M317.85,127.78c-2.27-0.38-2.75-6.13-3.5-6.89c-0.76-0.75-4.87-0.44-4.87-0.44s-3.79,4.3-5.3,4.42
				c-1.52,0.13-9.6-3.16-7.85-8.08c1.74-4.93,7.85-5.56,7.85-5.56s3.16,2.65,7.89,2.96c4.74,0.31,6.45-0.56,7.01-0.81
				c0.57-0.26,3.62,1.13,3.54,5.43C322.57,121.8,320.13,128.16,317.85,127.78z"/>
			<path class="st75" d="M317.26,98.84c0,0,4.08,5.07,3.69,6.98c-0.43,2.09-5.16,3.2-5.16,3.2s3.79-1.31,4.57-3.2
				C320.37,105.82,319.4,101.98,317.26,98.84z"/>
			<linearGradient id="SVGID_62_" gradientUnits="userSpaceOnUse" x1="325.8394" y1="81.4472" x2="325.8394" y2="59.8472">
				<stop  offset="0" style="stop-color:#FFEADB"/>
				<stop  offset="0.9944" style="stop-color:#8860C7"/>
			</linearGradient>
			<path class="st76" d="M324.68,81.45c0,0,0.66-5.68-2.94-10.89c2.89-5.16,3.31-10.71,3.31-10.71l0.01,0.01
				c0.98,2.41,1.54,7.1,1.54,7.1l3.28,0.86C330.55,69.51,324.68,81.45,324.68,81.45z"/>
			<linearGradient id="SVGID_63_" gradientUnits="userSpaceOnUse" x1="296.4047" y1="140.41" x2="296.4047" y2="46.7772">
				<stop  offset="0" style="stop-color:#CCC2DB"/>
				<stop  offset="0.9944" style="stop-color:#8860C7"/>
			</linearGradient>
			<path class="st77" d="M320.25,71.47c-0.55-1.02-2.5-4.21-5.9-5.08c0,0,0,0.66-10.71-0.48c-10.7-1.13-15.06-1.7-17.62,0.76
				c-2.56,2.47-1.61,8.24,0.76,10.23c0,0-6.54,6.92-6.35,16.68c0.18,9.39,7.27,16.36,10.28,17.53l-0.14,1.04
				c0,0,0.53,21.5,5.76,23.21c5.22,1.7,16.06,0.82,17.07,1.83c0.96,0.96-0.14,2.61-0.24,2.76c-0.01,0.01-0.01,0.01-0.01,0.01
				s-8.47,2.09-21.35-2.71c0,0-14.48-8.29-17.98-22.21c0,0-0.81-3.28,0.9-6.79c0,0,2.43-1.04,3.54-7.41
				c1.25-7.11-2.52-11.97-2.52-11.97s0.52-3.85-0.61-8.21c-1.14-4.36-3.29-8.59-2.34-11.68c6.06,0.95,10.04-2.21,10.04-2.21
				s1.06-1.47,5.75-2.23c4.69-0.76,23.54,1.14,23.54,1.14s-1.89-1.57-5.87-2.61c-3.76-0.99-16.6,0.16-17.98,0.27
				c1.47-0.26,16.03-2.76,17.69-2.26c1.76,0.52,8.06,3.41,8.06,3.41c-0.57-2.89-6.21-9.85-6.21-9.85s-7.96,0.14-13.17,1.23
				c-4.65,0.97-7.2,3.1-7.7,3.54l1.24-1.47l0.39-0.47l0.37-0.44l1.82-0.31l9.14-3.69c3.07-1.64,7-5.7,7.48-6.2
				c0.03-0.03,0.05-0.05,0.05-0.05s0.19,3.6-1.14,6.72c7.72-0.95,10.33-0.47,10.33-0.47C320.13,58,320.25,71.47,320.25,71.47z"/>
			<linearGradient id="SVGID_64_" gradientUnits="userSpaceOnUse" x1="302.6831" y1="140.3878" x2="302.6831" y2="136.3649">
				<stop  offset="0" style="stop-color:#776D7E"/>
				<stop  offset="1" style="stop-color:#9D68C2"/>
			</linearGradient>
			<path class="st78" d="M291.8,137.25c0,0,4.73-1.12,11.87-0.84c7.14,0.29,11.25,0.32,9.48,3.55
				C313.15,139.96,304.18,141.98,291.8,137.25z"/>
			<linearGradient id="SVGID_65_" gradientUnits="userSpaceOnUse" x1="314.4856" y1="53.4972" x2="314.4856" y2="50.5085">
				<stop  offset="0" style="stop-color:#1F77D1"/>
				<stop  offset="1" style="stop-color:#0686C9"/>
			</linearGradient>
			<path class="st79" d="M316.62,53.03c0,0,4.34-1.69,6.06-1.42c0,0-0.68-0.91-1.39-1.1c-0.71-0.19-15,2.98-15,2.98
				S315.2,52.46,316.62,53.03z"/>
			<linearGradient id="SVGID_66_" gradientUnits="userSpaceOnUse" x1="295.4463" y1="63.3372" x2="295.4463" y2="54.5006">
				<stop  offset="0" style="stop-color:#1F77D1"/>
				<stop  offset="1" style="stop-color:#0686C9"/>
			</linearGradient>
			<path class="st80" d="M307.81,54.64c0,0-0.34,4.73-1.85,6.44l-17.69,2.26l-5.19-0.92c0,0,2.01-0.86,4.22-3.43
				C289.51,56.41,301.04,53.88,307.81,54.64z"/>
			<linearGradient id="SVGID_67_" gradientUnits="userSpaceOnUse" x1="327.4677" y1="67.8172" x2="327.4677" y2="59.8472">
				<stop  offset="0" style="stop-color:#1F77D1"/>
				<stop  offset="1" style="stop-color:#0686C9"/>
			</linearGradient>
			<path class="st81" d="M325.05,59.85c0,0,1.44,4.65,1.55,7.11l3.28,0.86C329.88,67.82,328.89,64.3,325.05,59.85z"/>
			<linearGradient id="SVGID_68_" gradientUnits="userSpaceOnUse" x1="274.7432" y1="102.8894" x2="264.5474" y2="90.3983">
				<stop  offset="0" style="stop-color:#FFEADB"/>
				<stop  offset="0.9944" style="stop-color:#B060F4"/>
			</linearGradient>
			<path class="st82" d="M276.85,100.11c0,0-1.24-5.97-4.29-8.92c-3.05-2.95-6.52-2.01-6.52-2.01s0.95,11.07,1.94,13.77
				c0.99,2.7,2.51,3.41,2.51,3.41s-2.13-1.87-2.42-5.53c-0.28-3.66-0.38-8.82,0.43-9.44c0.81-0.62,4.06,1.79,4.06,1.79
				s-1.03,1.26-1.64,4.52c-0.62,3.26,1.66,5.63,2.51,5.58c0.85-0.05-0.05-3.77,0.09-4.85S275.55,97.6,276.85,100.11z"/>
			<linearGradient id="SVGID_69_" gradientUnits="userSpaceOnUse" x1="275.8105" y1="101.2805" x2="270.7939" y2="95.1345">
				<stop  offset="0" style="stop-color:#FFEADB"/>
				<stop  offset="0.9944" style="stop-color:#B060F4"/>
			</linearGradient>
			<path class="st83" d="M273.81,92.69c0,0-3.33,2.19-2.97,6.67c0.36,4.49,2.92,4.29,2.93,3.35c0.01-0.94-0.49-3.37-0.23-4.74
				c0.26-1.37,2.47-0.75,2.47-0.75S274.56,93.66,273.81,92.69z"/>
			<path class="st84" d="M325.88,112.68c0,0-4.14,18.87-12.73,27.28C313.15,139.96,322.95,136.11,325.88,112.68z"/>
			<path class="st84" d="M321.29,50.52c0,0,2.18,1.7,2.6,7.59c0.41,5.9-2.14,12.45-2.14,12.45s3.28-4.9,3.6-10.27
				C325.65,54.92,323.02,51.2,321.29,50.52z"/>
		</g>
		<linearGradient id="SVGID_70_" gradientUnits="userSpaceOnUse" x1="294.8559" y1="64.1275" x2="312.1227" y2="64.1275">
			<stop  offset="0" style="stop-color:#1F77D1"/>
			<stop  offset="1" style="stop-color:#0686C9"/>
		</linearGradient>
		<path class="st85" d="M294.86,62.87c0,0,5.05,1.72,10.59,2.21c5.54,0.49,6.68,0.6,6.68,0.6s-2.23-2.16-6.97-2.81
			C300.41,62.22,294.86,62.87,294.86,62.87z"/>
		<linearGradient id="SVGID_71_" gradientUnits="userSpaceOnUse" x1="319.2101" y1="115.7659" x2="324.4472" y2="115.7659">
			<stop  offset="0" style="stop-color:#1F77D1"/>
			<stop  offset="1" style="stop-color:#0686C9"/>
		</linearGradient>
		<path class="st86" d="M319.26,113.09c0,0,2.42,0,3.37,3.03c0.76,2.42,0.97,4.5,0.97,4.5l0.86-3.32c0,0-1.12-4.21-2.28-5.16
			c-0.84-0.68-2.28-1.37-2.96-1.21L319.26,113.09z"/>
		<linearGradient id="SVGID_72_" gradientUnits="userSpaceOnUse" x1="312.7443" y1="111.8717" x2="318.3929" y2="111.8717">
			<stop  offset="0" style="stop-color:#1F77D1"/>
			<stop  offset="1" style="stop-color:#0686C9"/>
		</linearGradient>
		<path class="st87" d="M312.74,110.06l0.41,3.6c0,0,2.94,0.24,4.89-0.57l0.35-2.18C318.39,110.91,314.64,109.96,312.74,110.06z"/>
		<path class="st84" d="M326.17,156.59c0,0,17.23,12.58,19.46,16.91c2.24,4.33,3.14,17.9,6.16,23.78c0,0-2.07-9.61-3.52-17.14
			c-1.45-7.53-1.1-7.64-1.91-9.49C345.57,168.8,332.7,159.87,326.17,156.59z"/>
		<path class="st84" d="M323.09,226.63c0,0-8.3,35.54-7.93,37.94c0.38,2.4,5.75,7.3,6,8.64c0,0-4.11,5.5-3.92,6.72
			c0.19,1.22,7.2,8.92,7.01,11.31c-0.05,0.69-4.6,8.19-4.6,8.19s5.14-7.37,5.39-8.55c0.25-1.18-6.3-11.03-6.49-12.03
			c-0.5-2.59,3.27-4.5,3.39-6.2c0.13-1.71-5.09-5.87-5.14-8.65C316.77,261.23,323.09,226.63,323.09,226.63z"/>
		<path class="st84" d="M324.77,311.36c0,0,17.95,40.64,24.07,81.27C348.84,392.63,347.82,352.97,324.77,311.36z"/>
		<path class="st72" d="M210.96,148.43c0,0-4.64-0.99-6.57-5.04c-1.93-4.05-0.67-9.92-0.67-9.92s3.64,6.98,5.45,9.36
			C210.98,145.21,211.47,147.92,210.96,148.43z"/>
		<g>
			<path class="st88" d="M354.27,127.24l3.22,91.8c0.13,3.64,3.12,6.53,6.76,6.53h158.13c3.67,0,6.67-2.93,6.76-6.6l2.21-92.87
				c0.09-3.82-2.99-6.95-6.81-6.92l-163.56,1.07C357.18,120.27,354.14,123.43,354.27,127.24z"/>
			<g>
				<path class="st89" d="M522.38,225.81H364.25c-3.8,0-6.88-2.97-7.01-6.77l-3.22-91.8c-0.07-1.91,0.62-3.72,1.95-5.1
					c1.32-1.38,3.1-2.15,5.02-2.16l163.57-1.07c1.9,0.01,3.71,0.73,5.05,2.1c1.34,1.37,2.06,3.17,2.01,5.08l-2.21,92.87
					C529.3,222.81,526.22,225.81,522.38,225.81z M524.6,119.42c-0.01,0-0.03,0-0.04,0l-163.57,1.07c-1.78,0.01-3.43,0.72-4.66,2
					c-1.23,1.28-1.87,2.96-1.81,4.74l3.22,91.8c0.12,3.53,2.98,6.29,6.51,6.29h158.13c3.51,0,6.43-2.85,6.51-6.36l2.21-92.87
					c0.04-1.78-0.62-3.45-1.87-4.72C528.01,120.11,526.36,119.42,524.6,119.42z"/>
			</g>
			<linearGradient id="SVGID_73_" gradientUnits="userSpaceOnUse" x1="354.4086" y1="125.5734" x2="531.4671" y2="125.5734">
				<stop  offset="0" style="stop-color:#9D68C2"/>
				<stop  offset="1" style="stop-color:#AEC2FF"/>
			</linearGradient>
			<path class="st90" d="M354.51,131.92h176.66l0.28-4.84c0.25-4.28-3.17-7.88-7.46-7.85l-163.5,1.29
				c-3.41,0.03-6.15,2.84-6.08,6.25L354.51,131.92z"/>
			<linearGradient id="SVGID_74_" gradientUnits="userSpaceOnUse" x1="390.4267" y1="192.4468" x2="390.4267" y2="139.0446">
				<stop  offset="0" style="stop-color:#CCEDFF"/>
				<stop  offset="1" style="stop-color:#9D68C2"/>
			</linearGradient>
			<polygon class="st91" points="363.39,139.32 363.39,192.45 417.46,192.45 417.46,139.04 			"/>
			<linearGradient id="SVGID_75_" gradientUnits="userSpaceOnUse" x1="481.4855" y1="166.4107" x2="481.4855" y2="142.8881">
				<stop  offset="0" style="stop-color:#CCEDFF"/>
				<stop  offset="1" style="stop-color:#9D68C2"/>
			</linearGradient>
			<rect x="469.72" y="142.89" class="st92" width="23.52" height="23.52"/>
			<linearGradient id="SVGID_76_" gradientUnits="userSpaceOnUse" x1="509.239" y1="166.4107" x2="509.239" y2="142.8881">
				<stop  offset="0" style="stop-color:#CCEDFF"/>
				<stop  offset="1" style="stop-color:#9D68C2"/>
			</linearGradient>
			<rect x="497.48" y="142.89" class="st93" width="23.52" height="23.52"/>
			<linearGradient id="SVGID_77_" gradientUnits="userSpaceOnUse" x1="453.2683" y1="166.4107" x2="453.2683" y2="142.8881">
				<stop  offset="0" style="stop-color:#CCEDFF"/>
				<stop  offset="1" style="stop-color:#9D68C2"/>
			</linearGradient>
			<rect x="441.51" y="142.89" class="st94" width="23.52" height="23.52"/>
			<rect x="460.85" y="180.13" class="st95" width="60.15" height="5.63"/>
			<rect x="445.8" y="188.7" class="st95" width="75.2" height="1.74"/>
			<rect x="446.51" y="169.41" class="st95" width="14.39" height="1.74"/>
			<rect x="474.29" y="169.41" class="st95" width="14.39" height="1.74"/>
			<rect x="502.05" y="169.41" class="st95" width="14.39" height="1.74"/>
			<rect x="441.51" y="191.53" class="st95" width="24.19" height="1.74"/>
			<rect x="445.8" y="194.34" class="st95" width="75.2" height="1.74"/>
			<rect x="441.51" y="197.14" class="st95" width="79.49" height="1.74"/>
			<rect x="441.51" y="199.94" class="st95" width="79.49" height="1.74"/>
			<rect x="445.8" y="211.26" class="st95" width="75.2" height="1.74"/>
			<rect x="441.51" y="214.06" class="st95" width="79.49" height="1.74"/>
			<rect x="441.51" y="216.86" class="st95" width="79.49" height="1.74"/>
			<rect x="441.51" y="202.74" class="st95" width="76.3" height="1.74"/>
			<rect x="445.8" y="205.54" class="st95" width="75.2" height="1.74"/>
			<rect x="441.51" y="208.34" class="st95" width="64.41" height="1.74"/>
			<g>
				<path class="st96" d="M378.54,181.79c-8.48,0-15.38-6.9-15.38-15.38c0-8.48,6.9-15.38,15.38-15.38c8.48,0,15.38,6.9,15.38,15.38
					C393.92,174.89,387.02,181.79,378.54,181.79z M378.54,152.03c-7.93,0-14.38,6.45-14.38,14.38c0,7.93,6.45,14.38,14.38,14.38
					c7.93,0,14.38-6.45,14.38-14.38C392.92,158.48,386.47,152.03,378.54,152.03z"/>
			</g>
			<circle class="st8" cx="378.54" cy="166.41" r="8.36"/>
			<g>
				<path class="st96" d="M417.47,154.43c-8.48,0-15.38-6.9-15.38-15.38s6.9-15.38,15.38-15.38c8.48,0,15.38,6.9,15.38,15.38
					S425.95,154.43,417.47,154.43z M417.47,124.66c-7.93,0-14.38,6.45-14.38,14.38c0,7.93,6.45,14.38,14.38,14.38
					c7.93,0,14.38-6.45,14.38-14.38C431.85,131.11,425.4,124.66,417.47,124.66z"/>
			</g>
			
				<ellipse transform="matrix(0.1554 -0.9878 0.9878 0.1554 215.2183 529.8214)" class="st8" cx="417.46" cy="139.04" rx="7.87" ry="7.87"/>
			<g>
				<polygon class="st8" points="360.7,124.71 361.82,123 367.9,128.33 366.97,129.63 				"/>
				<polygon class="st8" points="368.05,124.71 366.93,123 360.85,128.33 361.78,129.63 				"/>
			</g>
			<rect x="472.45" y="124.16" class="st8" width="54.44" height="2.73"/>
		</g>
		<g>
			<linearGradient id="SVGID_78_" gradientUnits="userSpaceOnUse" x1="200.2808" y1="108.6146" x2="200.2808" y2="83.9926">
				<stop  offset="0" style="stop-color:#D93DE3"/>
				<stop  offset="1" style="stop-color:#FF6DBA"/>
			</linearGradient>
			<polygon class="st97" points="185.96,84.75 185.96,108.37 214.22,108.61 214.6,83.99 			"/>
			<linearGradient id="SVGID_79_" gradientUnits="userSpaceOnUse" x1="215.3307" y1="108.6146" x2="215.3307" y2="83.9926">
				<stop  offset="0" style="stop-color:#A242EA"/>
				<stop  offset="1" style="stop-color:#FE117E"/>
			</linearGradient>
			<polygon class="st98" points="214.6,83.99 216.44,87.1 215.52,108.59 214.22,108.61 			"/>
			<polygon class="st8" points="191.01,92.72 193.62,88.94 207.73,100.78 205.56,103.66 			"/>
			<polygon class="st8" points="208.09,92.72 205.48,88.94 191.37,100.78 193.53,103.66 			"/>
		</g>
		<g>
			<linearGradient id="SVGID_80_" gradientUnits="userSpaceOnUse" x1="196.0083" y1="367.9972" x2="209.3232" y2="261.9831">
				<stop  offset="0" style="stop-color:#067EFF"/>
				<stop  offset="1" style="stop-color:#3E37A0"/>
			</linearGradient>
			<path class="st99" d="M251.88,362.81h-96.69c-4.3,0-7.82-3.44-7.92-7.74l-1.81-79.31c-0.1-4.44,3.47-8.1,7.92-8.1h100.67
				c4.46,0,8.04,3.68,7.92,8.14l-2.17,79.31C259.68,359.39,256.17,362.81,251.88,362.81z"/>
			<g>
				<path class="st100" d="M251.88,363.06h-96.69c-4.4,0-8.07-3.58-8.17-7.98l-1.81-79.31c-0.05-2.22,0.78-4.31,2.33-5.9
					c1.55-1.58,3.62-2.46,5.84-2.46h100.67c2.22,0,4.3,0.88,5.86,2.47c1.55,1.59,2.37,3.7,2.31,5.92l-2.18,79.31
					C259.93,359.57,256.34,363.06,251.88,363.06z M153.39,267.91c-2.08,0-4.03,0.82-5.48,2.31c-1.46,1.49-2.23,3.46-2.18,5.54
					l1.81,79.31c0.09,4.13,3.53,7.49,7.67,7.49h96.69c4.18,0,7.55-3.28,7.67-7.46l2.18-79.31c0.06-2.09-0.71-4.06-2.17-5.56
					c-1.46-1.5-3.41-2.32-5.5-2.32H153.39z"/>
			</g>
			<g>
				<rect x="171.54" y="283.89" class="st8" width="50.85" height="2.18"/>
				<rect x="171.54" y="289.18" class="st8" width="25.42" height="2.18"/>
				<rect x="171.54" y="293.6" class="st8" width="25.42" height="2.18"/>
				<rect x="199.81" y="293.6" class="st8" width="20.23" height="2.18"/>
				<rect x="171.54" y="298.02" class="st8" width="40.99" height="2.18"/>
				<rect x="171.54" y="302.44" class="st8" width="14.59" height="2.18"/>
				<rect x="189.12" y="315.71" class="st8" width="25.23" height="2.18"/>
				<rect x="171.54" y="306.87" class="st8" width="45.73" height="2.18"/>
				<rect x="171.54" y="311.29" class="st8" width="35.18" height="2.18"/>
				<rect x="171.54" y="315.71" class="st8" width="16.55" height="2.18"/>
				<rect x="171.54" y="320.13" class="st8" width="25.42" height="2.18"/>
				<rect x="171.54" y="324.55" class="st8" width="7.29" height="2.18"/>
				<rect x="181.83" y="324.55" class="st8" width="26.46" height="2.18"/>
				<rect x="189.12" y="328.84" class="st8" width="25.23" height="2.18"/>
				<rect x="171.54" y="328.84" class="st8" width="16.55" height="2.18"/>
				<rect x="171.54" y="333.26" class="st8" width="25.42" height="2.18"/>
				<rect x="171.54" y="337.68" class="st8" width="7.29" height="2.18"/>
				<rect x="181.83" y="337.68" class="st8" width="26.46" height="2.18"/>
			</g>
		</g>
		<linearGradient id="SVGID_81_" gradientUnits="userSpaceOnUse" x1="506.8618" y1="105.9355" x2="506.8618" y2="96.9983">
			<stop  offset="0" style="stop-color:#459FFF"/>
			<stop  offset="1" style="stop-color:#A96DFF"/>
		</linearGradient>
		<path class="st101" d="M511.33,101.47c0,2.47-2,4.47-4.47,4.47c-2.47,0-4.47-2-4.47-4.47c0-2.47,2-4.47,4.47-4.47
			C509.33,97,511.33,99,511.33,101.47z"/>
		<linearGradient id="SVGID_82_" gradientUnits="userSpaceOnUse" x1="86.8684" y1="210.6655" x2="86.8684" y2="199.5422">
			<stop  offset="0" style="stop-color:#459FFF"/>
			<stop  offset="1" style="stop-color:#A96DFF"/>
		</linearGradient>
		<path class="st102" d="M92.43,205.1c0,3.07-2.49,5.56-5.56,5.56s-5.56-2.49-5.56-5.56c0-3.07,2.49-5.56,5.56-5.56
			S92.43,202.03,92.43,205.1z"/>
		<linearGradient id="SVGID_83_" gradientUnits="userSpaceOnUse" x1="519.9869" y1="105.9355" x2="519.9869" y2="96.9983">
			<stop  offset="0" style="stop-color:#B31A8F"/>
			<stop  offset="1" style="stop-color:#FE117E"/>
		</linearGradient>
		<circle class="st103" cx="519.99" cy="101.47" r="4.47"/>
		<linearGradient id="SVGID_84_" gradientUnits="userSpaceOnUse" x1="231.816" y1="135.3528" x2="231.816" y2="129.0332">
			<stop  offset="0" style="stop-color:#B31A8F"/>
			<stop  offset="1" style="stop-color:#FE117E"/>
		</linearGradient>
		<circle class="st104" cx="231.82" cy="132.19" r="3.16"/>
		<linearGradient id="SVGID_85_" gradientUnits="userSpaceOnUse" x1="443.4726" y1="274.7904" x2="443.4726" y2="268.4708">
			<stop  offset="0" style="stop-color:#8642A0"/>
			<stop  offset="1" style="stop-color:#6456C0"/>
		</linearGradient>
		<circle class="st105" cx="443.47" cy="271.63" r="3.16"/>
		<linearGradient id="SVGID_86_" gradientUnits="userSpaceOnUse" x1="114.951" y1="305.9599" x2="114.951" y2="300.3103">
			<stop  offset="0" style="stop-color:#8642A0"/>
			<stop  offset="1" style="stop-color:#6456C0"/>
		</linearGradient>
		<circle class="st106" cx="114.95" cy="303.14" r="2.82"/>
		<g>
			<linearGradient id="SVGID_87_" gradientUnits="userSpaceOnUse" x1="138.6558" y1="275.3986" x2="138.6558" y2="228.736">
				<stop  offset="0" style="stop-color:#D906E3"/>
				<stop  offset="1" style="stop-color:#FF6DF9"/>
			</linearGradient>
			<path class="st107" d="M163.11,275.4h-48.8c-3.93,0-7.15-3.11-7.28-7.04l-1.08-32.1c-0.14-4.12,3.16-7.53,7.28-7.53h50.86
				c4.11,0,7.41,3.4,7.28,7.51l-0.98,32.1C170.27,272.27,167.04,275.4,163.11,275.4z"/>
			<g>
				<path class="st108" d="M163.11,275.65h-48.8c-4.08,0-7.39-3.2-7.53-7.28l-1.08-32.1c-0.07-2.06,0.68-4.01,2.11-5.49
					c1.43-1.48,3.36-2.3,5.42-2.3h50.86c2.06,0,3.98,0.81,5.41,2.29c1.43,1.48,2.19,3.42,2.12,5.48l-0.98,32.1
					C170.51,272.44,167.2,275.65,163.11,275.65z M113.22,228.99c-1.92,0-3.72,0.76-5.06,2.14s-2.04,3.2-1.97,5.13l1.08,32.1
					c0.13,3.81,3.22,6.8,7.03,6.8h48.8c3.82,0,6.91-3,7.03-6.82l0.98-32.1c0.06-1.92-0.65-3.73-1.98-5.11
					c-1.34-1.38-3.13-2.14-5.05-2.14H113.22z"/>
			</g>
			<g>
				<polygon class="st8" points="127.32,240.27 115.29,254.21 127.54,264.61 127.54,259.25 120.45,253.11 127.03,245.67 				"/>
			</g>
			<g>
				<polygon class="st8" points="148.47,240.89 160.5,254.84 148.25,265.24 148.25,259.87 155.33,253.74 147.45,245.39 				"/>
			</g>
			<g>
				<polygon class="st8" points="129.94,264.61 140.42,241.52 145.35,241.52 133.48,264.61 				"/>
			</g>
		</g>
		<g>
			<linearGradient id="SVGID_88_" gradientUnits="userSpaceOnUse" x1="460.8468" y1="341.4487" x2="460.8468" y2="283.0745">
				<stop  offset="0" style="stop-color:#D906E3"/>
				<stop  offset="1" style="stop-color:#FF6DF9"/>
			</linearGradient>
			<path class="st109" d="M491.43,341.45h-61.05c-4.91,0-8.94-3.89-9.11-8.8l-1.36-40.15c-0.17-5.15,3.95-9.42,9.11-9.42h63.63
				c5.14,0,9.26,4.25,9.11,9.39l-1.23,40.15C500.39,337.54,496.36,341.45,491.43,341.45z"/>
			<g>
				<path class="st108" d="M491.43,341.7h-61.05c-5.08,0-9.18-3.97-9.36-9.04l-1.36-40.15c-0.09-2.56,0.85-4.98,2.63-6.82
					c1.78-1.84,4.17-2.85,6.73-2.85h63.63c2.55,0,4.94,1.01,6.72,2.84c1.78,1.83,2.72,4.25,2.64,6.8l-1.23,40.15
					C500.64,337.71,496.53,341.7,491.43,341.7z M429.03,283.32c-2.42,0-4.69,0.96-6.37,2.7c-1.68,1.74-2.57,4.04-2.49,6.46
					l1.36,40.15c0.16,4.8,4.05,8.56,8.86,8.56h61.05c4.82,0,8.71-3.77,8.86-8.59l1.23-40.15c0.07-2.42-0.81-4.71-2.5-6.44
					c-1.68-1.74-3.94-2.69-6.36-2.69H429.03z"/>
			</g>
			<rect x="432.16" y="289.54" class="st95" width="55.91" height="33.21"/>
			<polygon class="st8" points="455.16,297.78 455.16,314.5 469.45,305.38 			"/>
			<rect x="432.16" y="328.86" class="st95" width="55.91" height="3.04"/>
			<rect x="432.16" y="328.86" class="st8" width="14.47" height="3.04"/>
		</g>
		<g>
			<g>
				
					<linearGradient id="SVGID_89_" gradientUnits="userSpaceOnUse" x1="404.9264" y1="267.4052" x2="399.9525" y2="224.7142" gradientTransform="matrix(0.9656 0.26 -0.26 0.9656 63.6333 -54.681)">
					<stop  offset="0" style="stop-color:#1852A0"/>
					<stop  offset="1" style="stop-color:#067ED3"/>
				</linearGradient>
				<path class="st110" d="M391.2,279.04l-2.92,8.35C389.89,282.78,392.21,279.78,391.2,279.04z M388.28,287.39l-2.92,8.35
					C386.09,295.52,386.66,292,388.28,287.39z M391.2,279.04l-2.92,8.35C389.89,282.78,392.21,279.78,391.2,279.04z M388.28,287.39
					l-2.92,8.35C386.09,295.52,386.66,292,388.28,287.39z M396.7,294.62l2.83,1.61l3.06-8.35l-3.28-0.55
					c0.06-0.31,0.12-0.62,0.16-0.93c0.24-1.43,0.32-2.83,0.28-4.16l3.43-2.15l-1.56-7.36l-3.29,3.14c-0.46-0.94-1.02-1.76-1.68-2.45
					c-0.18-0.2-0.37-0.38-0.57-0.55l2.01-4.64l-5.35-1.74l0,0l-1.28,4.68c-1.2,0-2.41,0.3-3.62,0.85l-0.59-4.42l-5.89,4.46
					l1.36,3.92c-1.06,1.21-2.03,2.61-2.87,4.18l-2.84-1.6l-3.06,8.35l3.28,0.55c-0.35,1.76-0.48,3.47-0.43,5.09l-3.43,2.15
					l1.56,7.36l3.29-3.14c0.59,1.2,1.34,2.22,2.25,3l-2.01,4.65l5.26,2.05l0.81-2.96l0.55-2.02c1.2,0,2.42-0.3,3.63-0.84l0.58,4.42
					l5.89-4.46l-1.36-3.92c0.83-0.95,1.61-2.02,2.32-3.2C396.34,295.29,396.52,294.96,396.7,294.62z M388.28,287.39
					c-1.62,4.61,0,9.37-2.92,8.35c-2.93-1.03-4-5.6-2.38-10.2c1.62-4.61,5.3-7.51,8.22-6.49
					C394.13,280.07,389.89,282.78,388.28,287.39z M391.2,279.04l-2.92,8.35C389.89,282.78,392.21,279.78,391.2,279.04z
					 M388.28,287.39l-2.92,8.35C386.09,295.52,386.66,292,388.28,287.39z"/>
			</g>
			
				<linearGradient id="SVGID_90_" gradientUnits="userSpaceOnUse" x1="400.105" y1="267.567" x2="400.105" y2="223.8225" gradientTransform="matrix(0.9656 0.26 -0.26 0.9656 63.6333 -54.681)">
				<stop  offset="0" style="stop-color:#1852A0"/>
				<stop  offset="1" style="stop-color:#067ED3"/>
			</linearGradient>
			<path class="st111" d="M399.54,296.23l3.06-8.35l-3.12-1.48l-0.5-0.24l0.33-4.6l3.46-1.69l-1.14-7.14l-7.55-2.46l1.39,3.31
				l2.63-5.36l-5.35-1.74l-2.2-0.72l-5.27-2.05l-0.98,3.6l-4.59-2.18l-5.89,4.46l1.79,4.82l-5.51,15.26l-2.72,9.91l5.23,0.57
				l-1.7,3.93l5.27,2.05l7.54,2.46l-1.21-2.42l-0.76-1.45l2.79,0.91l4.76,1.55l5.89-4.46l-3.64-4.29l4.6-2.83L399.54,296.23z
				 M382.97,285.54c1.62-4.61,5.3-7.51,8.22-6.49l-2.92,8.35l-2.92,8.35C382.43,294.71,381.36,290.14,382.97,285.54z"/>
			<g>
				
					<linearGradient id="SVGID_91_" gradientUnits="userSpaceOnUse" x1="361.9657" y1="284.3007" x2="358.7485" y2="256.6869" gradientTransform="matrix(0.9438 0.3306 -0.5202 1.4851 181.3359 -235.9143)">
					<stop  offset="0" style="stop-color:#188DC1"/>
					<stop  offset="1" style="stop-color:#06BFE7"/>
				</linearGradient>
				<path class="st112" d="M391.99,293.77l3.06-8.35l-3.28-0.55c0.35-1.76,0.48-3.47,0.44-5.08l3.43-2.15l-1.56-7.36l-3.29,3.14
					c-0.58-1.2-1.34-2.22-2.25-3l2.01-4.64l-5.27-2.05l-1.36,4.99c-1.2,0.01-2.42,0.3-3.62,0.84l-0.58-4.42l-5.89,4.45l1.36,3.92
					c-1.06,1.21-2.03,2.62-2.87,4.19l-2.84-1.6l-3.06,8.35l3.28,0.55c-0.35,1.76-0.48,3.47-0.44,5.08l-3.43,2.15l1.56,7.36
					l3.29-3.14c0.58,1.2,1.34,2.22,2.25,3l-2.01,4.64l5.27,2.05l1.36-4.99c1.2-0.01,2.42-0.3,3.62-0.84l0.58,4.42l5.89-4.45
					l-1.36-3.92c1.06-1.21,2.03-2.62,2.87-4.19L391.99,293.77z M377.81,293.28c-2.93-1.03-3.99-5.59-2.38-10.2
					c1.61-4.61,5.3-7.51,8.23-6.49c2.93,1.03,3.99,5.59,2.38,10.2C384.42,291.4,380.74,294.3,377.81,293.28z"/>
			</g>
			<polygon class="st113" points="403.18,280.09 395.64,277.63 392.21,279.78 399.75,282.24 			"/>
			<polygon class="st114" points="395.19,302.73 387.64,300.27 386.28,296.35 393.83,298.81 			"/>
			<polygon class="st113" points="388.54,270.42 392.68,271.61 394.08,270.27 396.82,271.17 398.09,268.23 390.55,265.77 			"/>
			<path class="st113" d="M377.54,301.16l3.95,1.64l-0.33-2.49C381.17,300.31,379.04,301.43,377.54,301.16z"/>
			<path class="st113" d="M378.15,278.53l6.65,3.52c0,0,0.96-1.29,1.71-1.81C386.52,280.24,384.79,272.9,378.15,278.53z"/>
		</g>
		<polygon class="st115" points="225.4,29.59 231.82,42.44 227.53,44.39 221.53,32.59 		"/>
		<polygon class="st116" points="80.95,328.93 86.89,335.45 89.22,332.76 83.61,326.59 		"/>
		<polygon class="st117" points="382.73,108 376.75,111.62 374.35,107.08 380.89,103.26 		"/>
		<polygon class="st117" points="412.17,337.71 403.6,343.8 401.2,339.25 409.52,334.39 		"/>
		<g>
			<linearGradient id="SVGID_92_" gradientUnits="userSpaceOnUse" x1="414.9639" y1="80.7246" x2="426.2954" y2="38.6414">
				<stop  offset="0" style="stop-color:#188DC1"/>
				<stop  offset="1" style="stop-color:#06BFE7"/>
			</linearGradient>
			<polygon class="st118" points="400.85,76.92 399.4,43.27 443.47,43.27 441.66,76.83 			"/>
			<linearGradient id="SVGID_93_" gradientUnits="userSpaceOnUse" x1="395.4863" y1="75.8698" x2="403.9364" y2="44.4874">
				<stop  offset="0" style="stop-color:#1852A0"/>
				<stop  offset="1" style="stop-color:#067ED3"/>
			</linearGradient>
			<polygon class="st119" points="399.4,43.27 398.08,45.25 399.4,76.92 400.85,76.92 			"/>
			<polygon class="st8" points="414.04,49.99 407.12,49.25 408.07,72.31 414.04,71.72 414.04,69.34 410.58,69.42 410.18,51.63 
				414.04,51.74 			"/>
			<polygon class="st8" points="428.2,49.99 435.11,49.25 434.17,72.31 428.2,71.72 428.2,69.34 431.66,69.42 432.05,51.63 
				428.2,51.74 			"/>
		</g>
		<g>
			
				<linearGradient id="SVGID_94_" gradientUnits="userSpaceOnUse" x1="119.3117" y1="153.198" x2="127.0366" y2="124.5089" gradientTransform="matrix(-1 0 0 1 206.6559 0)">
				<stop  offset="0" style="stop-color:#188DC1"/>
				<stop  offset="1" style="stop-color:#06BFE7"/>
			</linearGradient>
			<polygon class="st120" points="96.97,150.61 97.95,127.66 67.91,127.66 69.14,150.54 			"/>
			
				<linearGradient id="SVGID_95_" gradientUnits="userSpaceOnUse" x1="106.0333" y1="149.8883" x2="111.794" y2="128.4943" gradientTransform="matrix(-1 0 0 1 206.6559 0)">
				<stop  offset="0" style="stop-color:#1852A0"/>
				<stop  offset="1" style="stop-color:#067ED3"/>
			</linearGradient>
			<polygon class="st121" points="97.95,127.66 98.85,129.02 97.95,150.61 96.97,150.61 			"/>
			<path class="st8" d="M86.38,132.28c0,0,3.29-0.13,3.88,0.14c0.58,0.27-0.15,5.64-0.15,5.64l1.31,1.21l-1.23,1.19
				c0,0,0.06,5.44-0.71,5.89s-3.42,0-3.42,0v-1.36c0,0,2.16,0.14,2.52-0.15c0.36-0.29,0.32-5.04,0.32-5.04l0.58-0.64l-0.58-0.69
				c0,0,0.11-3.39,0.04-4.32c-0.04-0.62-2.56-0.65-2.56-0.65V132.28z"/>
			<path class="st8" d="M78.83,132.28c0,0-3.29-0.13-3.88,0.14s0.15,5.64,0.15,5.64l-1.31,1.21l1.23,1.19c0,0-0.06,5.44,0.71,5.89
				c0.77,0.45,3.42,0,3.42,0v-1.36c0,0-2.16,0.14-2.52-0.15c-0.36-0.29-0.32-5.04-0.32-5.04l-0.58-0.64l0.58-0.69
				c0,0-0.11-3.39-0.04-4.32c0.04-0.62,2.56-0.65,2.56-0.65V132.28z"/>
		</g>
		<g>
			<g>
				<path class="st89" d="M350.47,79.96l-7.36-19.27l19.09,3.99L350.47,79.96z M343.9,61.37l6.72,17.58L361.32,65L343.9,61.37z"/>
			</g>
			<g>
				
					<rect x="400.8" y="348.34" transform="matrix(0.5912 -0.8065 0.8065 0.5912 -115.0611 470.173)" class="st89" width="10.94" height="0.5"/>
			</g>
			<g>
				<polygon class="st89" points="342.53,271.79 335.58,263.14 335.97,262.83 342.92,271.47 				"/>
			</g>
			<g>
				<polygon class="st89" points="128.2,332.51 114.33,322.45 114.63,322.04 128.49,332.1 				"/>
			</g>
			<g>
				
					<rect x="112.85" y="327.03" transform="matrix(0.606 -0.7955 0.7955 0.606 -212.5038 225.5382)" class="st89" width="17.13" height="0.5"/>
			</g>
			<g>
				
					<rect x="101.2" y="177.35" transform="matrix(0.4651 -0.8852 0.8852 0.4651 -107.2209 187.3805)" class="st89" width="0.5" height="10.14"/>
			</g>
			<g>
				<polygon class="st89" points="450.66,64 450.29,63.67 460.66,51.84 461.03,52.17 				"/>
			</g>
			<g>
				
					<rect x="251.05" y="92.18" transform="matrix(0.8953 -0.4454 0.4454 0.8953 -17.0706 122.1191)" class="st89" width="0.5" height="10.41"/>
			</g>
			<g>
				
					<rect x="173.74" y="254.36" transform="matrix(0.767 -0.6416 0.6416 0.767 -121.0755 175.7802)" class="st89" width="15.54" height="0.5"/>
			</g>
		</g>
		<g>
			<path class="st8" d="M267.77,190.28c-0.02-0.03-0.11-0.09-0.25-0.19c-0.14-0.09-0.32-0.19-0.53-0.29c-0.21-0.1-0.45-0.2-0.7-0.28
				c-0.25-0.08-0.51-0.12-0.76-0.13c-0.7-0.02-1.06,0.2-1.08,0.67c0,0.14,0.03,0.26,0.1,0.36s0.18,0.19,0.33,0.27
				c0.15,0.08,0.33,0.16,0.55,0.23c0.22,0.07,0.48,0.15,0.77,0.24c0.4,0.12,0.77,0.26,1.09,0.4c0.32,0.14,0.6,0.32,0.82,0.52
				c0.22,0.2,0.39,0.45,0.5,0.73s0.17,0.62,0.15,1.01c-0.02,0.48-0.12,0.88-0.31,1.21c-0.19,0.33-0.44,0.59-0.74,0.78
				c-0.3,0.19-0.65,0.33-1.03,0.41c-0.39,0.08-0.78,0.11-1.19,0.1c-0.31-0.01-0.63-0.04-0.96-0.1c-0.33-0.06-0.64-0.14-0.95-0.24
				c-0.31-0.1-0.61-0.22-0.9-0.36c-0.29-0.14-0.55-0.29-0.79-0.47l0.92-1.69c0.03,0.04,0.13,0.12,0.3,0.24
				c0.17,0.12,0.39,0.24,0.64,0.36c0.26,0.12,0.54,0.23,0.86,0.33c0.32,0.1,0.64,0.15,0.97,0.16c0.7,0.02,1.05-0.18,1.06-0.6
				c0.01-0.16-0.04-0.29-0.14-0.4c-0.1-0.11-0.24-0.21-0.42-0.3c-0.18-0.09-0.4-0.17-0.65-0.25c-0.25-0.08-0.52-0.17-0.81-0.27
				c-0.39-0.13-0.72-0.27-1.01-0.42c-0.28-0.15-0.52-0.32-0.7-0.51c-0.18-0.19-0.31-0.41-0.4-0.65c-0.08-0.24-0.12-0.52-0.11-0.84
				c0.01-0.45,0.11-0.84,0.29-1.18c0.18-0.34,0.42-0.62,0.71-0.85c0.3-0.23,0.64-0.39,1.02-0.5s0.79-0.15,1.21-0.14
				c0.3,0.01,0.59,0.05,0.87,0.11c0.29,0.07,0.56,0.15,0.82,0.24s0.5,0.21,0.73,0.32c0.22,0.12,0.43,0.24,0.62,0.36L267.77,190.28z"
				/>
			<path class="st8" d="M271.58,196.56c-0.65-0.02-1.13-0.24-1.45-0.65c-0.32-0.42-0.46-1.01-0.44-1.8l0.13-4.03l1.92,0.06
				l-0.12,3.61c-0.01,0.38,0.05,0.68,0.2,0.89c0.14,0.21,0.36,0.32,0.64,0.33c0.26,0.01,0.51-0.05,0.75-0.18s0.46-0.36,0.66-0.69
				l0.13-3.88l1.92,0.06l-0.14,4.14c-0.01,0.19,0.02,0.33,0.08,0.4s0.16,0.13,0.31,0.15l-0.05,1.62c-0.19,0.03-0.34,0.05-0.47,0.06
				c-0.13,0.01-0.24,0.01-0.35,0.01c-0.69-0.02-1.07-0.3-1.15-0.84l-0.02-0.38c-0.3,0.41-0.67,0.7-1.1,0.88
				C272.59,196.49,272.11,196.58,271.58,196.56z"/>
			<path class="st8" d="M280.97,196.87c-0.48-0.02-0.9-0.13-1.25-0.35c-0.35-0.22-0.63-0.51-0.82-0.89l-0.03,1.04l-1.67-0.06
				l0.29-8.75l1.92,0.06l-0.12,3.49c0.22-0.35,0.51-0.63,0.86-0.82c0.35-0.19,0.77-0.28,1.24-0.26c0.4,0.01,0.76,0.11,1.09,0.29
				c0.33,0.18,0.61,0.43,0.84,0.73c0.23,0.3,0.41,0.66,0.53,1.07c0.12,0.41,0.18,0.84,0.16,1.3c-0.02,0.46-0.1,0.88-0.26,1.27
				c-0.16,0.39-0.38,0.73-0.65,1.01c-0.27,0.28-0.59,0.5-0.96,0.65C281.78,196.82,281.39,196.89,280.97,196.87z M280.49,195.23
				c0.22,0.01,0.43-0.03,0.62-0.11c0.19-0.08,0.35-0.19,0.48-0.33c0.14-0.14,0.25-0.31,0.33-0.5s0.13-0.41,0.14-0.64
				c0.01-0.22-0.02-0.44-0.09-0.65c-0.07-0.21-0.16-0.39-0.28-0.54c-0.12-0.16-0.26-0.28-0.44-0.38c-0.17-0.09-0.36-0.14-0.56-0.15
				c-0.3-0.01-0.59,0.08-0.84,0.28c-0.26,0.2-0.46,0.45-0.61,0.76l-0.04,1.32c0.12,0.28,0.3,0.5,0.54,0.66
				C279.97,195.14,280.22,195.23,280.49,195.23z"/>
			<path class="st8" d="M287.32,196.99c-0.42-0.01-0.79-0.11-1.13-0.29c-0.34-0.18-0.62-0.42-0.86-0.71
				c-0.23-0.3-0.41-0.64-0.54-1.03c-0.12-0.39-0.18-0.8-0.16-1.24c0.02-0.46,0.1-0.89,0.26-1.28c0.16-0.39,0.37-0.73,0.63-1.01
				c0.27-0.28,0.58-0.5,0.95-0.66c0.37-0.16,0.76-0.23,1.2-0.21c0.48,0.02,0.89,0.13,1.24,0.35c0.35,0.22,0.63,0.51,0.83,0.87
				l0.03-1.03l1.67,0.06l-0.2,5.86c-0.02,0.48-0.12,0.91-0.31,1.29c-0.19,0.38-0.45,0.7-0.78,0.95c-0.33,0.26-0.72,0.45-1.17,0.58
				c-0.45,0.13-0.95,0.18-1.48,0.17c-0.68-0.02-1.26-0.15-1.73-0.38c-0.47-0.23-0.88-0.56-1.23-0.98l1.07-1.01
				c0.22,0.27,0.5,0.49,0.84,0.66c0.34,0.17,0.7,0.26,1.1,0.27c0.23,0.01,0.45-0.02,0.66-0.07c0.21-0.06,0.4-0.15,0.56-0.28
				c0.16-0.13,0.3-0.29,0.4-0.5c0.1-0.21,0.15-0.46,0.16-0.76l0.02-0.61c-0.2,0.35-0.49,0.6-0.85,0.77
				C288.13,196.92,287.74,197,287.32,196.99z M288.03,195.49c0.3,0.01,0.56-0.06,0.8-0.22c0.24-0.16,0.42-0.36,0.56-0.61l0.04-1.32
				c-0.12-0.34-0.3-0.61-0.56-0.82c-0.26-0.2-0.53-0.31-0.83-0.32c-0.21-0.01-0.4,0.03-0.57,0.12c-0.18,0.09-0.33,0.21-0.46,0.36
				c-0.13,0.15-0.23,0.33-0.31,0.53c-0.08,0.2-0.12,0.41-0.12,0.63c-0.01,0.23,0.02,0.45,0.09,0.65c0.07,0.2,0.17,0.37,0.3,0.52
				c0.13,0.15,0.29,0.27,0.46,0.35C287.62,195.43,287.81,195.48,288.03,195.49z"/>
			<path class="st8" d="M296.7,192.62c-0.46-0.01-0.89,0.05-1.27,0.19c-0.38,0.13-0.66,0.34-0.84,0.62l-0.13,3.78l-1.92-0.06
				l0.21-6.3l1.76,0.06l-0.04,1.27c0.23-0.42,0.52-0.74,0.87-0.97s0.71-0.34,1.1-0.33c0.09,0,0.15,0,0.19,0.01
				c0.04,0,0.08,0.01,0.12,0.02L296.7,192.62z"/>
			<path class="st8" d="M299.05,197.47c-0.31-0.01-0.6-0.07-0.86-0.18c-0.26-0.11-0.49-0.26-0.68-0.44s-0.33-0.4-0.43-0.65
				c-0.1-0.25-0.15-0.52-0.14-0.8c0.01-0.31,0.09-0.59,0.23-0.84s0.33-0.47,0.58-0.64c0.25-0.18,0.53-0.31,0.87-0.4
				s0.7-0.13,1.1-0.12c0.26,0.01,0.52,0.04,0.77,0.09c0.25,0.05,0.46,0.12,0.64,0.22l0.01-0.29c0.02-0.73-0.38-1.11-1.22-1.13
				c-0.34-0.01-0.67,0.04-0.99,0.14c-0.32,0.1-0.65,0.27-1,0.49l-0.52-1.22c0.42-0.26,0.86-0.45,1.32-0.57
				c0.45-0.12,0.93-0.17,1.43-0.16c0.95,0.03,1.68,0.28,2.18,0.74c0.5,0.47,0.74,1.13,0.71,1.99l-0.05,1.62
				c-0.01,0.19,0.02,0.33,0.08,0.41s0.16,0.13,0.31,0.15l-0.05,1.62c-0.17,0.04-0.32,0.06-0.46,0.06c-0.14,0.01-0.26,0.01-0.37,0.01
				c-0.36-0.01-0.63-0.09-0.81-0.24c-0.18-0.15-0.29-0.35-0.33-0.61l-0.03-0.29c-0.29,0.35-0.63,0.62-1.03,0.79
				C299.89,197.41,299.48,197.49,299.05,197.47z M299.66,196.11c0.21,0.01,0.41-0.02,0.61-0.09s0.36-0.16,0.5-0.27
				c0.19-0.14,0.29-0.29,0.29-0.45l0.02-0.6c-0.17-0.07-0.35-0.13-0.54-0.17c-0.19-0.04-0.38-0.07-0.54-0.07
				c-0.35-0.01-0.65,0.06-0.88,0.21c-0.23,0.15-0.35,0.36-0.36,0.61c-0.01,0.23,0.07,0.42,0.24,0.58
				C299.16,196.02,299.38,196.1,299.66,196.11z"/>
			<path class="st8" d="M308.27,197.78c-0.48-0.02-0.89-0.13-1.24-0.34c-0.34-0.21-0.61-0.5-0.79-0.87l-0.12,3.57l-1.92-0.06
				l0.29-8.85l1.67,0.06l-0.03,1.02c0.24-0.35,0.54-0.62,0.9-0.81c0.35-0.19,0.77-0.27,1.25-0.26c0.42,0.01,0.81,0.11,1.16,0.29
				c0.35,0.18,0.65,0.42,0.9,0.72c0.25,0.3,0.44,0.65,0.58,1.05c0.13,0.4,0.19,0.83,0.18,1.29c-0.02,0.47-0.1,0.91-0.25,1.3
				c-0.15,0.4-0.35,0.74-0.6,1.02c-0.25,0.28-0.55,0.5-0.89,0.66C309.03,197.72,308.66,197.79,308.27,197.78z M307.68,196.14
				c0.21,0.01,0.4-0.03,0.57-0.12s0.33-0.2,0.46-0.35c0.13-0.15,0.24-0.32,0.31-0.52c0.07-0.2,0.12-0.41,0.12-0.64
				c0.01-0.23-0.02-0.45-0.09-0.65c-0.07-0.2-0.17-0.37-0.29-0.52s-0.28-0.26-0.47-0.35c-0.19-0.09-0.38-0.13-0.6-0.14
				c-0.26-0.01-0.52,0.06-0.77,0.21c-0.25,0.15-0.44,0.35-0.58,0.61l-0.04,1.29c0.12,0.32,0.3,0.6,0.56,0.82
				C307.1,196.01,307.38,196.13,307.68,196.14z"/>
			<path class="st8" d="M318.04,197.99l-1.92-0.06l0.12-3.54c0.01-0.41-0.06-0.71-0.21-0.91c-0.15-0.2-0.37-0.3-0.65-0.31
				c-0.11,0-0.23,0.02-0.37,0.07c-0.13,0.05-0.26,0.12-0.39,0.21c-0.13,0.1-0.25,0.21-0.35,0.34c-0.11,0.13-0.19,0.28-0.25,0.45
				l-0.12,3.61l-1.92-0.06l0.29-8.75l1.92,0.06l-0.12,3.51c0.24-0.37,0.56-0.65,0.95-0.84c0.39-0.19,0.81-0.28,1.26-0.26
				c0.42,0.01,0.76,0.1,1.02,0.26c0.26,0.16,0.45,0.35,0.58,0.58c0.13,0.23,0.22,0.49,0.26,0.78c0.04,0.29,0.05,0.56,0.04,0.84
				L318.04,197.99z"/>
		</g>
	</g>
</g>
</svg>
